<?xml version="1.0" encoding="UTF-8" standalone="no"?>
<!DOCTYPE svg PUBLIC "-//W3C//DTD SVG 1.1//EN" "http://www.w3.org/Graphics/SVG/1.1/DTD/svg11.dtd">
<svg xmlns="http://www.w3.org/2000/svg" xmlns:xlink="http://www.w3.org/1999/xlink" version="1.1" width="612.283pt" height="858.898pt" viewBox="0 0 612.283 858.898">
<g enable-background="new">
<g id="Layer-1" data-name="Layer 1">
<clipPath id="cp10">
<path transform="matrix(1,0,0,-1,0,858.898)" d="M 0 858.898 L 612.283 858.898 L 612.283 0 L 0 0 Z "/>
</clipPath>
<g clip-path="url(#cp10)">
<path transform="matrix(1,0,0,-1,266.8415,263.11134)" d="M 0 0 C -3.136 -9.805 -4.237 -20.066 -3.249 -30.313 C -3.12 -31.65 -.216 -30.947 -.352 -29.537 C -1.297 -19.724 -.229 -9.734 2.773 -.344 C 3.285 1.256 .397 1.244 0 0 "/>
<path transform="matrix(1,0,0,-1,310.3942,289.78413)" d="M 0 0 C -.239 10.995 2.603 21.884 8.235 31.333 C 8.984 32.588 6.061 32.424 5.509 31.5 C -.203 21.919 -3.155 10.847 -2.913 -.308 C -2.884 -1.643 .023 -1.079 0 0 "/>
<path transform="matrix(1,0,0,-1,320.7331,292.71144)" d="M 0 0 C 2.535 10.394 7.055 20.191 13.296 28.88 C 13.712 29.459 12.938 29.812 12.479 29.852 C 11.788 29.911 10.982 29.597 10.574 29.029 C 4.243 20.215 -.339 10.226 -2.909 -.317 C -3.196 -1.495 -.264 -1.082 0 0 "/>
</g>
<text fill="#1c1b1a" xml:space="preserve" transform="matrix(1 0 -0 1 0 858.898)" font-size="35" font-family="ProdushRegular"><tspan y="-254.9258" x="209.7881 226.3081 244.6131 261.1331 279.12309 293.96308 313.49308 324.62309 340.58308 351.43309 370.96308 388.70808">COCKTAIL ART</tspan></text>
<clipPath id="cp11">
<path transform="matrix(1,0,0,-1,0,858.898)" d="M 0 858.898 L 612.283 858.898 L 612.283 0 L 0 0 Z "/>
</clipPath>
<g clip-path="url(#cp11)">
<path transform="matrix(1,0,0,-1,222.3218,591.188)" stroke-width="1" stroke-linecap="butt" stroke-miterlimit="10" stroke-linejoin="miter" fill="none" stroke="#ffffff" d="M 0 0 L 0 4.016 L -12.043 4.016 L -10.656 2.586 L -10.656 -11.354 L -12.043 -12.784 L 0 -12.784 L 0 -6.901 L -3.722 -7.89 L -3.722 -8.947 L -6.818 -8.947 L -6.818 .168 L -3.722 .168 L -3.722 -.999 Z "/>
<path transform="matrix(1,0,0,-1,240.5913,587.16177)" stroke-width="1" stroke-linecap="butt" stroke-miterlimit="10" stroke-linejoin="miter" fill="none" stroke="#ffffff" d="M 0 0 L -13.793 0 L -12.405 -1.43 L -12.405 -15.401 L -13.793 -16.821 L 0 -16.821 L -1.388 -15.401 L -1.388 -1.43 Z M -8.568 -3.848 L -5.235 -3.848 L -5.235 -12.983 L -8.568 -12.983 Z "/>
<path transform="matrix(1,0,0,-1,257.1465,591.188)" stroke-width="1" stroke-linecap="butt" stroke-miterlimit="10" stroke-linejoin="miter" fill="none" stroke="#ffffff" d="M 0 0 L 0 4.016 L -12.043 4.016 L -10.656 2.586 L -10.656 -11.354 L -12.043 -12.784 L 0 -12.784 L 0 -6.901 L -3.722 -7.89 L -3.722 -8.947 L -6.818 -8.947 L -6.818 .168 L -3.722 .168 L -3.722 -.999 Z "/>
<path transform="matrix(1,0,0,-1,261.6226,587.16177)" stroke-width="1" stroke-linecap="butt" stroke-miterlimit="10" stroke-linejoin="miter" fill="none" stroke="#ffffff" d="M 0 0 L 1.398 -1.43 L 1.398 -15.401 L 0 -16.821 L 5.235 -16.811 L 5.235 -10.576 L 6.833 -10.188 L 8.463 -16.821 L 13.488 -16.821 L 12.09 -15.401 L 10.565 -9.188 L 11.89 -8.853 L 11.89 -1.43 L 13.278 0 L 8.053 0 L 8.053 -6.024 L 5.235 -6.528 L 5.235 0 Z "/>
<path transform="matrix(1,0,0,-1,279.6123,587.16177)" stroke-width="1" stroke-linecap="butt" stroke-miterlimit="10" stroke-linejoin="miter" fill="none" stroke="#ffffff" d="M 0 0 L 0 -5.235 L 1.419 -3.848 L 4.479 -3.848 L 4.479 -15.381 L 3.091 -16.8 L 9.714 -16.8 L 8.326 -15.381 L 8.326 -3.848 L 11.375 -3.848 L 12.805 -5.235 L 12.805 0 Z "/>
<path transform="matrix(1,0,0,-1,305.333,587.16177)" stroke-width="1" stroke-linecap="butt" stroke-miterlimit="10" stroke-linejoin="miter" fill="none" stroke="#ffffff" d="M 0 0 L -6.76 0 L -5.667 -1.125 L -9.493 -15.392 L -10.881 -16.811 L -5.782 -16.811 L -5.425 -15.076 L -1.608 -14.056 L -.883 -16.811 L 4.142 -16.811 L 2.733 -15.392 L -1.093 -1.125 Z M -4.321 -10.934 L -3.375 -7.433 L -2.565 -10.471 Z "/>
<path transform="matrix(1,0,0,-1,313.9819,587.16177)" stroke-width="1" stroke-linecap="butt" stroke-miterlimit="10" stroke-linejoin="miter" fill="none" stroke="#ffffff" d="M 0 0 L 1.388 -1.43 L 1.388 -15.392 L 0 -16.811 L 6.623 -16.811 L 5.235 -15.392 L 5.235 -1.43 L 6.623 0 Z "/>
<path transform="matrix(1,0,0,-1,335.1641,600.1236)" stroke-width="1" stroke-linecap="butt" stroke-miterlimit="10" stroke-linejoin="miter" fill="none" stroke="#ffffff" d="M 0 0 L -.034 -.001 L -4.817 -.001 L -4.817 11.532 L -3.429 12.962 L -10.052 12.962 L -8.665 11.532 L -8.665 -2.43 L -10.052 -3.849 L 1.417 -3.849 L 1.417 1.386 Z "/>
<path transform="matrix(1,0,0,-1,362.8018,587.16177)" stroke-width="1" stroke-linecap="butt" stroke-miterlimit="10" stroke-linejoin="miter" fill="none" stroke="#ffffff" d="M 0 0 L -6.76 0 L -5.667 -1.125 L -9.493 -15.392 L -10.881 -16.811 L -5.782 -16.811 L -5.425 -15.076 L -1.608 -14.056 L -.883 -16.811 L 4.142 -16.811 L 2.733 -15.392 L -1.093 -1.125 Z M -4.321 -10.934 L -3.375 -7.433 L -2.565 -10.471 Z "/>
<path transform="matrix(1,0,0,-1,383.29,602.5425)" stroke-width="1" stroke-linecap="butt" stroke-miterlimit="10" stroke-linejoin="miter" fill="none" stroke="#ffffff" d="M 0 0 L -1.579 4.311 L .051 4.752 L .051 13.951 L 1.438 15.381 L -11.839 15.381 L -10.452 13.951 L -10.452 -.011 L -11.839 -1.43 L -6.604 -1.43 L -6.604 3.207 L -5.3 3.501 L -3.45 -1.43 L 1.388 -1.43 L 0 0 Z M -3.797 7.559 C -4.438 7.391 -5.963 7.223 -6.604 7.044 L -6.604 11.533 L -3.797 11.533 Z "/>
<path transform="matrix(1,0,0,-1,389.1953,587.16177)" stroke-width="1" stroke-linecap="butt" stroke-miterlimit="10" stroke-linejoin="miter" fill="none" stroke="#ffffff" d="M 0 0 L 0 -5.235 L 1.419 -3.848 L 4.479 -3.848 L 4.479 -15.381 L 3.091 -16.8 L 9.714 -16.8 L 8.326 -15.381 L 8.326 -3.848 L 11.375 -3.848 L 12.805 -5.235 L 12.805 0 Z "/>
<path transform="matrix(1,0,0,-1,167.1891,345.5976)" d="M 0 0 C 2.889 -.617 3.999 -3.895 5.537 -6.052 C 7.46 -8.749 10.197 -10.681 12.904 -12.519 C 16.024 -14.636 19.24 -16.614 22.536 -18.446 C 23.885 -19.196 24.971 -19.97 26.558 -19.625 C 27.273 -19.47 29.117 -18.703 28.197 -17.732 C 27.67 -17.176 24.979 -18.218 25.473 -18.74 C 25.56 -19.032 25.57 -19.127 25.506 -19.026 C 26.084 -18.844 26.663 -18.662 27.241 -18.479 C 26.734 -18.513 25.681 -17.672 25.261 -17.438 C 24.574 -17.057 23.891 -16.669 23.211 -16.274 C 21.853 -15.486 20.508 -14.672 19.179 -13.834 C 16.721 -12.283 14.246 -10.694 11.979 -8.87 C 9.854 -7.158 8.339 -5.181 6.92 -2.874 C 5.813 -1.076 4.555 .695 2.37 1.162 C 1.715 1.302 .929 1.108 .341 .805 C .104 .683 -.666 .142 0 0 "/>
<path transform="matrix(1,0,0,-1,152.1608,392.38523)" d="M 0 0 C 2.319 -.792 4.298 -2.208 6.294 -3.591 C 8.372 -5.029 10.527 -6.321 12.828 -7.375 C 17.284 -9.416 22.056 -10.611 26.943 -10.958 C 27.572 -11.002 28.503 -10.836 28.992 -10.409 C 29.379 -10.071 29.436 -9.749 28.804 -9.704 C 23.794 -9.349 18.867 -8.039 14.369 -5.796 C 10.233 -3.734 6.769 -.328 2.367 1.173 C 1.761 1.38 .879 1.104 .337 .821 C .039 .666 -.622 .212 0 0 "/>
<path transform="matrix(1,0,0,-1,152.0583,409.3109)" d="M 0 0 C 5.616 -2.152 11.31 -4.098 17.075 -5.811 C 19.966 -6.67 22.874 -7.472 25.797 -8.215 C 27.992 -8.773 30.468 -8.963 32.313 -7.37 C 32.81 -6.94 31.868 -6.919 31.639 -6.935 C 31.008 -6.978 30.188 -7.192 29.696 -7.617 C 30.212 -7.523 30.174 -7.468 29.582 -7.45 C 29.346 -7.407 29.111 -7.355 28.878 -7.296 C 28.261 -7.151 27.646 -6.984 27.033 -6.825 C 25.957 -6.545 24.884 -6.257 23.812 -5.962 C 21.44 -5.309 19.079 -4.616 16.729 -3.886 C 12.013 -2.42 7.347 -.796 2.734 .972 C 2.162 1.191 1.428 .988 .874 .788 C .771 .75 -.438 .168 0 0 "/>
<path transform="matrix(1,0,0,-1,153.9772,426.2851)" d="M 0 0 C 4.652 -1.241 9.306 -2.482 13.959 -3.724 C 18.143 -4.839 22.389 -6.395 26.658 -4.816 C 27.051 -4.67 27.823 -4.188 27.443 -3.697 C 27.065 -3.211 25.964 -3.534 25.532 -3.694 C 23.693 -4.375 21.535 -3.732 19.719 -3.26 C 17.761 -2.75 15.809 -2.217 13.854 -1.696 C 9.832 -.623 5.81 .45 1.788 1.523 C .905 1.758 -1.606 .429 0 0 "/>
<path transform="matrix(1,0,0,-1,156.7663,440.90663)" d="M 0 0 C 5.286 -2.072 10.704 -3.803 16.219 -5.16 C 18.957 -5.835 21.739 -6.497 24.531 -6.91 C 25.466 -7.048 29.745 -6.529 28.667 -4.716 C 28.114 -3.787 25.343 -4.775 25.77 -5.492 C 25.88 -5.814 25.986 -5.767 26.088 -5.349 C 25.777 -5.294 25.468 -5.237 25.159 -5.181 C 24.694 -5.095 24.23 -5.006 23.768 -4.915 C 22.687 -4.702 21.609 -4.476 20.534 -4.234 C 18.538 -3.787 16.554 -3.291 14.582 -2.745 C 10.423 -1.595 6.333 -.211 2.316 1.364 C 1.68 1.613 .836 1.431 .268 1.079 C -.073 .868 -.656 .258 0 0 "/>
<path transform="matrix(1,0,0,-1,269.5427,557.8139)" d="M 0 0 C -.112 8.44 1.081 16.863 3.595 24.925 C 3.969 26.122 1.805 26.101 1.517 25.176 C -1.044 16.964 -2.316 8.438 -2.202 -.165 C -2.187 -1.304 .014 -.978 0 0 "/>
<path transform="matrix(1,0,0,-1,250.027,557.9301)" d="M 0 0 C 9.1 5.16 15.954 13.657 18.924 23.704 C 19.2 24.638 16.989 24.37 16.732 23.501 C 13.971 14.159 7.562 5.959 -.927 1.146 C -2.214 .416 -1.038 -.588 0 0 "/>
<path transform="matrix(1,0,0,-1,184.1784,413.1151)" d="M 0 0 C 0 67.564 54.771 122.336 122.336 122.336 C 189.9 122.336 244.672 67.564 244.672 0 C 244.672 -67.564 189.9 -122.336 122.336 -122.336 C 54.771 -122.336 0 -67.564 0 0 " fill="#ffffff"/>
<path transform="matrix(1,0,0,-1,459.571,409.9447)" d="M 0 0 C 1.381 .126 2.598 2.049 3.891 3.142 C 2.733 3.833 1.437 5.281 .44 5.098 C -8.413 3.479 -16.758 6.233 -25.223 7.821 C -26.956 8.146 -28.536 9.287 -30.187 10.052 C -28.57 10.837 -27.028 12.016 -25.323 12.341 C -17.151 13.897 -8.904 15.074 -.762 16.763 C .725 17.072 1.849 19.132 3.14 20.384 C 1.529 20.795 -.307 21.925 -1.655 21.502 C -10.986 18.575 -20.189 21.864 -29.44 21.795 C -30.228 21.789 -31.021 22.672 -31.812 23.142 C -31.207 24.006 -30.783 25.199 -29.953 25.656 C -28.835 26.272 -27.384 26.254 -26.11 26.627 C -18.61 28.825 -11.079 30.932 -3.665 33.39 C -2.242 33.861 -1.294 35.762 -.127 37.003 C -1.879 37.306 -3.626 37.651 -5.388 37.882 C -5.844 37.942 -6.34 37.567 -6.83 37.521 C -15.548 36.69 -24.266 35.842 -32.994 35.133 C -33.72 35.074 -34.523 35.98 -35.773 36.726 C -34.434 37.72 -33.646 38.592 -32.666 38.981 C -28.333 40.704 -23.871 42.117 -19.596 43.968 C -15.186 45.877 -10.877 48.051 -6.677 50.385 C -5.917 50.807 -5.898 52.561 -5.538 53.699 C -6.605 53.898 -7.678 54.268 -8.737 54.238 C -9.518 54.216 -10.345 53.77 -11.044 53.34 C -19.428 48.191 -29.235 50.13 -38.208 47.913 C -38.731 47.783 -39.49 48.603 -41.066 49.52 C -38.53 51.095 -36.692 52.34 -34.761 53.417 C -28.225 57.06 -21.577 60.513 -15.153 64.342 C -13.5 65.328 -12.511 67.428 -11.217 69.017 C -11.662 69.705 -12.106 70.393 -12.552 71.08 C -22.649 63.316 -34.596 62.871 -46.33 60.956 C -44.958 63.091 -43.276 64.527 -41.505 65.842 C -35.089 70.603 -28.588 75.251 -22.272 80.139 C -21.398 80.815 -21.386 82.603 -20.975 83.875 C -22.013 83.784 -23.371 84.085 -24.041 83.54 C -30.258 78.478 -37.32 75.534 -45.191 74.144 C -47.951 73.656 -50.544 72.224 -53.213 71.223 C -53.501 71.651 -53.79 72.079 -54.078 72.507 C -52.862 73.84 -51.724 75.256 -50.416 76.492 C -44.974 81.636 -39.41 86.656 -34.055 91.888 C -32.755 93.158 -32.075 95.063 -31.11 96.677 L -32.54 97.768 C -35.198 95.611 -37.817 93.405 -40.527 91.317 C -42.22 90.013 -43.912 88.569 -45.843 87.747 C -50.059 85.95 -54.421 84.493 -58.737 82.937 C -59.711 82.586 -60.744 82.398 -63.128 81.776 C -56.539 92.032 -46.614 98.36 -42.313 109.694 C -52.642 102.922 -61.859 96.88 -71.077 90.837 C -71.416 91.269 -71.756 91.7 -72.095 92.132 C -66.688 101.593 -58.332 109.443 -55.879 120.613 C -58.68 118.588 -60.665 116.018 -62.728 113.511 C -63.885 112.106 -64.979 110.537 -66.435 109.512 C -70.522 106.635 -74.787 104.009 -78.971 101.266 C -79.998 100.592 -80.981 99.851 -81.985 99.141 C -82.071 99.205 -82.157 99.269 -82.242 99.333 C -83.386 97.729 -84.572 96.151 -85.823 94.612 C -86.114 94.253 -86.431 93.943 -86.758 93.654 C -80.846 89.086 -74.934 84.519 -69.022 79.952 C -54.584 65.415 -44.597 48.279 -39.062 28.544 C -37.675 18.22 -36.287 7.897 -34.9 -2.426 C -34.295 -18.466 -37.64 -33.428 -44.934 -47.312 C -49.632 -61.755 -57.661 -74.252 -69.022 -84.805 C -79.574 -96.165 -92.072 -104.194 -106.515 -108.893 C -119.778 -115.861 -134.028 -119.216 -149.26 -118.975 C -150.992 -119.003 -152.734 -118.993 -154.493 -118.927 C -168.834 -118.882 -182.509 -116.397 -195.521 -111.481 C -197.142 -110.75 -198.752 -109.983 -200.344 -109.147 C -201.648 -108.723 -202.932 -108.262 -204.205 -107.782 C -207.271 -106.332 -210.304 -104.755 -213.293 -103.021 L -236.871 -84.805 C -251.31 -70.269 -261.296 -53.133 -266.831 -33.396 C -268.219 -23.073 -269.605 -12.75 -270.993 -2.426 C -271.08 -.103 -271.075 2.195 -270.997 4.474 C -270.207 10.355 -269.416 16.237 -268.626 22.119 C -266.943 29.137 -264.395 35.919 -260.959 42.458 C -256.261 56.901 -248.231 69.399 -236.871 79.952 C -236.275 80.592 -235.672 81.22 -235.063 81.839 C -229.986 85.762 -224.909 89.685 -219.832 93.607 C -221.541 95.339 -223.218 97.102 -224.862 98.894 C -224.866 98.891 -224.869 98.889 -224.873 98.886 C -225.877 99.597 -226.86 100.338 -227.888 101.012 C -232.071 103.755 -236.336 106.38 -240.424 109.258 C -241.879 110.282 -242.974 111.852 -244.131 113.257 C -246.193 115.763 -248.179 118.334 -250.979 120.358 C -248.526 109.189 -240.171 101.339 -234.764 91.878 C -235.103 91.446 -235.442 91.015 -235.781 90.582 C -244.999 96.625 -254.217 102.668 -264.545 109.439 C -260.282 98.207 -250.501 91.886 -243.913 81.79 C -243.97 81.731 -244.029 81.673 -244.086 81.613 C -246.209 82.16 -247.199 82.351 -248.121 82.683 C -252.437 84.239 -256.8 85.696 -261.016 87.493 C -262.946 88.315 -264.639 89.759 -266.331 91.062 C -269.041 93.151 -271.66 95.357 -274.318 97.513 L -275.748 96.422 C -274.783 94.809 -274.104 92.904 -272.804 91.634 C -267.448 86.401 -261.885 81.382 -256.442 76.238 C -255.135 75.002 -253.996 73.586 -252.78 72.253 C -253.068 71.825 -253.357 71.397 -253.646 70.969 C -256.314 71.97 -258.907 73.402 -261.667 73.89 C -269.538 75.28 -276.601 78.224 -282.817 83.286 C -283.487 83.831 -284.846 83.53 -285.884 83.622 C -285.473 82.349 -285.46 80.561 -284.586 79.885 C -278.271 74.997 -271.77 70.348 -265.354 65.588 C -263.582 64.273 -261.9 62.837 -260.528 60.702 C -272.263 62.617 -284.209 63.062 -294.307 70.826 C -294.752 70.138 -295.196 69.451 -295.642 68.763 C -294.348 67.174 -293.358 65.073 -291.705 64.087 C -285.281 60.258 -278.634 56.806 -272.098 53.163 C -270.297 52.158 -268.569 51.004 -266.287 49.576 C -266.431 49.276 -266.581 48.982 -266.722 48.68 C -267.688 48.033 -268.243 47.558 -268.65 47.659 C -277.623 49.876 -287.431 47.937 -295.814 53.086 C -296.514 53.516 -297.341 53.961 -298.121 53.984 C -299.181 54.014 -300.253 53.644 -301.32 53.445 C -300.96 52.306 -300.941 50.552 -300.182 50.131 C -295.981 47.797 -291.673 45.623 -287.263 43.713 C -282.987 41.863 -278.525 40.449 -274.192 38.727 C -273.333 38.385 -272.6 37.665 -271.534 36.825 C -271.633 36.543 -271.734 36.261 -271.831 35.979 C -272.674 35.381 -273.295 34.833 -273.864 34.879 C -282.593 35.588 -291.311 36.436 -300.028 37.267 C -300.519 37.313 -301.015 37.688 -301.471 37.628 C -303.232 37.397 -304.979 37.052 -306.731 36.749 C -305.564 35.508 -304.616 33.607 -303.193 33.136 C -295.779 30.678 -288.248 28.571 -280.748 26.373 C -279.475 26 -278.023 26.018 -276.905 25.401 C -276.242 25.036 -275.837 24.202 -275.393 23.44 C -275.463 23.13 -275.527 22.821 -275.594 22.512 C -276.203 22.057 -276.812 21.536 -277.418 21.541 C -286.669 21.61 -295.872 18.321 -305.203 21.248 C -306.552 21.671 -308.388 20.541 -309.998 20.13 C -308.707 18.878 -307.583 16.817 -306.097 16.509 C -297.954 14.82 -289.707 13.643 -281.535 12.086 C -280.146 11.822 -278.865 10.993 -277.563 10.269 C -277.598 9.946 -277.627 9.623 -277.658 9.3 C -278.962 8.606 -280.25 7.826 -281.636 7.566 C -290.101 5.979 -298.445 3.224 -307.299 4.844 C -308.296 5.027 -309.592 3.579 -310.749 2.888 C -309.456 1.794 -308.239 -.128 -306.858 -.254 C -299.24 -.947 -291.571 -1.066 -283.945 -1.688 C -281.983 -1.848 -280.076 -2.663 -278.157 -3.344 C -278.151 -3.687 -278.15 -4.029 -278.142 -4.372 C -279.767 -5.261 -281.371 -6.208 -283.097 -6.808 C -290.773 -9.474 -298.31 -12.776 -306.791 -12.039 C -307.862 -11.945 -309.069 -13.417 -310.213 -14.164 C -309 -15.042 -307.785 -16.677 -306.574 -16.674 C -298.922 -16.658 -291.27 -16.288 -283.617 -16.007 C -282.79 -15.977 -281.924 -15.538 -281.155 -15.69 C -279.797 -15.961 -278.467 -16.372 -277.135 -16.773 C -277.076 -17.207 -277.01 -17.64 -276.946 -18.073 C -277.941 -18.958 -278.923 -19.879 -280.086 -20.333 C -288.237 -23.512 -295.783 -28.558 -305.033 -28.537 C -305.798 -28.535 -306.565 -30.295 -307.331 -31.236 C -306.148 -31.922 -304.878 -33.315 -303.798 -33.181 C -295.879 -32.193 -287.996 -30.913 -280.109 -29.685 C -278.966 -29.507 -277.807 -28.759 -276.744 -28.909 C -276.007 -29.013 -275.313 -29.434 -274.624 -29.875 C -274.462 -30.532 -274.3 -31.19 -274.126 -31.848 C -274.41 -32.46 -274.717 -33.023 -275.185 -33.245 C -282.954 -36.918 -290.835 -40.356 -298.604 -44.031 C -300.169 -44.772 -301.396 -46.227 -302.78 -47.352 C -301.081 -47.959 -299.195 -49.376 -297.714 -49.035 C -290.587 -47.396 -283.565 -45.293 -276.514 -43.329 C -275.074 -42.928 -273.687 -42.171 -272.235 -42.041 C -271.806 -42.002 -271.36 -42.127 -270.911 -42.306 C -270.566 -43.291 -270.21 -44.276 -269.841 -45.261 C -270.003 -45.72 -270.209 -46.104 -270.53 -46.299 C -278.313 -50.996 -286.24 -55.456 -294.059 -60.096 C -295.304 -60.835 -296.217 -62.131 -297.284 -63.17 C -295.749 -63.726 -293.937 -65.106 -292.725 -64.7 C -285.48 -62.275 -278.366 -59.458 -271.228 -56.721 C -269.833 -56.187 -268.581 -55.114 -267.162 -54.865 C -266.724 -54.788 -266.258 -54.865 -265.781 -55.001 C -265.305 -56.018 -264.812 -57.021 -264.301 -58.01 C -264.42 -58.293 -264.568 -58.526 -264.781 -58.654 C -272.743 -63.436 -277.44 -72.585 -287.028 -75.24 C -288.098 -75.536 -288.776 -77.244 -289.637 -78.297 C -288.078 -78.798 -286.156 -80.146 -285.022 -79.659 C -278.917 -77.037 -272.98 -74.012 -267.042 -71.014 C -264.669 -69.815 -262.511 -68.179 -260.108 -67.057 C -259.808 -66.916 -259.445 -66.909 -259.056 -66.961 C -258.446 -67.883 -257.816 -68.787 -257.182 -69.688 C -257.238 -69.853 -257.314 -69.991 -257.43 -70.074 C -265.001 -75.527 -268.147 -85.503 -277.245 -89.426 C -278.17 -89.824 -278.586 -91.404 -279.239 -92.437 C -277.96 -92.853 -276.564 -93.809 -275.428 -93.564 C -273.531 -93.157 -271.66 -92.189 -270.024 -91.093 C -264.635 -87.479 -259.379 -83.666 -254.019 -80.008 C -252.974 -79.295 -251.818 -78.744 -250.373 -78.473 C -250.093 -78.806 -249.814 -79.14 -249.531 -79.47 C -255.075 -88.705 -260.689 -97.718 -268.646 -105.107 C -268.385 -105.663 -268.124 -106.218 -267.862 -106.773 C -265.919 -106.288 -263.578 -106.332 -262.104 -105.224 C -256.795 -101.234 -251.764 -96.873 -246.661 -92.612 C -245.514 -91.654 -244.637 -90.303 -243.382 -89.561 C -242.678 -89.145 -241.829 -88.973 -240.971 -88.818 C -240.553 -89.25 -240.132 -89.679 -239.711 -90.107 C -239.803 -90.961 -239.919 -91.801 -240.289 -92.507 C -243.289 -98.232 -246.399 -103.903 -249.617 -109.509 C -250.596 -111.214 -252.088 -112.618 -253.261 -114.221 C -254.151 -115.438 -254.909 -116.753 -255.726 -118.024 C -255.396 -118.43 -255.068 -118.834 -254.739 -119.238 C -253.122 -118.494 -251.145 -118.116 -249.949 -116.942 C -244.258 -111.355 -238.822 -105.511 -233.189 -99.863 C -232.644 -99.315 -231.966 -98.9 -231.258 -98.516 C -230.63 -99.129 -230.003 -99.742 -229.375 -100.354 C -229.412 -101.035 -229.5 -101.696 -229.726 -102.307 C -231.789 -107.894 -234.006 -113.43 -236.38 -118.892 C -237.219 -120.82 -238.83 -122.402 -239.793 -124.293 C -240.441 -125.568 -240.573 -127.106 -240.937 -128.527 C -239.499 -128.097 -237.574 -128.111 -236.707 -127.161 C -232.221 -122.251 -227.984 -117.11 -223.711 -112.009 C -222.645 -110.735 -221.899 -109.178 -220.758 -107.989 C -220.072 -107.274 -219.175 -106.764 -218.295 -106.235 C -217.998 -106.358 -217.706 -106.488 -217.419 -106.625 C -217.368 -107.802 -217.256 -108.997 -217.568 -110.066 C -218.361 -112.774 -219.584 -115.353 -220.527 -118.02 C -222.502 -123.607 -220.679 -130.431 -226.047 -134.966 C -226.346 -135.219 -225.84 -136.423 -225.522 -138.263 C -223.643 -136.655 -222.095 -135.782 -221.175 -134.471 C -216.687 -128.072 -212.414 -121.522 -207.938 -115.115 C -207.878 -115.028 -207.807 -114.948 -207.737 -114.867 C -207.526 -114.914 -207.318 -114.957 -207.127 -114.992 C -206.167 -115.167 -205.195 -115.297 -204.22 -115.413 C -204.183 -115.801 -204.183 -116.181 -204.264 -116.543 C -205.441 -121.832 -206.862 -127.067 -207.638 -132.528 C -201.743 -128.815 -202.738 -120.862 -198.718 -116.119 C -197.795 -116.279 -196.886 -116.483 -195.994 -116.747 L -210.581 -143.454 C -209.868 -143.854 -209.155 -144.255 -208.443 -144.654 C -205.8 -140.968 -202.935 -137.415 -200.575 -133.555 C -198.238 -129.732 -196.504 -125.546 -194.31 -121.629 C -193.596 -120.355 -192.419 -119.342 -191.387 -118.247 C -191.244 -118.298 -191.103 -118.348 -190.966 -118.397 C -190.829 -118.987 -190.66 -119.58 -190.51 -120.172 C -189.707 -119.912 -188.787 -119.805 -187.738 -119.907 C -177.701 -120.895 -167.566 -122.806 -157.469 -122.878 C -147.882 -122.947 -138.433 -120.896 -128.931 -119.907 C -127.376 -119.746 -126.1 -120.041 -125.088 -120.632 C -121.8 -119.159 -121.103 -120.894 -120.523 -123.416 C -119.571 -127.564 -118.425 -131.668 -117.309 -135.779 C -116.89 -136.591 -116.49 -137.41 -116.106 -138.237 C -115.767 -138.164 -115.428 -138.091 -115.088 -138.018 C -115.088 -136.424 -114.915 -134.808 -115.124 -133.241 C -115.585 -129.778 -116.435 -126.357 -116.729 -122.886 C -116.873 -121.184 -116.129 -119.405 -115.787 -117.662 C -114.69 -118.89 -113.334 -119.973 -112.549 -121.374 C -110.354 -125.292 -108.62 -129.478 -106.283 -133.301 C -103.924 -137.161 -101.059 -140.713 -98.415 -144.4 C -97.703 -144 -96.99 -143.601 -96.277 -143.2 C -101.186 -134.214 -106.094 -125.227 -111.002 -116.24 C -110.299 -115.848 -109.595 -115.456 -108.892 -115.063 C -103.972 -119.659 -105.46 -128.345 -99.221 -132.274 C -99.996 -126.813 -101.417 -121.578 -102.595 -116.289 C -102.864 -115.079 -102.293 -113.683 -102.109 -112.373 C -101.03 -113.191 -99.658 -113.805 -98.92 -114.861 C -94.444 -121.269 -90.172 -127.817 -85.684 -134.216 C -84.764 -135.528 -83.216 -136.401 -81.336 -138.008 C -81.019 -136.168 -80.513 -134.964 -80.812 -134.712 C -86.18 -130.177 -84.356 -123.354 -86.331 -117.766 C -87.274 -115.099 -88.497 -112.521 -89.29 -109.813 C -89.686 -108.46 -89.398 -106.907 -89.421 -105.445 C -88.3 -106.195 -87.012 -106.784 -86.101 -107.734 C -84.959 -108.924 -84.214 -110.481 -83.147 -111.754 C -78.874 -116.856 -74.638 -121.996 -70.151 -126.907 C -69.284 -127.857 -67.359 -127.843 -65.922 -128.272 C -66.285 -126.853 -66.417 -125.313 -67.065 -124.039 C -68.028 -122.148 -69.64 -120.566 -70.479 -118.637 C -72.853 -113.176 -75.069 -107.64 -77.133 -102.053 C -77.676 -100.583 -77.437 -98.825 -77.557 -97.199 C -76.248 -97.99 -74.717 -98.559 -73.669 -99.609 C -68.036 -105.257 -62.601 -111.102 -56.909 -116.688 C -55.714 -117.862 -53.736 -118.24 -52.119 -118.984 C -51.79 -118.58 -51.462 -118.175 -51.133 -117.771 C -51.949 -116.499 -52.707 -115.185 -53.598 -113.967 C -54.771 -112.363 -56.263 -110.96 -57.241 -109.255 C -60.459 -103.649 -63.569 -97.979 -66.569 -92.253 C -67.17 -91.106 -67.103 -89.61 -67.344 -88.276 C -66.041 -88.597 -64.582 -88.652 -63.477 -89.307 C -62.222 -90.049 -61.345 -91.399 -60.197 -92.358 C -55.095 -96.618 -50.063 -100.98 -44.755 -104.97 C -43.28 -106.078 -40.939 -106.034 -38.996 -106.519 C -38.734 -105.964 -38.474 -105.408 -38.213 -104.854 C -46.505 -97.151 -52.254 -87.688 -58.03 -78.045 C -55.821 -78.142 -54.232 -78.804 -52.84 -79.754 C -47.479 -83.411 -42.224 -87.225 -36.834 -90.839 C -35.198 -91.936 -33.327 -92.903 -31.431 -93.311 C -30.294 -93.555 -28.898 -92.599 -27.619 -92.182 C -28.272 -91.15 -28.688 -89.57 -29.613 -89.172 C -38.711 -85.249 -41.857 -75.273 -49.429 -69.82 C -49.951 -69.444 -49.753 -68.067 -49.891 -67.156 C -48.831 -67.011 -47.564 -66.422 -46.75 -66.802 C -44.348 -67.924 -42.189 -69.561 -39.816 -70.76 C -33.878 -73.758 -27.941 -76.783 -21.836 -79.405 C -20.702 -79.892 -18.78 -78.544 -17.222 -78.043 C -18.082 -76.99 -18.761 -75.282 -19.83 -74.985 C -29.418 -72.33 -34.115 -63.182 -42.077 -58.4 C -42.78 -57.978 -42.829 -56.466 -43.183 -55.46 C -42.015 -55.144 -40.775 -54.422 -39.696 -54.611 C -38.277 -54.86 -37.025 -55.932 -35.631 -56.467 C -28.492 -59.204 -21.378 -62.021 -14.134 -64.446 C -12.921 -64.853 -11.109 -63.471 -9.574 -62.916 C -10.642 -61.877 -11.555 -60.58 -12.8 -59.842 C -20.618 -55.202 -28.545 -50.741 -36.328 -46.044 C -37.131 -45.56 -37.228 -43.905 -37.652 -42.793 C -36.64 -42.429 -35.595 -41.699 -34.623 -41.787 C -33.171 -41.917 -31.784 -42.674 -30.345 -43.075 C -23.293 -45.039 -16.271 -47.143 -9.145 -48.781 C -7.663 -49.122 -5.777 -47.704 -4.078 -47.098 C -5.462 -45.972 -6.689 -44.518 -8.255 -43.777 C -16.023 -40.103 -23.904 -36.664 -31.674 -32.991 C -32.478 -32.61 -32.808 -31.227 -33.357 -30.309 C -32.281 -29.726 -31.251 -28.815 -30.114 -28.655 C -29.052 -28.505 -27.893 -29.253 -26.749 -29.431 C -18.862 -30.659 -10.979 -31.938 -3.061 -32.927 C -1.98 -33.062 -.71 -31.668 .473 -30.981 C -.293 -30.041 -1.061 -28.281 -1.825 -28.283 C -11.075 -28.304 -18.621 -23.257 -26.772 -20.078 C -28.355 -19.461 -29.601 -17.98 -31.002 -16.897 C -29.239 -16.395 -27.495 -15.793 -25.703 -15.437 C -24.935 -15.284 -24.068 -15.722 -23.241 -15.752 C -15.589 -16.034 -7.937 -16.404 -.284 -16.42 C .927 -16.422 2.142 -14.788 3.354 -13.91 C 2.211 -13.163 1.004 -11.691 -.067 -11.784 C -8.549 -12.522 -16.085 -9.22 -23.762 -6.554 C -25.902 -5.81 -27.854 -4.525 -29.894 -3.489 C -27.568 -2.777 -25.28 -1.626 -22.913 -1.434 C -15.287 -.812 -7.618 -.693 0 0 "/>
<path transform="matrix(1,0,0,-1,361.0876,554.8695)" d="M 0 0 C .162 -.995 1.594 -1.782 2.437 -2.665 C 3.15 -1.525 4.416 -.404 4.456 .759 C 4.521 2.697 4.036 4.746 3.368 6.6 C 1.169 12.705 -1.255 18.729 -3.503 24.816 C -3.923 25.953 -4.165 27.158 -4.108 28.547 C -4.355 28.895 -4.595 32.248 -4.841 32.596 C -9.793 31.161 -15.153 27.844 -20.492 28.798 C -30.535 25.713 -40.979 24.001 -51.83 23.692 C -62.182 24.852 -72.533 26.01 -82.885 27.168 C -85.161 27.646 -87.389 28.209 -89.58 28.837 C -95.095 31.031 -100.609 33.224 -106.123 35.418 C -106.61 35.671 -107.089 35.938 -107.57 36.201 C -107.673 33.716 -107.883 31.228 -108.234 28.772 C -108.221 28.766 -108.208 28.76 -108.194 28.753 C -107.901 28.052 -107.544 27.334 -107.695 26.748 C -110.007 17.79 -109.048 8.064 -114.151 -.278 C -114.889 -1.484 -114.237 -3.539 -114.229 -5.201 C -112.702 -4.252 -110.431 -3.662 -109.771 -2.295 C -106.156 5.194 -103.014 12.91 -99.522 20.461 C -98.929 21.744 -97.813 22.785 -96.796 23.872 C -96.49 23.762 -96.185 23.654 -95.878 23.546 C -95.521 22.112 -95.077 20.674 -95.161 19.267 C -95.674 10.669 -95.026 1.905 -98.745 -6.29 C -99.164 -7.214 -98.074 -8.821 -97.685 -10.112 C -96.311 -9.123 -94.149 -8.408 -93.692 -7.1 C -91.172 .123 -89.197 7.533 -86.744 14.781 C -86.112 16.646 -84.858 18.299 -83.733 19.995 C -83.399 19.917 -83.066 19.835 -82.731 19.761 C -82.263 17.969 -81.733 16.182 -81.571 14.362 C -80.846 6.269 -79.471 -1.844 -82.244 -9.894 C -82.594 -10.909 -81.459 -12.438 -81.012 -13.729 C -79.866 -12.765 -77.985 -11.983 -77.694 -10.808 C -75.854 -3.379 -74.356 4.135 -72.772 11.626 C -72.602 12.437 -72.816 13.383 -72.482 14.091 C -71.891 15.344 -71.169 16.534 -70.456 17.729 C -70.022 17.681 -69.586 17.64 -69.15 17.597 C -68.532 16.416 -67.877 15.241 -67.72 14.003 C -66.613 5.324 -63.548 -3.221 -65.812 -12.19 C -65.998 -12.931 -64.478 -14.103 -63.751 -15.074 C -62.798 -14.093 -61.138 -13.198 -61.007 -12.117 C -60.044 -4.195 -59.373 3.762 -58.651 11.712 C -58.547 12.864 -58.991 14.17 -58.589 15.164 C -58.309 15.854 -57.733 16.425 -57.138 16.987 C -56.46 16.985 -55.782 16.982 -55.103 16.991 C -54.577 16.567 -54.105 16.133 -54.004 15.625 C -52.325 7.196 -50.9 -1.282 -49.22 -9.71 C -48.881 -11.408 -47.769 -12.952 -47.012 -14.567 C -46.011 -13.066 -44.179 -11.581 -44.149 -10.062 C -44.011 -2.749 -44.348 4.572 -44.543 11.89 C -44.583 13.384 -44.98 14.912 -44.755 16.353 C -44.688 16.779 -44.459 17.181 -44.177 17.573 C -43.138 17.669 -42.096 17.776 -41.051 17.895 C -40.645 17.627 -40.321 17.333 -40.211 16.975 C -37.542 8.284 -35.138 -.487 -32.533 -9.198 C -32.118 -10.585 -31.082 -11.786 -30.333 -13.072 C -29.422 -11.718 -27.643 -10.296 -27.742 -9.021 C -28.338 -1.404 -29.345 6.181 -30.269 13.77 C -30.449 15.252 -31.186 16.728 -31.083 18.164 C -31.051 18.608 -30.863 19.042 -30.616 19.471 C -29.515 19.687 -28.422 19.922 -27.338 20.178 C -27.093 19.993 -26.901 19.792 -26.829 19.555 C -24.122 10.671 -16.386 3.896 -16.136 -6.052 C -16.108 -7.161 -14.615 -8.233 -13.803 -9.323 C -12.938 -7.933 -11.164 -6.396 -11.362 -5.177 C -12.425 1.383 -13.919 7.875 -15.388 14.363 C -15.975 16.956 -17.039 19.446 -17.545 22.051 C -17.608 22.375 -17.527 22.729 -17.382 23.095 C -16.34 23.462 -15.31 23.854 -14.282 24.251 C -14.136 24.156 -14.02 24.049 -13.967 23.916 C -10.514 15.249 -1.599 9.776 0 0 "/>
<path transform="matrix(1,0,0,-1,373.6833,309.67823)" d="M 0 0 C -.068 .046 -.137 .094 -.205 .14 C -.031 2.326 -.014 3.333 .155 4.299 C .945 8.819 1.632 13.366 2.677 17.828 C 3.155 19.872 4.286 21.788 5.279 23.678 C 6.871 26.707 8.594 29.667 10.261 32.655 C 9.82 33.062 9.381 33.469 8.94 33.876 C 7.517 32.648 5.757 31.652 4.729 30.153 C .496 23.978 -3.492 17.634 -7.624 11.388 C -8.617 9.887 -9.816 8.522 -10.921 7.096 C -11.392 7.306 -11.863 7.517 -12.334 7.727 C -11.807 10.528 -10.842 13.329 -10.836 16.131 C -10.819 24.124 -9.134 31.588 -5.216 38.582 C -4.794 39.335 -5.324 40.622 -5.412 41.661 C -6.596 41.037 -8.354 40.716 -8.87 39.74 C -12.6 32.678 -16.062 25.475 -19.647 18.336 C -20.639 16.364 -21.765 14.46 -23.632 12.742 C -23.763 24.631 -25.378 36.476 -19.466 47.758 C -20.22 48.078 -20.974 48.398 -21.728 48.718 C -23.07 47.17 -24.97 45.835 -25.656 44.036 C -28.324 37.05 -30.582 29.908 -33.048 22.843 C -33.728 20.896 -34.567 18.996 -35.582 16.503 C -35.902 16.592 -36.218 16.69 -36.539 16.777 C -37.343 17.617 -37.906 18.082 -37.877 18.501 C -37.235 27.721 -40.832 37.05 -37.2 46.193 C -36.897 46.957 -36.601 47.848 -36.713 48.62 C -36.865 49.669 -37.414 50.662 -37.793 51.679 C -38.854 51.128 -40.578 50.808 -40.863 49.988 C -42.44 45.449 -43.841 40.83 -44.964 36.157 C -46.052 31.628 -46.677 26.99 -47.629 22.425 C -47.817 21.52 -48.401 20.673 -49.046 19.479 C -49.34 19.527 -49.635 19.58 -49.929 19.626 C -50.663 20.354 -51.311 20.871 -51.363 21.44 C -52.165 30.161 -52.828 38.894 -53.509 47.625 C -53.547 48.116 -53.264 48.669 -53.4 49.108 C -53.931 50.804 -54.572 52.465 -55.171 54.14 C -56.193 52.776 -57.902 51.515 -58.123 50.032 C -59.27 42.306 -60.05 34.524 -60.926 26.759 C -61.074 25.44 -60.807 24.014 -61.222 22.806 C -61.468 22.09 -62.22 21.547 -62.895 20.979 C -63.211 20.994 -63.527 21.004 -63.844 21.018 C -64.396 21.539 -65.014 22.05 -65.113 22.647 C -66.636 31.772 -71.458 40.273 -70.179 49.969 C -69.994 51.37 -71.423 52.984 -72.104 54.5 C -73.115 53.012 -74.952 51.551 -75.001 50.034 C -75.265 41.723 -75.007 33.396 -75.135 25.078 C -75.156 23.664 -75.753 22.259 -76.242 20.853 C -76.566 20.831 -76.89 20.804 -77.213 20.779 C -78.121 21.945 -79.11 23.08 -79.604 24.399 C -82.624 32.465 -86.772 40.213 -86.698 49.212 C -86.69 50.226 -88.339 51.254 -89.219 52.275 C -90.074 50.813 -91.759 49.284 -91.645 47.902 C -91.019 40.278 -89.816 32.704 -89.118 25.084 C -88.938 23.124 -89.414 21.104 -89.754 19.097 C -90.091 19.032 -90.429 18.973 -90.765 18.905 C -91.92 20.353 -93.129 21.771 -94.016 23.368 C -97.962 30.471 -102.512 37.328 -103.242 45.81 C -103.335 46.881 -104.992 47.817 -105.925 48.815 C -106.581 47.47 -107.982 45.992 -107.771 44.8 C -106.44 37.264 -104.76 29.789 -103.168 22.299 C -102.995 21.489 -102.414 20.711 -102.433 19.928 C -102.466 18.543 -102.642 17.163 -102.809 15.781 C -103.225 15.649 -103.64 15.509 -104.056 15.373 C -105.1 16.2 -106.175 17.008 -106.821 18.076 C -111.354 25.56 -117.623 32.126 -119.193 41.242 C -119.323 41.995 -121.188 42.449 -122.247 43.042 C -122.72 41.759 -123.874 40.267 -123.556 39.226 C -121.221 31.595 -118.605 24.05 -116.039 16.491 C -115.667 15.395 -114.731 14.382 -114.696 13.31 C -114.672 12.565 -114.967 11.811 -115.283 11.055 C -115.903 10.782 -116.523 10.509 -117.141 10.226 C -117.793 10.4 -118.4 10.605 -118.699 11.028 C -123.653 18.051 -128.396 25.222 -133.352 32.244 C -134.35 33.658 -135.994 34.618 -137.34 35.787 C -137.646 34.009 -138.718 31.908 -138.128 30.507 C -135.288 23.768 -132.009 17.212 -128.861 10.604 C -128.22 9.254 -127.235 8.019 -126.857 6.611 C -126.745 6.194 -126.792 5.734 -126.891 5.26 C -127.802 4.751 -128.711 4.23 -129.617 3.698 C -130.098 3.778 -130.512 3.916 -130.758 4.199 C -136.724 11.059 -142.48 18.1 -148.396 25.004 C -149.337 26.104 -150.771 26.781 -151.978 27.653 C -152.261 26.046 -153.311 24.024 -152.701 22.899 C -149.067 16.179 -145.069 9.655 -141.146 3.094 C -140.379 1.812 -139.107 .763 -138.618 -.592 C -138.467 -1.011 -138.463 -1.483 -138.515 -1.976 C -138.589 -2.028 -138.659 -2.083 -138.733 -2.136 C -137.225 -3.892 -136.084 -5.802 -135.323 -7.79 C -129.747 -3.803 -123.782 -.274 -117.413 2.773 C -107.481 5.915 -97.55 9.056 -87.619 12.197 C -85.345 12.683 -83.08 13.073 -80.822 13.388 C -74.893 13.621 -68.962 13.853 -63.032 14.086 C -55.829 13.634 -48.71 12.29 -41.678 10.03 C -27.433 7.998 -14.396 2.714 -2.563 -5.809 C -1.447 -6.271 -.419 -6.882 .521 -7.647 C .775 -7.79 1.033 -7.928 1.295 -8.06 C 1.436 -8.109 1.574 -8.164 1.715 -8.211 C 3.993 -8.982 5.97 -10.051 7.692 -11.444 C 8.691 -9.903 9.719 -8.381 10.8 -6.897 C 10.553 -6.765 13.494 5.232 13.251 5.092 C 2.384 -1.19 0 0 0 0 "/>
<path transform="matrix(1,0,0,-1,429.8327,431.33934)" d="M 0 0 C .532 0 1.641 .215 1.929 .732 C 2.233 1.28 1.667 1.36 1.203 1.36 C .671 1.36 -.437 1.146 -.726 .628 C -1.03 .081 -.464 0 0 0 "/>
<path transform="matrix(1,0,0,-1,403.9694,327.86665)" d="M 0 0 C 6.466 6.457 14.423 11.387 23.164 14.095 C 23.459 14.186 24.609 14.498 24.479 14.987 C 24.354 15.453 23.14 15.178 22.895 15.102 C 13.283 12.125 4.491 6.958 -2.639 -.162 C -3.111 -.635 -2.223 -.721 -1.934 -.712 C -1.305 -.691 -.462 -.461 0 0 "/>
<path transform="matrix(1,0,0,-1,415.6013,339.8144)" d="M 0 0 C 5.633 5.878 12.84 10.086 20.719 12.125 C 21.296 12.275 22.084 12.824 21.897 13.521 C 21.709 14.225 20.747 14.286 20.18 14.139 C 11.566 11.908 3.723 7.296 -2.431 .874 C -2.915 .368 -2.638 -.311 -2.049 -.549 C -1.354 -.832 -.492 -.514 0 0 "/>
<path transform="matrix(1,0,0,-1,381.0095,310.15284)" d="M 0 0 C 3.539 3.298 7.079 6.597 10.618 9.896 C 13.738 12.803 16.807 16.047 20.761 17.811 C 21.238 18.023 21.891 18.589 21.488 19.146 C 21.091 19.695 20.042 19.495 19.544 19.272 C 15.39 17.42 12.14 14.202 8.857 11.144 C 5.112 7.654 1.368 4.164 -2.377 .675 C -2.864 .221 -2.618 -.358 -2.049 -.549 C -1.367 -.777 -.503 -.469 0 0 "/>
<path transform="matrix(1,0,0,-1,431.4841,502.057)" d="M 0 0 C -.354 5.184 -4.772 9.416 -8.19 12.928 C -12.058 16.902 -16.313 20.479 -20.872 23.635 C -21.526 24.087 -23.979 22.917 -23.605 22.658 C -19.161 19.582 -15.004 16.106 -11.214 12.249 C -7.743 8.717 -3.257 4.471 -2.897 -.776 C -2.864 -1.262 .053 -.77 0 0 "/>
<path transform="matrix(1,0,0,-1,236.4431,278.24653)" d="M 0 0 C -.008 -9.534 1.489 -19.01 4.481 -28.063 C 4.941 -29.453 7.834 -28.662 7.38 -27.287 C 4.448 -18.419 2.937 -9.152 2.943 .189 C 2.945 1.765 .001 1.384 0 0 "/>
<path transform="matrix(1,0,0,-1,220.4518,286.19874)" d="M 0 0 C 1.933 -8.88 4.96 -17.479 9.017 -25.611 C 9.354 -26.288 12.129 -25.265 11.914 -24.834 C 7.858 -16.702 4.831 -8.104 2.897 .776 C 2.772 1.354 -.143 .655 0 0 "/>
<path transform="matrix(1,0,0,-1,211.0368,297.7309)" d="M 0 0 C 1.083 -8.292 4.447 -16.177 9.65 -22.721 C 10.367 -23.623 13.148 -22.554 12.322 -21.514 C 7.206 -15.08 3.962 -7.373 2.897 .777 C 2.747 1.931 -.163 1.244 0 0 "/>
<path transform="matrix(1,0,0,-1,196.9089,305.28175)" d="M 0 0 C .885 -9.383 5.262 -18.263 12.146 -24.7 C 12.896 -25.402 15.626 -24.299 14.835 -23.559 C 8.028 -17.195 3.772 -8.499 2.897 .776 C 2.806 1.743 -.105 1.116 0 0 "/>
<path transform="matrix(1,0,0,-1,184.1891,315.83003)" d="M 0 0 C 1.234 -9.856 7.133 -18.756 15.63 -23.863 C 16.433 -24.346 19.106 -23.169 17.937 -22.466 C 9.688 -17.508 4.092 -8.754 2.897 .776 C 2.777 1.732 -.136 1.084 0 0 "/>
<path transform="matrix(1,0,0,-1,175.0261,330.4579)" d="M 0 0 C 2.108 -5.015 5.717 -9.129 9.809 -12.641 C 11.89 -14.427 14.088 -16.072 16.315 -17.67 C 17.383 -18.436 18.446 -19.323 19.617 -19.926 C 20.964 -20.62 22.402 -20.464 23.71 -19.764 C 24.162 -19.521 24.509 -19.055 23.986 -18.716 C 23.454 -18.37 22.422 -18.751 21.94 -19.009 C 22.63 -18.639 22.312 -18.803 21.78 -18.502 C 21.543 -18.367 21.322 -18.202 21.099 -18.047 C 20.586 -17.691 20.078 -17.327 19.57 -16.965 C 18.594 -16.27 17.623 -15.567 16.663 -14.848 C 14.791 -13.447 12.96 -11.986 11.231 -10.41 C 7.758 -7.243 4.733 -3.587 2.898 .776 C 2.503 1.715 -.347 .824 0 0 "/>
<path transform="matrix(1,0,0,-1,252.0134,269.49415)" d="M 0 0 C -2.386 -10.75 -1.945 -22.013 1.286 -32.54 C 1.601 -33.565 4.492 -32.768 4.184 -31.764 C .987 -21.35 .539 -10.279 2.899 .356 C 3.143 1.451 .223 1.005 0 0 "/>
<path transform="matrix(1,0,0,-1,342.8835,452.4975)" d="M 0 0 C 0 0 -4.847 .439 -6.3 -2.415 C -6.3 -2.415 -13.812 -1.537 -15.508 -4.391 C -15.508 -4.391 -25.199 -1.537 -30.046 -6.146 C -30.046 -6.146 -37.072 -.22 -46.522 -4.83 C -46.522 -4.83 -51.126 .244 -57.426 -3.062 C -57.426 -3.062 -59.364 1.366 -66.148 .024 C -66.148 .024 -68.329 2.635 -73.418 1.537 L -71.237 3.732 L -59.849 3.732 L -57.668 1.537 L -45.311 .878 L -30.772 .658 C -30.772 .658 -25.199 -1.537 -20.111 1.317 C -20.111 1.317 -8.48 -.878 -3.635 3.732 L 0 3.732 Z "/>
<path transform="matrix(1,0,0,-1,329.4577,374.4486)" d="M 0 0 L 0 2.171 C 0 2.171 -8.202 17.611 0 25.331 L -1.822 31.362 L -1.822 26.548 C -1.822 26.548 -11.539 15.838 0 0 "/>
<path transform="matrix(1,0,0,-1,310.3786,308.852)" d="M 0 0 L -20.195 0 L -26.816 11.377 C -26.816 11.377 -2.438 16.253 11.784 11.377 Z "/>
<path transform="matrix(1,0,0,-1,274.6227,300.31935)" d="M 0 0 L 0 -12.596 L -12.596 -19.91 L -21.941 -19.91 L -30.068 -12.189 C -30.068 -12.189 -13.409 -1.625 0 0 "/>
<path transform="matrix(1,0,0,-1,238.8659,316.5722)" d="M 0 0 L -4.062 -26.514 L -16.253 -13.257 C -16.253 -13.257 -11.173 -7.225 0 0 "/>
<path transform="matrix(1,0,0,-1,214.9245,334.73243)" d="M 0 0 L 12.971 -43.601 L -14.439 -27.348 C -14.439 -27.348 -15.847 -11.783 0 0 "/>
<path transform="matrix(1,0,0,-1,207.1735,372.23823)" d="M 0 0 L 35.756 -23.973 L 31.692 -43.925 Z "/>
<path transform="matrix(1,0,0,-1,194.2341,371.23823)" d="M 0 0 L 30.817 -37.569 L -5.282 -24.786 C -5.282 -24.786 -7.721 -17.065 0 0 "/>
<path transform="matrix(1,0,0,-1,203.9225,406.77583)" d="M 0 0 C 0 0 37.382 -17.065 60.136 -40.226 L 53.635 -44.289 C 53.635 -44.289 46.32 -38.194 34.943 -34.131 Z "/>
<path transform="matrix(1,0,0,-1,186.9206,406.77583)" d="M 0 0 L 30.004 -24.785 L 0 -15.034 C 0 -15.034 -2.032 -9.751 0 0 "/>
<path transform="matrix(1,0,0,-1,199.8591,431.5609)" d="M 0 0 C 0 0 13.815 -.583 34.131 -12.075 L 55.666 -25.599 L 66.637 -36.569 L 64.199 -40.633 L 48.353 -40.633 L 39.007 -35.757 Z "/>
<path transform="matrix(1,0,0,-1,190.5866,431.5609)" d="M 0 0 L 37.309 -31.693 L 5.241 -24.38 C 5.241 -24.38 -2.742 -8.099 0 0 "/>
<path transform="matrix(1,0,0,-1,206.4714,463.2543)" d="M 0 0 L 50.835 -43.477 C 50.835 -43.477 10.112 -37.382 0 0 "/>
<path transform="matrix(1,0,0,-1,262.4333,480.3197)" d="M 0 0 L 0 -20.316 L -47.744 15.44 Z "/>
<path transform="matrix(1,0,0,-1,329.4577,297.8813)" d="M 0 0 L 6.113 -16.659 L 18.709 -25.192 L 38.619 -15.034 C 38.619 -15.034 25.987 -4.469 0 0 "/>
<path transform="matrix(1,0,0,-1,372.5466,316.5722)" d="M 0 0 L 0 -20.316 L 20.316 -15.44 C 20.316 -15.44 15.44 -4.063 0 0 "/>
<path transform="matrix(1,0,0,-1,396.7067,335.88813)" d="M 0 0 L -14.002 -15.627 L -11.564 -36.35 L 18.378 -26.991 C 18.378 -26.991 13.408 -10.158 0 0 "/>
<path transform="matrix(1,0,0,-1,402.2077,374.4486)" d="M 0 0 L -24.379 -32.327 L -17.065 -10.386 Z "/>
<path transform="matrix(1,0,0,-1,416.4118,364.7265)" d="M 0 0 L -36.146 -47.332 L 7.706 -31.891 C 7.706 -31.891 10.971 -13.409 0 0 "/>
<path transform="matrix(1,0,0,-1,411.1472,406.77583)" d="M 0 0 L -28.442 -28.442 L -57.698 -44.289 L -59.729 -40.632 L -23.16 -12.393 L -13.206 -5.282 Z "/>
<path transform="matrix(1,0,0,-1,426.2663,423.435)" d="M 0 0 L 0 18.691 L -32.403 -8.126 Z "/>
<path transform="matrix(1,0,0,-1,415.1472,431.5609)" d="M 0 0 L -42.601 -35.757 L -66.38 -42.258 L -56.822 -22.656 L -39.351 -12.075 Z "/>
<path transform="matrix(1,0,0,-1,425.2731,431.5609)" d="M 0 0 L -6.095 -24.38 L -42.568 -33.318 Z "/>
<path transform="matrix(1,0,0,-1,392.863,468.1303)" d="M 0 0 L -48.353 -35.757 L -48.353 -12.189 Z "/>
<path transform="matrix(1,0,0,-1,405.4587,468.1303)" d="M 0 0 L -56.691 -42.258 C -56.691 -42.258 -13.815 -36.569 0 0 "/>
<path transform="matrix(1,0,0,-1,0,858.898)" d="M 310.379 355.011 L 298.737 355.011 L 298.737 369.63899 L 310.379 369.63899 Z "/>
<path transform="matrix(1,0,0,-1,314.0358,484.9926)" d="M 0 0 L 20.316 11.174 L 24.786 -1.016 L 24.786 -18.895 L 18.691 -38.804 L 8.127 -33.521 L 0 -25.396 Z "/>
<path transform="matrix(1,0,0,-1,295.3454,484.9926)" d="M 0 0 C 0 0 -6.502 6.704 -20.723 12.799 L -25.88 3.86 L -25.88 -18.895 L -22.754 -34.74 L -11.783 -31.084 L 0 -22.957 Z "/>
<path transform="matrix(1,0,0,-1,342.8835,437.52873)" d="M 0 0 L 0 -6.107 L 2.375 -6.107 C 2.375 -6.107 2.569 -1.103 8.534 2.645 C 8.534 2.645 20.23 8.376 22.214 11.683 C 22.214 11.683 26.843 18.295 22.214 27.112 C 22.214 27.112 14.058 45.408 17.145 57.311 C 17.145 57.311 23.978 68.553 23.316 74.284 L 21.332 81.999 L 22.919 82.966 C 22.919 82.966 30.834 72.586 23.403 58.532 C 23.403 58.532 18.225 44.31 26.585 37.532 C 26.585 37.532 42.466 50.536 33.742 81.794 C 33.742 81.794 22.596 102.875 12.903 107.721 L 3.857 107.721 C 3.857 107.721 -16.013 122.098 -17.951 122.098 C -17.951 122.098 -40.89 124.198 -56.397 122.098 C -56.397 122.098 -80.411 118.735 -99.954 96.898 C -99.954 96.898 -108.494 83.813 -109.787 75.251 C -109.787 75.251 -112.556 56.836 -98.329 44.882 L -98.329 53.443 C -98.329 53.443 -106.233 61.682 -103.002 77.028 L -101.063 76.059 C -101.063 76.059 -100.902 63.621 -95.248 60.875 C -95.248 60.875 -93.149 65.074 -83.295 68.144 C -83.295 68.144 -80.387 75.251 -77.802 76.867 L -76.794 75.82 C -76.794 75.82 -80.36 68.688 -79.868 66.352 C -79.868 66.352 -93.395 62.786 -93.64 54.671 C -93.64 54.671 -86.385 46.924 -91.304 41.759 C -91.304 41.759 -100.914 28.549 -97.34 14.25 C -97.34 14.25 -95.552 7.292 -86.168 5.968 C -86.168 5.968 -74.104 -.994 -74.327 -6.107 L -72.036 -3.518 C -72.036 -3.518 -76.707 6.642 -85.115 10.729 C -85.115 10.729 -92.589 13.532 -91.888 23.808 C -91.888 23.808 -91.771 37.12 -87.45 40.273 C -87.45 40.273 -83.48 47.98 -88.268 54.169 C -88.268 54.169 -88.969 60.708 -74.956 63.745 C -74.956 63.745 -74.488 75.147 -72.27 78.496 L -75.656 82.195 C -75.656 82.195 -83.48 78.691 -86.867 70.984 C -86.867 70.984 -91.824 69.553 -94.69 66.197 C -94.69 66.197 -99.829 71.761 -99.595 78.496 C -99.595 78.496 -94.924 98.639 -72.854 107.7 C -72.854 107.7 -42.492 124.584 -17.736 110.921 C -17.736 110.921 .363 102.046 8.421 96.091 L 14.493 91.653 C 14.493 91.653 17.062 90.836 16.361 85.581 C 16.361 85.581 16.011 78.809 18.113 76.473 C 18.113 76.473 19.981 74.604 17.996 71.802 L 12.625 63.08 L 13.325 47.98 C 13.325 47.98 15.428 30.753 19.748 22.64 C 19.748 22.64 19.688 21.366 18.58 19.02 C 16.967 15.605 14.583 11.107 0 0 "/>
<path transform="matrix(1,0,0,-1,340.2907,464.53163)" d="M 0 0 C 0 0 4.287 .2 4.736 2.109 C 4.736 2.109 3.501 5.59 1.48 7.161 C 1.48 7.161 -.702 7.61 -1.126 6.375 L -1.126 0 Z "/>
<path transform="matrix(1,0,0,-1,330.3571,468.1303)" d="M 0 0 C 0 0 4.988 -.837 5.939 1.993 L 2.97 7.219 C 2.97 7.219 .492 8.516 0 6.301 C -.492 4.086 0 0 0 0 "/>
<path transform="matrix(1,0,0,-1,323.5886,469.5824)" d="M 0 0 C 0 0 -3.262 -.49 -6.522 0 L -6.522 4.703 L -4.953 7.015 C -4.953 7.015 -3.323 8.491 -1.846 6.153 L -.369 3.814 Z "/>
<path transform="matrix(1,0,0,-1,308.6979,469.5824)" d="M 0 0 C 0 0 -4.185 -1.601 -7.262 0 L -7.262 5.192 L -6.276 7.475 C -6.276 7.475 -4.308 10.149 -1.847 7.475 L -.739 4.703 Z "/>
<path transform="matrix(1,0,0,-1,287.53,465.6059)" d="M 0 0 C 0 0 2.585 -3.902 6.522 -2.524 L 7.281 2.546 L 6.153 5.072 C 6.153 5.072 3.569 7.459 1.724 4.694 Z "/>
<path transform="matrix(1,0,0,-1,276.5778,462.8139)" d="M 0 0 C 0 0 1.723 -2.954 5.045 -.492 L 5.827 3.237 C 5.827 3.237 4.403 8.245 .971 4.676 Z "/>
<path transform="matrix(1,0,0,-1,272.6393,456.85493)" d="M 0 0 L 0 -6.574 L -4.923 -5.836 L -4.308 -1.898 L -1.846 .563 C -1.846 .563 0 1.899 0 0 "/>
<path transform="matrix(1,0,0,-1,311.4968,440.9086)" d="M 0 0 C -3.367 .905 -7.998 .905 -11.323 -.687 C -16.65 -3.239 -20.785 2.878 -18.946 8.433 C -17.262 13.522 -14.788 18.593 -11.601 22.883 C -7.673 28.169 -2.101 27.573 1.498 22.014 C 3.922 18.27 6.17 14.32 7.833 10.195 C 10.377 3.889 7.546 -2.879 0 0 "/>
<path transform="matrix(1,0,0,-1,354.0944,404.1942)" d="M 0 0 C -.008 -7.021 -3.833 -13.687 -9.537 -15.636 C -15.972 -17.835 -21.86 -16.175 -26.328 -11.202 C -29.272 -7.925 -31.861 -4.137 -33.778 -.176 C -36.3 5.033 -34.293 9.47 -28.855 11.348 C -24.8 12.749 -20.551 13.761 -16.307 14.411 C -6.609 15.897 .011 9.911 0 0 "/>
<path transform="matrix(1,0,0,-1,275.5446,388.768)" d="M 0 0 C 4.872 -1.518 9.879 -2.708 14.579 -4.644 C 19.408 -6.633 21.156 -11.151 18.534 -15.705 C 15.925 -20.237 12.698 -24.614 8.95 -28.242 C 4.14 -32.897 -2.728 -32.806 -8.033 -29.035 C -13.753 -24.971 -16.053 -17.376 -13.692 -10.342 C -11.523 -3.877 -6.979 -.639 0 0 "/>
<path transform="matrix(1,0,0,-1,157.1989,264.8344)" d="M 0 0 C .031 -.037 .128 -.159 .284 -.365 C .442 -.57 .618 -.81 .814 -1.081 C 1.009 -1.354 1.124 -1.508 1.155 -1.545 C 1.196 -1.543 1.226 -1.532 1.252 -1.51 C 1.299 -1.469 1.357 -1.388 1.419 -1.267 C 1.481 -1.146 1.517 -1.003 1.519 -.836 C 1.521 -.669 1.483 -.467 1.403 -.227 C 1.321 .013 1.169 .263 .942 .525 C .661 .852 .378 1.179 .097 1.505 C .062 1.003 .03 .501 0 0 M -4.804 -9.383 C -6.14 -10.654 -7.465 -11.946 -8.777 -13.257 C -8.881 -13.221 -8.985 -13.186 -9.089 -13.15 C -9.316 -12.923 -9.542 -12.696 -9.77 -12.47 C -10.379 -11.859 -10.92 -11.309 -11.387 -10.817 C -11.857 -10.326 -12.397 -9.727 -13.013 -9.016 C -13.056 -8.743 -12.991 -8.481 -12.825 -8.228 C -12.657 -7.975 -12.491 -7.768 -12.329 -7.607 C -11.861 -7.146 -11.391 -6.686 -10.92 -6.229 C -10.685 -6.001 -10.433 -5.802 -10.167 -5.63 C -9.899 -5.459 -9.601 -5.284 -9.272 -5.106 C -9.034 -5.356 -8.829 -5.527 -8.653 -5.615 C -8.479 -5.704 -8.31 -5.775 -8.149 -5.825 C -7.991 -5.877 -7.821 -5.923 -7.65 -5.963 C -7.479 -6.003 -7.273 -6.101 -7.041 -6.252 C -6.723 -6.494 -6.405 -6.737 -6.087 -6.98 C -5.747 -7.201 -5.37 -7.379 -4.955 -7.514 C -4.541 -7.65 -4.131 -7.797 -3.723 -7.955 C -3.313 -8.113 -2.915 -8.297 -2.524 -8.506 C -2.133 -8.716 -1.791 -8.983 -1.485 -9.309 C -1.302 -9.508 -1.196 -9.757 -1.175 -10.056 C -1.153 -10.357 -1.05 -10.605 -.864 -10.804 C -.746 -10.93 -.628 -11.056 -.511 -11.182 C -.356 -11.344 -.195 -11.496 -.021 -11.637 C .153 -11.778 .319 -11.774 .478 -11.626 C .522 -11.583 .55 -11.542 .556 -11.504 C .567 -11.29 .454 -11.018 .21 -10.688 C -.034 -10.357 -.294 -10.039 -.581 -9.73 C -.815 -9.478 -1.045 -9.253 -1.27 -9.057 C -1.493 -8.862 -1.657 -8.709 -1.757 -8.601 C -2.168 -8.158 -2.579 -7.715 -2.99 -7.272 C -3.161 -7.229 -3.298 -7.162 -3.401 -7.073 C -3.505 -6.986 -3.631 -6.908 -3.778 -6.843 C -3.905 -6.708 -4.03 -6.572 -4.157 -6.437 C -5.013 -5.633 -5.869 -4.83 -6.728 -4.028 C -6.946 -3.793 -7.165 -3.559 -7.384 -3.324 C -7.402 -3.208 -7.376 -3.072 -7.298 -2.916 C -7.22 -2.76 -7.144 -2.647 -7.073 -2.581 C -4.284 .005 -1.446 2.51 1.437 4.933 C 1.634 4.874 1.831 4.814 2.028 4.754 L 5.351 .78 C 5.429 .49 5.507 .202 5.585 -.087 C 4.274 -1.189 2.974 -2.309 1.683 -3.445 C 1.641 -3.565 1.598 -3.684 1.556 -3.804 C 1.925 -4.268 2.233 -4.668 2.489 -5.003 C 2.744 -5.338 3.014 -5.679 3.293 -6.021 C 3.576 -6.364 3.813 -6.647 4.011 -6.869 C 5.791 -8.884 7.605 -11 9.461 -13.212 C 11.315 -15.424 13.082 -17.584 14.758 -19.691 C 14.855 -19.802 14.923 -19.941 14.956 -20.109 C 14.989 -20.276 14.957 -20.408 14.849 -20.502 C 13.26 -21.92 11.688 -23.368 10.134 -24.844 C 10.026 -24.878 9.919 -24.911 9.813 -24.945 C 9.073 -24.168 8.333 -23.391 7.593 -22.613 C 3.458 -18.206 -.674 -13.795 -4.804 -9.383 "/>
<path transform="matrix(1,0,0,-1,172.0974,264.29243)" d="M 0 0 C -1.924 2.486 -3.854 5.09 -5.778 7.813 C -5.978 8.095 -6.178 8.377 -6.377 8.659 C -6.438 8.894 -6.37 9.119 -6.173 9.335 C -5.979 9.55 -5.802 9.717 -5.649 9.835 C -5.473 9.971 -5.257 9.981 -5.007 9.863 C -4.698 9.462 -4.392 9.061 -4.083 8.66 C -3.881 8.317 -3.678 7.975 -3.476 7.633 C -3.348 7.545 -3.22 7.457 -3.092 7.368 C -2.697 7.111 -2.265 6.937 -1.801 6.842 C -1.335 6.747 -.96 6.513 -.678 6.141 C -.305 5.572 .069 5.003 .442 4.435 C .488 4.376 .589 4.257 .739 4.08 C .895 3.903 1.062 3.721 1.243 3.533 C 1.423 3.345 1.588 3.182 1.729 3.043 C 1.874 2.904 1.966 2.834 2.005 2.833 C 1.946 2.605 2.032 2.343 2.257 2.048 C 2.309 1.98 2.36 1.911 2.413 1.842 C 2.607 1.586 2.792 1.355 2.968 1.148 C 3.144 .941 3.362 .718 3.618 .481 C 3.729 .38 3.836 .368 3.931 .44 C 4.005 .542 4.079 .645 4.153 .747 C 2.639 2.927 1.128 5.11 -.38 7.294 C -.553 7.473 -.726 7.652 -.898 7.83 C -1.45 8.511 -2.003 9.191 -2.556 9.871 C -2.762 10.147 -2.937 10.48 -3.072 10.872 C -3.208 11.264 -3.109 11.585 -2.778 11.834 C -2.076 12.359 -1.372 12.88 -.666 13.397 C -.517 13.354 -.366 13.311 -.218 13.267 L 5.683 5.157 C 5.851 5.187 6.096 5.298 6.427 5.492 C 6.754 5.684 7.029 5.859 7.251 6.018 C 7.362 6.098 7.473 6.177 7.584 6.256 C 7.681 6.327 7.751 6.331 7.796 6.271 C 7.839 6.21 7.886 6.092 7.937 5.917 C 7.988 5.741 8.021 5.643 8.035 5.623 C 8.128 5.492 8.222 5.362 8.314 5.231 C 8.602 4.829 8.878 4.467 9.146 4.143 C 9.413 3.818 9.712 3.424 10.039 2.962 C 10.276 3.116 10.514 3.27 10.751 3.423 C 10.872 3.508 10.917 3.653 10.884 3.856 C 10.851 4.059 10.78 4.273 10.675 4.501 C 10.57 4.729 10.465 4.933 10.355 5.113 C 10.247 5.293 10.179 5.404 10.15 5.444 C 10.118 5.542 10.126 5.727 10.172 6.002 C 10.22 6.275 10.275 6.562 10.341 6.864 C 10.407 7.165 10.515 7.549 10.67 8.016 C 10.694 8.167 10.718 8.319 10.743 8.471 C 11.153 8.753 11.565 9.035 11.978 9.314 C 11.39 10.183 10.802 11.051 10.215 11.919 C 9.635 12.777 9.123 13.519 8.682 14.144 C 8.24 14.768 7.924 15.224 7.729 15.51 C 7.715 15.53 7.637 15.671 7.499 15.935 C 7.357 16.196 7.194 16.481 7.007 16.786 C 6.82 17.091 6.651 17.38 6.507 17.654 C 6.358 17.927 6.274 18.084 6.245 18.126 C 6.231 18.146 6.277 18.22 6.379 18.35 C 6.484 18.479 6.614 18.626 6.771 18.792 C 6.926 18.955 7.069 19.096 7.2 19.214 C 7.331 19.331 7.423 19.406 7.476 19.442 C 7.782 19.496 7.946 19.532 7.974 19.55 C 7.998 19.567 8.028 19.609 8.062 19.675 C 8.094 19.74 8.096 19.794 8.069 19.836 C 8.096 19.853 8.122 19.871 8.147 19.888 C 8.229 19.881 8.308 19.889 8.388 19.913 C 8.466 19.935 8.513 19.936 8.526 19.916 C 9.008 19.642 9.497 19.342 9.99 19.017 C 10.485 18.691 10.884 18.29 11.194 17.814 C 11.657 17.615 12.12 17.416 12.581 17.214 C 12.556 17.255 12.621 17.374 12.792 17.571 C 12.963 17.768 13.052 17.913 13.063 18.009 C 12.957 18.175 12.851 18.342 12.744 18.508 C 12.272 19.158 11.801 19.808 11.328 20.458 C 11.181 20.686 11.078 20.935 11.019 21.204 C 10.958 21.474 11.075 21.702 11.367 21.888 C 11.7 22.1 12.032 22.311 12.366 22.521 C 12.741 22.043 13.116 21.564 13.489 21.086 C 13.501 21.065 13.7 20.765 14.08 20.189 C 14.46 19.612 14.946 18.854 15.535 17.913 C 16.539 16.314 17.541 14.715 18.545 13.116 C 18.78 12.74 18.972 12.451 19.114 12.25 C 19.256 12.049 19.442 11.771 19.664 11.416 C 20.412 10.225 21.088 9.156 21.698 8.214 C 22.306 7.27 22.853 6.411 23.337 5.638 C 24.496 3.788 25.656 1.938 26.815 .088 C 26.899 -.151 26.983 -.39 27.068 -.628 C 25.105 -1.863 23.16 -3.134 21.231 -4.442 C 21.204 -4.401 21.177 -4.36 21.148 -4.32 C 21.121 -4.279 21.014 -4.129 20.82 -3.872 C 20.627 -3.614 20.388 -3.28 20.09 -2.869 C 19.796 -2.458 19.558 -2.12 19.377 -1.854 C 19.267 -1.691 19.156 -1.527 19.046 -1.364 C 18.979 -1.215 18.912 -1.066 18.847 -.917 C 17.698 .778 16.552 2.474 15.403 4.17 C 15.1 3.964 14.796 3.757 14.493 3.549 C 14.24 3.346 13.87 3.069 13.384 2.715 C 12.896 2.361 12.412 2.015 11.932 1.674 C 11.451 1.334 10.884 .914 10.23 .411 C 9.905 .358 9.579 .305 9.253 .25 C 10.168 -1.007 11.082 -2.264 11.997 -3.521 C 12.374 -4.039 12.751 -4.558 13.129 -5.076 C 13.681 -5.835 14.153 -6.52 14.548 -7.133 C 14.942 -7.747 15.125 -8.154 15.099 -8.357 C 15.085 -8.505 15.071 -8.653 15.058 -8.8 C 13.36 -10.047 11.679 -11.322 10.012 -12.628 C 9.91 -12.567 9.808 -12.505 9.706 -12.444 L 5.944 -7.635 C 3.908 -5.032 1.925 -2.487 0 0 "/>
<path transform="matrix(1,0,0,-1,191.2087,237.89594)" d="M 0 0 C .053 .159 .105 .318 .158 .477 C .578 .722 .999 .964 1.421 1.206 C 1.492 1.078 1.69 .813 2.01 .413 C 2.327 .012 2.673 -.402 3.041 -.83 C 3.412 -1.259 3.901 -1.795 4.516 -2.44 L 4.753 -2.859 C 5.154 -3.567 5.578 -4.206 6.023 -4.776 C 6.466 -5.347 6.874 -5.954 7.236 -6.598 C 7.442 -6.963 7.583 -7.323 7.664 -7.674 C 7.741 -8.027 7.887 -8.386 8.093 -8.75 C 8.13 -8.815 8.166 -8.879 8.202 -8.943 C 8.348 -9.201 8.498 -9.286 8.654 -9.198 L 8.692 -9.176 C 8.795 -9.118 8.818 -9.035 8.757 -8.928 C 8.514 -8.286 8.271 -7.643 8.029 -7 C 8.067 -7.008 8.128 -6.989 8.205 -6.944 C 8.179 -6.96 8.304 -6.817 8.583 -6.52 C 8.499 -6.369 8.415 -6.219 8.331 -6.068 C 8.055 -5.572 7.698 -5.178 7.259 -4.886 C 6.818 -4.597 6.446 -4.183 6.144 -3.645 C 5.76 -2.248 5.382 -.847 5.01 .555 C 4.567 1.127 4.124 1.7 3.679 2.271 C 3.649 2.325 3.618 2.378 3.589 2.433 C 4.248 2.857 4.91 3.279 5.573 3.697 C 8.459 5.27 11.37 6.777 14.307 8.218 C 14.384 8.201 14.462 8.184 14.539 8.167 C 14.55 8.145 14.608 8.063 14.712 7.922 C 14.815 7.78 14.938 7.6 15.079 7.38 C 15.22 7.162 15.325 6.985 15.389 6.853 C 15.968 5.528 16.547 4.205 17.127 2.882 C 17.122 2.756 17.116 2.629 17.11 2.503 C 14.84 1.389 12.585 .234 10.345 -.962 C 10.212 -1.033 10.069 -1.138 9.917 -1.275 C 9.767 -1.412 9.749 -1.589 9.867 -1.806 C 10.369 -2.741 10.872 -3.675 11.375 -4.609 C 11.446 -4.739 11.546 -4.784 11.675 -4.742 C 11.806 -4.7 11.936 -4.644 12.067 -4.573 C 12.466 -4.362 12.689 -4.312 12.748 -4.42 C 13.222 -5.314 13.696 -6.208 14.17 -7.102 C 14.238 -7.232 14.368 -7.381 14.555 -7.547 C 14.742 -7.713 14.913 -7.783 15.065 -7.758 C 15.148 -7.603 15.126 -7.308 14.997 -6.874 C 14.869 -6.439 14.727 -5.978 14.569 -5.489 C 14.413 -5 14.276 -4.563 14.159 -4.178 C 14.044 -3.795 14.024 -3.581 14.104 -3.54 C 15.506 -2.809 16.914 -2.094 18.327 -1.395 C 18.487 -1.316 18.596 -1.332 18.648 -1.442 C 18.682 -1.509 18.674 -1.595 18.627 -1.701 C 19.456 -3.382 20.286 -5.064 21.116 -6.746 C 21.126 -6.864 21.138 -6.983 21.147 -7.102 C 19.101 -8.113 17.066 -9.16 15.047 -10.241 C 14.921 -10.309 14.843 -10.365 14.815 -10.407 C 14.788 -10.45 14.751 -10.581 14.707 -10.801 C 15.106 -11.637 15.507 -12.472 15.908 -13.307 C 15.945 -13.372 16.035 -13.512 16.183 -13.726 C 16.33 -13.941 16.43 -14.064 16.479 -14.093 C 16.538 -14.202 16.63 -14.223 16.754 -14.155 C 16.917 -14.096 17.239 -13.95 17.729 -13.718 C 18.216 -13.488 18.733 -13.236 19.282 -12.965 C 19.827 -12.696 20.343 -12.444 20.829 -12.21 C 21.315 -11.978 21.646 -11.816 21.823 -11.727 C 22.38 -11.447 22.937 -11.17 23.496 -10.896 C 23.619 -10.89 23.742 -10.884 23.866 -10.879 C 24.68 -12.541 25.493 -14.203 26.308 -15.865 C 26.339 -15.931 26.373 -16.046 26.406 -16.208 C 26.44 -16.37 26.428 -16.548 26.37 -16.741 C 23.763 -18.023 21.178 -19.365 18.615 -20.766 C 18.53 -20.755 18.446 -20.746 18.362 -20.735 C 16.875 -21.55 15.396 -22.385 13.926 -23.24 C 13.774 -23.2 13.623 -23.159 13.472 -23.119 C 8.981 -15.413 4.491 -7.707 0 0 "/>
<path transform="matrix(1,0,0,-1,237.5397,245.25293)" d="M 0 0 C -.746 2.052 -1.492 4.104 -2.239 6.156 C -2.56 7.037 -2.924 8.059 -3.332 9.224 C -3.742 10.388 -4.184 11.631 -4.665 12.953 C -5.146 14.275 -5.603 15.572 -6.033 16.846 C -6.462 18.12 -6.87 19.279 -7.248 20.322 C -7.627 21.366 -7.927 22.215 -8.147 22.87 C -8.369 23.524 -8.484 23.863 -8.493 23.887 C -8.624 24.43 -8.756 24.973 -8.887 25.516 C -8.828 25.537 -8.771 25.558 -8.712 25.579 C -8.393 25.693 -8.151 25.635 -7.986 25.406 C -7.822 25.176 -7.696 24.933 -7.604 24.678 C -7.398 23.965 -7.192 23.253 -6.985 22.541 C -6.904 22.36 -6.824 22.179 -6.743 21.999 C -6.654 21.926 -6.464 21.849 -6.178 21.768 C -5.895 21.685 -5.74 21.621 -5.725 21.575 C -5.556 20.915 -5.386 20.255 -5.217 19.596 L -5.018 19.038 C -4.945 19.011 -4.873 18.984 -4.799 18.958 C -4.536 18.214 -4.273 17.469 -4.01 16.725 C -3.892 16.924 -3.857 17.164 -3.912 17.446 C -3.963 17.728 -3.99 17.961 -3.992 18.144 C -4.191 18.845 -4.391 19.546 -4.589 20.248 C -4.598 20.271 -4.594 20.337 -4.586 20.445 C -4.574 20.553 -4.555 20.672 -4.52 20.801 C -4.486 20.931 -4.463 21.049 -4.453 21.158 C -4.442 21.266 -4.445 21.343 -4.462 21.39 C -4.486 21.459 -4.511 21.53 -4.535 21.6 C -4.859 22.166 -5.186 22.731 -5.512 23.297 C -5.709 23.856 -5.788 24.449 -5.745 25.077 C -5.706 25.705 -5.662 26.287 -5.618 26.825 C -5.635 26.871 -5.535 26.957 -5.317 27.084 C -5.288 27.094 -5.259 27.104 -5.229 27.114 C -5.22 27.091 -5.184 27.072 -5.111 27.057 C -5.043 27.042 -4.992 27.039 -4.962 27.049 C -4.936 27.059 -4.818 27.15 -4.615 27.323 C -4.587 27.333 -4.397 27.273 -4.044 27.145 C -3.691 27.016 -3.31 26.87 -2.898 26.708 C -2.49 26.544 -2.127 26.392 -1.805 26.25 C -1.486 26.108 -1.32 26.024 -1.313 26.002 C -1.246 25.893 -1.139 25.708 -.987 25.446 C -.839 25.183 -.748 25.005 -.718 24.911 C -.609 24.583 -.452 24.044 -.24 23.296 C -.029 22.547 .23 21.704 .536 20.766 C 1.163 18.842 1.789 16.918 2.416 14.995 C 2.737 14.01 3.023 13.175 3.275 12.492 C 3.528 11.808 3.715 11.279 3.838 10.904 C 4.54 9.018 5.241 7.131 5.939 5.244 C 5.914 5.236 5.872 5.203 5.818 5.146 C 5.764 5.09 5.715 5.041 5.67 5.001 C 5.689 4.943 5.708 4.884 5.728 4.825 C 5.969 4.799 6.166 4.806 6.329 4.845 C 6.49 4.883 6.676 4.936 6.885 5.003 C 7.146 5.087 7.278 5.295 7.271 5.63 C 7.268 5.965 7.247 6.321 7.216 6.699 C 7.184 7.077 7.176 7.435 7.184 7.775 C 7.193 8.114 7.346 8.33 7.64 8.42 C 9.133 8.882 10.63 9.327 12.131 9.755 C 12.266 9.69 12.398 9.626 12.532 9.562 C 12.59 9.36 12.646 9.158 12.705 8.957 C 12.791 8.648 12.844 8.374 12.854 8.133 C 12.862 7.892 12.906 7.642 12.981 7.381 C 12.994 7.333 13.009 7.286 13.021 7.239 C 13.041 7.167 13.09 7.078 13.163 6.971 C 13.236 6.863 13.292 6.79 13.332 6.75 C 13.605 5.789 13.879 4.827 14.151 3.866 C 13.827 3.723 13.504 3.579 13.18 3.434 C 8.895 2.196 4.643 .815 .431 -.71 C .287 -.473 .144 -.237 0 0 "/>
<path transform="matrix(1,0,0,-1,266.5182,220.55023)" d="M 0 0 C -.049 -.06 -.09 -.149 -.126 -.269 C -.164 -.389 -.193 -.507 -.215 -.625 C -.237 -.742 -.255 -.846 -.267 -.936 C -.279 -1.026 -.287 -1.059 -.293 -1.034 C -.365 -1.425 -.442 -1.917 -.518 -2.509 C -.596 -3.102 -.65 -3.678 -.687 -4.238 C -.722 -4.798 -.775 -5.487 -.847 -6.306 L -.135 -9.899 C -.069 -10.238 -.061 -10.558 -.114 -10.857 C -.17 -11.157 -.154 -11.5 -.078 -11.887 C .275 -11.817 .503 -11.654 .606 -11.394 C .709 -11.135 .76 -10.836 .749 -10.499 C .741 -10.162 .709 -9.816 .654 -9.462 C .601 -9.109 .604 -8.8 .668 -8.536 C .74 -8.171 .921 -7.848 1.212 -7.566 C 1.506 -7.286 1.727 -6.956 1.888 -6.575 C 1.934 -6.516 1.975 -6.433 2.014 -6.326 C 2.051 -6.219 2.084 -6.162 2.111 -6.157 C 2.516 -6.083 2.92 -6.01 3.324 -5.938 C 3.301 -5.805 3.277 -5.672 3.253 -5.538 C 2.305 -3.777 1.342 -2.021 .362 -.271 C .202 -.051 .125 .048 .13 .024 C .115 .021 .102 .019 .087 .016 C .058 .011 .029 .005 0 0 M -9.031 -17.627 C -8.941 -17.084 -8.875 -16.628 -8.822 -16.26 C -8.77 -16.247 -8.717 -16.234 -8.664 -16.221 C -8.531 -16.188 -8.438 -16.197 -8.382 -16.247 C -8.326 -16.297 -8.208 -16.299 -8.021 -16.254 C -8.127 -15.823 -8.231 -15.392 -8.337 -14.96 C -8.348 -14.913 -8.399 -14.874 -8.492 -14.845 C -8.584 -14.817 -8.657 -14.81 -8.711 -14.823 C -8.745 -14.679 -8.684 -14.556 -8.524 -14.454 C -8.367 -14.352 -8.262 -14.282 -8.213 -14.245 C -8.317 -13.813 -8.422 -13.381 -8.527 -12.95 C -8.406 -12.87 -8.373 -12.698 -8.437 -12.433 C -8.455 -12.362 -8.471 -12.315 -8.492 -12.294 C -8.511 -12.274 -8.523 -12.252 -8.529 -12.228 C -8.331 -9.782 -8.107 -7.335 -7.857 -4.886 C -7.681 -4.769 -7.61 -4.614 -7.654 -4.422 C -7.697 -4.229 -7.717 -4.083 -7.712 -3.979 C -7.705 -3.877 -7.691 -3.678 -7.669 -3.382 C -7.648 -3.086 -7.619 -2.783 -7.586 -2.472 C -7.553 -2.161 -7.521 -1.863 -7.494 -1.579 C -7.469 -1.295 -7.451 -1.102 -7.445 -.999 C -7.417 -.993 -7.389 -.986 -7.359 -.98 C -7.16 -.936 -7.032 -.971 -6.977 -1.084 C -6.924 -1.199 -6.877 -1.328 -6.846 -1.473 C -6.677 -2.774 -6.506 -4.076 -6.333 -5.376 C -6.255 -5.662 -6.176 -5.948 -6.098 -6.234 C -6.057 -6.3 -5.986 -6.33 -5.901 -6.323 C -5.815 -6.317 -5.747 -6.308 -5.689 -6.295 C -5.608 -6.265 -5.527 -6.234 -5.446 -6.204 C -5.534 -5.604 -5.621 -5.005 -5.709 -4.405 C -5.754 -4.201 -5.799 -3.996 -5.844 -3.791 C -5.918 -3.454 -5.957 -3.077 -5.958 -2.661 C -5.959 -2.244 -5.874 -1.955 -5.702 -1.791 C -5.877 -.983 -6.052 -.176 -6.227 .632 C -6.164 .759 -6.101 .887 -6.037 1.014 C -5.89 .818 -5.742 .623 -5.596 .427 C -5.564 .433 -5.494 .366 -5.373 .228 C -5.253 .089 -5.189 .007 -5.186 -.016 C -5.221 -.137 -5.255 -.257 -5.289 -.378 C -5.225 -.68 -5.16 -.981 -5.096 -1.283 C -5.064 -1.428 -5.031 -1.559 -4.988 -1.676 C -4.949 -1.795 -4.858 -1.838 -4.716 -1.808 C -4.702 -1.805 -4.687 -1.802 -4.673 -1.799 C -4.617 -1.787 -4.576 -1.703 -4.548 -1.545 C -4.568 -1.449 -4.588 -1.352 -4.609 -1.256 C -4.639 -1.111 -4.67 -.966 -4.7 -.821 C -4.772 -.483 -4.789 -.122 -4.75 .265 C -4.994 1.423 -5.237 2.583 -5.48 3.741 C -5.728 4.042 -5.928 4.384 -6.087 4.767 C -6.245 5.15 -6.37 5.558 -6.463 5.993 C -6.564 6.475 -6.535 7.061 -6.37 7.751 C -6.205 8.441 -6.029 9.019 -5.845 9.486 C -5.794 9.546 -5.749 9.625 -5.707 9.721 C -5.664 9.818 -5.613 9.873 -5.553 9.885 C -4.428 10.115 -3.302 10.335 -2.174 10.548 C -2.162 10.487 -2.15 10.427 -2.14 10.366 C -1.842 10.422 -1.599 10.266 -1.423 9.897 C -1.244 9.529 -1.084 9.087 -.945 8.575 C -.805 8.062 -.67 7.547 -.544 7.031 C -.42 6.514 -.271 6.146 -.111 5.925 C .155 5.635 .42 5.345 .686 5.054 C .866 4.886 .992 4.62 1.056 4.256 C 1.087 3.999 1.118 3.741 1.149 3.483 C 1.22 3.095 1.313 2.823 1.432 2.669 C 1.437 2.645 1.493 2.644 1.612 2.665 C 1.757 2.69 1.838 2.785 1.854 2.951 C 1.867 3.116 1.858 3.296 1.825 3.491 L 1.729 4.038 C 1.581 4.863 1.346 5.567 1.013 6.146 C .683 6.727 .449 7.368 .322 8.072 C .3 8.193 .293 8.417 .294 8.744 C .296 9.07 .32 9.406 .368 9.753 C .414 10.1 .488 10.407 .599 10.677 C .703 10.946 .852 11.097 1.031 11.128 C 1.062 11.134 1.091 11.139 1.121 11.144 C 1.145 11.022 1.213 10.972 1.334 10.993 C 1.474 11.08 1.614 11.167 1.754 11.253 C 1.903 11.278 2.058 11.21 2.207 11.048 C 2.359 10.886 2.472 10.773 2.542 10.711 C 3.351 9.395 4.061 8.093 4.68 6.806 C 5.296 5.518 5.994 4.211 6.765 2.882 C 7.92 .79 9.012 -1.193 10.047 -3.063 C 11.079 -4.934 12.129 -6.918 13.189 -9.017 C 13.235 -9.16 13.308 -9.325 13.402 -9.512 C 13.496 -9.699 13.592 -9.885 13.684 -10.072 C 13.777 -10.259 13.863 -10.422 13.936 -10.562 C 14.01 -10.701 14.049 -10.784 14.051 -10.807 C 14.063 -10.905 14.076 -11.003 14.089 -11.101 C 14.105 -11.224 14.121 -11.346 14.137 -11.468 C 14.149 -11.566 14.182 -11.655 14.233 -11.735 C 14.285 -11.816 14.423 -11.867 14.646 -11.888 C 14.988 -12.64 15.329 -13.393 15.668 -14.146 C 15.695 -14.366 15.723 -14.587 15.75 -14.807 C 13.484 -15.087 11.223 -15.405 8.965 -15.762 C 8.863 -15.728 8.763 -15.693 8.663 -15.66 C 8.4 -15.202 8.192 -14.823 8.049 -14.521 C 7.901 -14.22 7.751 -13.914 7.59 -13.602 C 7.429 -13.291 7.315 -13.041 7.258 -12.85 C 7.23 -12.768 7.203 -12.685 7.176 -12.602 C 6.979 -12.234 6.798 -11.945 6.636 -11.734 C 6.476 -11.524 6.15 -11.458 5.663 -11.542 C 5.449 -11.578 5.232 -11.646 5.028 -11.745 C 4.821 -11.844 4.599 -11.914 4.354 -11.957 C 4.219 -11.981 4.111 -11.938 4.036 -11.826 C 4.004 -11.881 3.972 -11.938 3.939 -11.994 C 3.372 -12.095 2.805 -12.2 2.236 -12.306 C 1.586 -12.429 .934 -12.573 .281 -12.74 C -.372 -12.907 -1.005 -13.08 -1.614 -13.256 C -1.795 -13.344 -1.909 -13.627 -1.963 -14.104 C -2.014 -14.582 -2.06 -15.102 -2.091 -15.664 C -2.124 -16.226 -2.168 -16.733 -2.222 -17.186 C -2.277 -17.639 -2.395 -17.886 -2.578 -17.926 C -4.658 -18.378 -6.732 -18.863 -8.8 -19.381 C -8.854 -19.395 -8.896 -19.349 -8.939 -19.245 C -8.978 -19.14 -9.004 -19.064 -9.017 -19.016 C -9.113 -18.634 -9.121 -18.171 -9.031 -17.627 "/>
<path transform="matrix(1,0,0,-1,287.4987,231.26599)" d="M 0 0 C .08 .292 .183 .587 .307 .884 C .429 1.18 .564 1.446 .707 1.683 C .852 1.919 .979 2.042 1.09 2.052 C 1.307 2.072 1.462 1.948 1.536 1.683 C 1.615 1.417 1.682 1.125 1.737 .809 C 1.793 .492 1.867 .201 1.957 -.063 C 2.051 -.328 2.244 -.447 2.542 -.422 C 2.759 -.404 2.902 -.213 2.966 .152 C 3.033 .515 3.047 .919 3.011 1.361 C 2.997 1.534 2.982 1.706 2.969 1.878 C 2.922 2.443 2.834 2.956 2.698 3.415 C 2.563 3.874 2.419 4.345 2.268 4.828 C 2.247 4.9 2.228 4.973 2.208 5.045 C 2.68 5.085 2.995 4.967 3.16 4.695 C 3.323 4.424 3.441 4.118 3.524 3.778 C 3.607 3.438 3.701 3.129 3.805 2.853 C 3.911 2.576 4.141 2.452 4.497 2.478 C 4.524 2.48 4.553 2.482 4.58 2.484 C 4.677 2.664 4.733 2.922 4.752 3.257 C 4.768 3.592 4.776 3.796 4.771 3.871 L 4.937 3.882 C 5.407 3.916 5.863 3.853 6.304 3.697 C 6.745 3.54 7.227 3.476 7.752 3.506 C 8.056 3.524 8.373 3.566 8.7 3.633 C 9.031 3.699 9.333 3.814 9.619 3.976 C 9.901 4.138 10.127 4.358 10.297 4.637 C 10.463 4.916 10.542 5.265 10.523 5.685 C 10.494 6.3 10.244 6.789 9.76 7.15 C 9.279 7.509 8.678 7.813 7.956 8.058 C 7.232 8.301 6.439 8.539 5.57 8.766 C 4.701 8.992 3.858 9.309 3.041 9.715 C 2.221 10.121 1.473 10.659 .793 11.331 C .113 12.001 -.383 12.903 -.694 14.039 C -.698 14.087 -.723 14.185 -.766 14.329 C -.81 14.474 -.841 14.644 -.858 14.841 C -.917 15.467 -.976 16.093 -1.034 16.72 C -1.051 16.891 -1.05 17.034 -1.029 17.147 C -1.014 17.261 -1.001 17.33 -1.004 17.354 C -1.006 17.378 -1.009 17.453 -1.004 17.577 C -1 17.702 -.992 17.839 -.976 17.989 C -.959 18.139 -.942 18.283 -.926 18.42 C -.908 18.558 -.888 18.653 -.863 18.705 C -.84 18.781 -.791 18.953 -.708 19.221 C -.627 19.488 -.533 19.763 -.423 20.045 C -.312 20.327 -.198 20.585 -.085 20.818 C .031 21.051 .136 21.171 .225 21.179 C .314 21.187 .487 21.109 .741 20.944 C .997 20.78 1.127 20.624 1.142 20.477 C 1.143 20.464 1.144 20.452 1.145 20.439 C 1.094 19.99 .99 19.591 .84 19.245 C .689 18.897 .633 18.515 .669 18.098 C .686 17.9 .728 17.663 .797 17.384 C .863 17.105 .94 16.821 1.024 16.531 C 1.106 16.241 1.197 15.963 1.294 15.7 C 1.391 15.435 1.488 15.22 1.59 15.056 C 1.592 15.031 1.68 14.957 1.851 14.835 C 2.021 14.713 2.107 14.64 2.109 14.615 C 2.121 14.48 2.131 14.345 2.143 14.209 C 2.162 13.989 2.131 13.782 2.061 13.59 C 1.988 13.399 1.91 13.213 1.822 13.033 C 1.736 12.853 1.659 12.66 1.588 12.457 C 1.517 12.252 1.493 12.027 1.514 11.782 C 1.526 11.635 1.572 11.435 1.65 11.181 C 1.729 10.928 1.871 10.785 2.075 10.752 C 2.09 10.753 2.104 10.754 2.118 10.755 C 2.32 10.771 2.473 11.007 2.581 11.46 C 2.689 11.915 2.756 12.415 2.788 12.961 C 2.815 13.508 2.83 14.022 2.82 14.504 C 2.813 14.986 2.807 15.264 2.801 15.337 C 2.663 16.366 2.523 17.395 2.384 18.423 C 2.352 18.84 2.417 19.248 2.581 19.644 C 2.746 20.04 2.856 20.462 2.913 20.912 C 2.9 21.059 2.896 21.219 2.9 21.393 C 2.9 21.566 2.893 21.764 2.877 21.985 C 2.856 22.28 2.849 22.57 2.858 22.855 C 2.869 23.141 2.91 23.403 2.982 23.644 C 3.055 23.884 3.179 24.097 3.348 24.282 C 3.519 24.467 3.768 24.596 4.1 24.668 C 4.581 24.799 5.09 24.889 5.643 24.935 C 6.187 24.98 6.753 25.02 7.331 25.051 C 8.352 25.106 9.372 25.154 10.395 25.196 C 10.7 25.134 10.917 24.864 11.043 24.388 C 11.168 23.912 11.27 23.397 11.353 22.844 C 11.433 22.292 11.512 21.795 11.587 21.354 C 11.664 20.912 11.82 20.695 12.061 20.704 C 12.209 20.708 12.335 20.818 12.431 21.031 C 12.528 21.243 12.605 21.425 12.66 21.575 C 12.645 22.093 12.627 22.61 12.611 23.128 C 12.636 23.302 12.733 23.551 12.906 23.877 C 13.078 24.203 13.193 24.454 13.249 24.628 C 13.246 24.726 13.305 24.777 13.427 24.781 C 13.547 24.784 13.778 24.729 14.115 24.614 C 14.451 24.499 14.807 24.359 15.174 24.194 C 15.543 24.028 15.863 23.855 16.14 23.675 C 16.413 23.494 16.553 23.341 16.554 23.219 C 16.555 23.145 16.557 23.07 16.557 22.997 C 15.972 21.754 15.396 20.511 14.829 19.265 C 14.684 19.014 14.535 18.752 14.381 18.477 C 14.225 18.201 14.016 17.961 13.756 17.758 C 13.149 18.308 12.457 18.713 11.674 18.969 C 10.893 19.224 10.098 19.333 9.297 19.296 C 8.671 19.267 8.177 19.093 7.806 18.777 C 7.436 18.461 7.27 17.982 7.306 17.341 C 7.343 16.701 7.531 16.211 7.873 15.872 C 8.213 15.532 8.624 15.281 9.098 15.119 C 9.572 14.958 10.081 14.844 10.624 14.781 C 11.165 14.716 11.656 14.63 12.098 14.522 C 12.802 14.325 13.532 14.026 14.281 13.626 C 15.031 13.225 15.704 12.732 16.305 12.15 C 16.903 11.568 17.395 10.907 17.77 10.171 C 18.146 9.435 18.334 8.622 18.342 7.734 C 18.355 5.958 18.092 4.408 17.569 3.083 C 17.045 1.758 16.323 .65 15.408 -.245 C 14.49 -1.141 13.425 -1.83 12.207 -2.32 C 10.987 -2.81 9.662 -3.092 8.219 -3.175 C 8.004 -3.187 7.661 -3.169 7.189 -3.125 C 6.715 -3.08 6.18 -3.004 5.58 -2.897 C 4.979 -2.791 4.353 -2.665 3.691 -2.519 C 3.03 -2.373 2.422 -2.208 1.863 -2.021 C 1.303 -1.835 .844 -1.624 .48 -1.386 C .117 -1.147 -.078 -.894 -.104 -.623 C -.117 -.501 -.084 -.293 0 0 "/>
<path transform="matrix(1,0,0,-1,326.0202,209.37403)" d="M 0 0 C -.004 -.049 -.024 -.202 -.06 -.459 C -.097 -.716 -.144 -1.009 -.199 -1.338 C -.254 -1.668 -.289 -1.857 -.291 -1.907 C -.264 -1.934 -.234 -1.948 -.205 -1.951 C -.146 -1.956 -.055 -1.938 .07 -1.899 C .189 -1.859 .312 -1.783 .427 -1.669 C .543 -1.555 .652 -1.385 .764 -1.159 C .872 -.933 .944 -.648 .973 -.304 C 1.01 .126 1.047 .556 1.084 .986 C .722 .658 .359 .33 0 0 M -9.451 -3.129 C -11.17 -3.059 -12.89 -3.009 -14.61 -2.978 C -14.652 -2.878 -14.695 -2.779 -14.737 -2.68 C -14.732 -2.359 -14.727 -2.039 -14.721 -1.718 C -14.706 -.855 -14.686 -.084 -14.658 .594 C -14.63 1.271 -14.581 2.079 -14.502 3.015 C -14.344 3.234 -14.131 3.372 -13.854 3.428 C -13.576 3.483 -13.333 3.509 -13.118 3.504 C -12.509 3.49 -11.898 3.473 -11.289 3.453 C -10.985 3.443 -10.688 3.402 -10.399 3.331 C -10.111 3.259 -9.803 3.167 -9.473 3.055 C -9.486 2.71 -9.467 2.444 -9.413 2.257 C -9.361 2.07 -9.3 1.9 -9.229 1.75 C -9.158 1.599 -9.081 1.447 -8.997 1.296 C -8.913 1.144 -8.846 .931 -8.799 .658 C -8.755 .261 -8.712 -.136 -8.669 -.533 C -8.597 -.931 -8.471 -1.326 -8.295 -1.716 C -8.119 -2.107 -7.954 -2.504 -7.791 -2.907 C -7.635 -3.31 -7.495 -3.724 -7.386 -4.149 C -7.275 -4.575 -7.231 -5.009 -7.254 -5.453 C -7.268 -5.724 -7.369 -5.972 -7.557 -6.196 C -7.746 -6.422 -7.842 -6.67 -7.855 -6.941 C -7.864 -7.114 -7.873 -7.286 -7.881 -7.458 C -7.891 -7.68 -7.888 -7.903 -7.87 -8.126 C -7.853 -8.349 -7.742 -8.465 -7.539 -8.476 C -7.482 -8.479 -7.437 -8.468 -7.406 -8.446 C -7.257 -8.305 -7.148 -8.033 -7.081 -7.629 C -7.018 -7.225 -6.974 -6.813 -6.95 -6.394 C -6.932 -6.049 -6.928 -5.729 -6.943 -5.431 C -6.96 -5.134 -6.962 -4.912 -6.953 -4.764 C -6.922 -4.16 -6.89 -3.557 -6.857 -2.953 C -6.937 -2.801 -6.985 -2.657 -6.992 -2.521 C -7.001 -2.384 -7.03 -2.24 -7.081 -2.09 C -7.071 -1.905 -7.062 -1.72 -7.053 -1.535 C -7.068 -.361 -7.084 .812 -7.101 1.986 C -7.084 2.307 -7.068 2.627 -7.053 2.947 C -6.986 3.042 -6.876 3.117 -6.719 3.171 C -6.563 3.225 -6.441 3.249 -6.35 3.245 C -2.799 3.057 .748 2.787 4.289 2.437 C 4.379 2.254 4.469 2.072 4.558 1.89 C 4.384 .171 4.21 -1.546 4.037 -3.265 C 3.891 -3.522 3.744 -3.781 3.6 -4.039 C 1.99 -3.88 .379 -3.738 -1.233 -3.614 C -1.342 -3.667 -1.449 -3.721 -1.558 -3.774 C -1.636 -4.362 -1.699 -4.864 -1.762 -5.28 C -1.824 -5.696 -1.879 -6.125 -1.926 -6.567 C -1.976 -7.008 -2.009 -7.377 -2.031 -7.672 C -2.232 -10.354 -2.479 -13.13 -2.765 -16.003 C -3.053 -18.875 -3.361 -21.647 -3.692 -24.319 C -3.704 -24.466 -3.756 -24.611 -3.846 -24.753 C -3.938 -24.895 -4.05 -24.961 -4.184 -24.951 C -6.178 -24.81 -8.174 -24.698 -10.17 -24.615 C -10.262 -24.562 -10.354 -24.509 -10.445 -24.456 C -10.402 -23.383 -10.359 -22.311 -10.316 -21.239 C -10.031 -15.202 -9.742 -9.166 -9.451 -3.129 "/>
<path transform="matrix(1,0,0,-1,385.2995,219.97162)" d="M 0 0 C -.053 -.059 -.115 -.13 -.176 -.212 C -.225 -.352 -.219 -.511 -.151 -.692 C -.088 -.873 -.005 -1.054 .093 -1.233 C .192 -1.413 .275 -1.581 .351 -1.739 C .423 -1.897 .447 -2.01 .422 -2.08 C .437 -2.217 .396 -2.438 .301 -2.745 C .205 -3.051 .109 -3.333 .019 -3.587 C -.023 -3.703 -.066 -3.819 -.108 -3.935 C -.065 -4.082 -.002 -4.17 .084 -4.202 C .271 -4.218 .464 -4.091 .66 -3.822 C .855 -3.552 1.047 -3.234 1.23 -2.869 C 1.414 -2.502 1.596 -2.143 1.777 -1.788 C 1.955 -1.434 2.112 -1.163 2.249 -.976 C 2.285 -.964 2.393 -.99 2.564 -1.054 C 2.666 -1.091 2.766 -1.129 2.867 -1.167 C 3.588 -1.436 4.251 -1.911 4.846 -2.589 C .947 -7.143 -2.819 -11.775 -6.455 -16.479 C -6.482 -16.47 -6.508 -16.46 -6.535 -16.451 C -7.756 -18.06 -8.963 -19.677 -10.153 -21.301 C -10.252 -21.423 -10.398 -21.608 -10.586 -21.857 C -10.773 -22.105 -10.979 -22.367 -11.204 -22.643 C -11.428 -22.917 -11.639 -23.172 -11.834 -23.405 C -12.028 -23.639 -12.156 -23.798 -12.212 -23.883 C -12.268 -24.047 -12.346 -24.15 -12.447 -24.194 C -12.516 -24.223 -12.603 -24.292 -12.71 -24.398 C -12.818 -24.505 -12.886 -24.554 -12.91 -24.545 C -14.438 -24.031 -15.971 -23.536 -17.508 -23.059 C -17.79 -22.869 -17.972 -22.663 -18.061 -22.443 C -18.15 -22.222 -18.215 -21.951 -18.259 -21.627 C -18.303 -21.305 -18.338 -20.927 -18.363 -20.494 C -18.389 -20.061 -18.477 -19.526 -18.632 -18.888 C -18.639 -18.911 -18.646 -18.935 -18.652 -18.958 C -18.66 -18.801 -18.674 -18.669 -18.686 -18.563 C -18.695 -18.457 -18.703 -18.358 -18.705 -18.267 C -18.707 -18.177 -18.722 -18.127 -18.748 -18.12 C -18.762 -18.116 -18.774 -18.112 -18.787 -18.108 C -18.84 -18.092 -18.89 -18.065 -18.936 -18.025 C -18.982 -17.986 -19.027 -17.851 -19.075 -17.618 C -19.121 -17.386 -19.166 -17.02 -19.207 -16.519 C -19.251 -16.019 -19.281 -15.315 -19.312 -14.408 C -19.747 -15.104 -20.103 -15.709 -20.378 -16.219 C -20.654 -16.731 -20.812 -17.058 -20.853 -17.2 C -21.479 -17.933 -22.1 -18.668 -22.717 -19.405 C -22.765 -19.469 -22.86 -19.59 -23.008 -19.766 C -23.157 -19.943 -23.316 -20.122 -23.495 -20.303 C -23.67 -20.485 -23.844 -20.649 -24.01 -20.795 C -24.176 -20.942 -24.302 -21.016 -24.387 -21.019 C -26.027 -20.573 -27.674 -20.147 -29.324 -19.743 C -29.297 -19.635 -29.271 -19.527 -29.244 -19.419 C -29.271 -19.413 -29.297 -19.407 -29.323 -19.4 C -29.926 -19.252 -30.356 -18.852 -30.619 -18.194 C -30.88 -17.537 -30.939 -16.769 -30.79 -15.892 C -30.625 -14.828 -30.461 -13.765 -30.3 -12.701 C -30.516 -12.524 -30.679 -12.397 -30.79 -12.321 C -30.9 -12.246 -30.957 -12.018 -30.955 -11.639 C -30.914 -5.374 -30.99 .905 -31.185 7.193 C -31.285 7.441 -31.344 7.616 -31.354 7.72 C -31.363 7.822 -31.344 7.994 -31.294 8.236 C -31.248 8.454 -31.068 8.618 -30.747 8.728 C -30.43 8.837 -30.195 8.876 -30.043 8.845 C -29.998 8.835 -29.953 8.826 -29.908 8.816 C -29.728 8.778 -29.518 8.708 -29.272 8.605 C -29.031 8.502 -28.805 8.378 -28.603 8.233 C -28.4 8.088 -28.232 7.925 -28.101 7.744 C -27.971 7.564 -27.929 7.365 -27.977 7.148 C -28.18 6.448 -28.381 5.748 -28.584 5.047 C -28.633 4.754 -28.682 4.462 -28.731 4.17 C -28.727 3.916 -28.678 3.754 -28.586 3.683 C -28.494 3.611 -28.359 3.557 -28.186 3.518 C -28.127 3.504 -28.068 3.492 -28.01 3.479 C -27.896 3.452 -27.727 3.609 -27.51 3.953 C -27.292 4.296 -27.06 4.705 -26.811 5.179 C -26.563 5.654 -26.282 6.122 -25.974 6.582 C -25.666 7.042 -25.342 7.372 -25.012 7.573 C -25.053 7.405 -24.924 7.287 -24.626 7.216 C -24.032 7.203 -23.437 7.187 -22.843 7.168 C -22.636 7.118 -22.527 6.977 -22.521 6.747 C -22.997 3.802 -23.482 .859 -23.977 -2.081 C -23.963 -2.136 -23.914 -2.091 -23.83 -1.946 C -23.748 -1.801 -23.696 -1.746 -23.673 -1.776 C -23.687 -1.951 -23.67 -2.253 -23.629 -2.683 C -23.589 -3.114 -23.553 -3.568 -23.522 -4.046 C -23.494 -4.525 -23.465 -4.977 -23.442 -5.404 C -23.418 -5.83 -23.411 -6.119 -23.418 -6.27 C -23.491 -6.43 -23.582 -6.495 -23.693 -6.466 C -23.889 -6.417 -24.085 -6.366 -24.28 -6.317 C -24.339 -6.302 -24.388 -6.328 -24.434 -6.393 C -24.486 -6.596 -24.537 -6.799 -24.589 -7.002 C -24.625 -7.146 -24.622 -7.286 -24.585 -7.423 C -24.546 -7.561 -24.557 -7.749 -24.616 -7.988 C -24.623 -8.012 -24.628 -8.036 -24.635 -8.06 C -24.692 -8.287 -24.75 -8.514 -24.809 -8.741 C -24.896 -9.1 -24.981 -9.296 -25.047 -9.329 C -24.968 -9.655 -24.891 -9.98 -24.812 -10.305 C -24.881 -10.912 -24.949 -11.519 -25.019 -12.125 C -24.923 -12.149 -24.828 -12.174 -24.732 -12.198 C -24.571 -12.24 -24.359 -11.76 -24.096 -10.757 C -23.993 -10.364 -23.891 -9.97 -23.788 -9.576 C -23.606 -9.445 -23.425 -9.313 -23.243 -9.183 C -22.967 -9.025 -22.795 -8.892 -22.737 -8.78 C -22.679 -8.668 -22.635 -8.553 -22.602 -8.433 C -22.57 -8.314 -22.547 -8.199 -22.532 -8.087 C -22.52 -7.977 -22.492 -7.85 -22.453 -7.707 C -22.385 -7.444 -22.221 -7.168 -21.965 -6.879 C -21.921 -6.826 -21.878 -6.774 -21.834 -6.722 C -21.391 -6.177 -20.985 -5.659 -20.628 -5.167 C -20.268 -4.677 -19.959 -4.173 -19.694 -3.657 C -19.731 -3.57 -19.777 -3.456 -19.83 -3.313 C -19.883 -3.171 -19.846 -2.874 -19.725 -2.421 C -19.553 -1.779 -18.967 -.632 -17.956 1.009 L -17.25 3.579 C -17.162 3.657 -17.022 3.791 -16.83 3.981 C -16.637 4.171 -16.422 4.362 -16.195 4.555 C -15.97 4.748 -15.756 4.918 -15.552 5.067 C -15.351 5.216 -15.205 5.278 -15.117 5.252 C -14.363 5.041 -13.611 4.825 -12.859 4.605 C -13.15 3.61 -13.442 2.616 -13.734 1.622 C -13.775 1.48 -13.811 1.304 -13.842 1.094 C -13.872 .884 -13.9 .681 -13.926 .483 C -13.954 .285 -13.965 .114 -13.959 -.028 C -13.951 -.171 -13.938 -.247 -13.909 -.255 C -13.793 -.289 -13.626 -.197 -13.403 .021 C -13.183 .237 -12.928 .535 -12.641 .913 C -12.355 1.291 -12.075 1.748 -11.801 2.284 C -11.528 2.821 -11.283 3.391 -11.069 3.996 C -10.812 3.893 -10.555 3.789 -10.297 3.685 C -9.925 3.378 -9.554 3.069 -9.184 2.761 C -9.197 2.713 -9.303 2.559 -9.498 2.297 C -9.691 2.033 -9.842 1.841 -9.942 1.718 C -10.582 .224 -11.217 -1.271 -11.85 -2.768 C -11.894 -2.909 -11.9 -3.081 -11.869 -3.284 C -11.838 -3.487 -11.859 -3.708 -11.933 -3.942 C -11.977 -4.084 -12.016 -4.163 -12.052 -4.177 C -12.041 -4.438 -12.053 -4.675 -12.085 -4.883 C -12.116 -5.092 -12.165 -5.291 -12.224 -5.479 C -12.275 -5.645 -12.326 -5.784 -12.375 -5.897 C -12.428 -6.011 -12.46 -6.091 -12.474 -6.138 C -12.553 -6.397 -12.623 -6.564 -12.675 -6.637 C -12.729 -6.712 -12.763 -6.772 -12.777 -6.819 C -12.792 -6.866 -12.807 -6.913 -12.821 -6.96 C -12.73 -8.847 -12.656 -10.732 -12.597 -12.616 C -12.58 -12.75 -12.519 -12.835 -12.408 -12.87 C -12.367 -12.883 -12.326 -12.896 -12.285 -12.909 C -11.1 -11.411 -9.897 -9.921 -8.681 -8.439 C -7.535 -6.519 -6.375 -4.604 -5.203 -2.696 C -4.582 -1.994 -4.109 -1.406 -3.784 -.931 C -3.459 -.455 -3.203 -.086 -3.016 .176 C -2.829 .437 -2.672 .611 -2.544 .698 C -2.416 .784 -2.223 .782 -1.96 .691 C -1.307 .464 -.652 .233 0 0 "/>
<path transform="matrix(1,0,0,-1,406.4186,245.09473)" d="M 0 0 C .271 .526 .542 1.053 .813 1.579 C 1.277 2.478 1.54 3.405 1.595 4.361 C 1.65 5.316 1.523 6.241 1.212 7.129 C .899 8.018 .427 8.826 -.213 9.552 C -.853 10.277 -1.625 10.856 -2.528 11.285 C -4.105 11.568 -5.454 11.256 -6.565 10.368 C -7.679 9.479 -8.66 8.073 -9.522 6.162 C -9.74 5.679 -9.959 5.195 -10.178 4.711 C -10.553 3.879 -10.823 3.074 -10.986 2.295 C -11.15 1.516 -11.016 .704 -10.593 -.143 C -10.484 -.383 -10.435 -.63 -10.443 -.884 C -10.453 -1.139 -10.483 -1.375 -10.539 -1.595 C -10.595 -1.814 -10.635 -2 -10.658 -2.152 C -10.682 -2.304 -10.644 -2.403 -10.541 -2.451 C -10.442 -2.498 -10.334 -2.507 -10.226 -2.476 C -9.581 -2.424 -9.102 -2.473 -8.797 -2.619 C -8.801 -3.083 -8.807 -3.325 -8.816 -3.347 C -8.838 -3.392 -8.859 -3.436 -8.881 -3.481 C -8.976 -3.681 -9.133 -3.928 -9.351 -4.22 C -9.57 -4.513 -9.748 -4.816 -9.898 -5.127 C -9.953 -5.239 -10.006 -5.384 -10.061 -5.563 C -10.116 -5.741 -10.16 -5.912 -10.189 -6.075 C -10.222 -6.238 -10.234 -6.39 -10.223 -6.531 C -10.215 -6.672 -10.173 -6.76 -10.098 -6.796 C -10.085 -6.803 -10.072 -6.809 -10.06 -6.814 C -9.846 -6.37 -9.633 -5.925 -9.419 -5.48 C -9.286 -5.27 -9.143 -5.161 -8.983 -5.156 C -8.824 -5.149 -8.678 -5.07 -8.543 -4.916 C -8.418 -4.881 -8.291 -4.846 -8.165 -4.812 C -7.869 -4.325 -7.508 -3.875 -7.087 -3.463 C -6.664 -3.051 -6.135 -2.904 -5.498 -3.027 C -5.329 -3.262 -5.16 -3.498 -4.992 -3.733 C -4.91 -3.567 -4.827 -3.402 -4.744 -3.236 C -4.133 -3.35 -3.592 -3.353 -3.121 -3.247 C -2.651 -3.14 -2.232 -2.938 -1.87 -2.638 C -1.508 -2.339 -1.179 -1.968 -.883 -1.522 C -.59 -1.078 -.295 -.57 0 0 M -7.32 15.595 C -7.41 15.392 -7.452 15.261 -7.442 15.204 C -7.436 15.147 -7.334 15.075 -7.139 14.989 C -6.863 14.866 -6.644 14.904 -6.487 15.104 C -6.331 15.304 -6.195 15.54 -6.072 15.811 C -6.197 15.867 -6.324 15.922 -6.449 15.979 C -6.699 16.09 -6.881 16.116 -6.991 16.057 C -7.102 15.997 -7.211 15.843 -7.32 15.595 M 7.416 -2.738 C 6.838 -3.77 6.23 -4.682 5.604 -5.476 C 4.977 -6.269 4.283 -6.957 3.534 -7.542 C 2.784 -8.126 1.972 -8.627 1.096 -9.049 C .221 -9.471 -.754 -9.825 -1.828 -10.117 C -3.385 -10.545 -4.897 -10.636 -6.38 -10.392 C -7.861 -10.148 -9.25 -9.712 -10.557 -9.081 C -10.864 -8.932 -11.172 -8.784 -11.48 -8.637 C -12 -8.39 -12.479 -8.136 -12.915 -7.878 C -13.353 -7.619 -13.778 -7.286 -14.194 -6.878 C -14.493 -6.579 -14.793 -6.279 -15.095 -5.981 C -15.353 -5.756 -15.57 -5.545 -15.736 -5.349 C -15.901 -5.152 -15.992 -4.892 -15.997 -4.565 C -16.613 -3.78 -16.979 -2.896 -17.098 -1.904 C -17.047 -1.751 -16.996 -1.598 -16.945 -1.446 C -16.961 -1.412 -17.021 -1.359 -17.128 -1.287 C -17.232 -1.215 -17.301 -1.133 -17.318 -1.044 C -17.476 -.561 -17.635 -.078 -17.795 .405 C -18.084 1.811 -18.117 3.247 -17.881 4.711 C -17.648 6.176 -17.264 7.571 -16.723 8.896 C -16.662 9.044 -16.601 9.192 -16.54 9.341 C -16.186 10.128 -15.779 10.909 -15.318 11.68 C -14.858 12.451 -14.303 13.197 -13.65 13.915 C -13.69 13.664 -13.713 13.374 -13.722 13.043 C -13.731 12.712 -13.674 12.507 -13.543 12.428 C -13.49 12.405 -13.472 12.331 -13.492 12.206 C -13.512 12.079 -13.494 12.006 -13.44 11.983 C -13.422 11.989 -13.403 11.995 -13.385 12 C -13.357 12.068 -13.291 12.188 -13.186 12.358 C -13.084 12.528 -12.96 12.725 -12.818 12.946 C -12.677 13.167 -12.537 13.383 -12.4 13.593 C -12.262 13.803 -12.148 13.982 -12.052 14.13 C -12.043 14.152 -12.033 14.175 -12.023 14.198 L -11.924 14.316 C -11.897 14.385 -11.877 14.584 -11.867 14.915 C -11.859 15.246 -11.794 15.559 -11.668 15.855 C -11.592 16.037 -11.535 16.134 -11.497 16.145 C -11.271 16.291 -11.049 16.411 -10.827 16.505 C -10.608 16.599 -10.39 16.708 -10.17 16.829 C -10.143 16.817 -10.114 16.806 -10.086 16.794 C -10.091 16.822 -10.094 16.851 -10.099 16.879 C -8.672 17.667 -7.148 18.045 -5.547 18.007 C -5.207 18.017 -4.866 17.989 -4.543 17.923 C -4.217 17.858 -3.885 17.788 -3.541 17.714 C -3.521 17.759 -3.401 17.739 -3.187 17.653 C -2.971 17.568 -2.844 17.53 -2.804 17.54 C -2.727 17.26 -2.668 17.056 -2.626 16.928 C -2.581 16.8 -2.567 16.724 -2.577 16.702 C -2.454 16.672 -2.342 16.695 -2.238 16.77 C -2.135 16.844 -2.042 16.936 -1.955 17.046 C -1.871 17.157 -1.787 17.247 -1.703 17.317 C -1.616 17.386 -1.55 17.409 -1.493 17.382 C -1.423 17.35 -1.353 17.317 -1.281 17.284 C -.791 17.082 -.369 16.903 -.013 16.748 C .345 16.592 .677 16.441 .984 16.292 C 1.66 15.97 2.152 15.667 2.467 15.39 C 2.779 15.112 2.861 14.818 2.708 14.508 C 2.334 14.239 1.96 13.969 1.588 13.698 C 1.577 13.676 1.577 13.592 1.594 13.447 C 1.607 13.303 1.616 13.162 1.618 13.023 C 1.618 12.885 1.639 12.684 1.678 12.417 C 1.656 12.372 1.635 12.328 1.612 12.284 C 1.495 12.218 1.377 12.152 1.26 12.086 C 1.205 11.975 1.158 11.827 1.117 11.64 C 1.076 11.454 1.06 11.263 1.064 11.068 C 1.072 10.872 1.097 10.702 1.145 10.554 C 1.187 10.408 1.267 10.308 1.377 10.253 C 1.486 10.474 1.592 10.635 1.694 10.737 C 1.794 10.837 1.893 10.988 1.993 11.187 C 2.113 11.43 2.322 11.534 2.612 11.499 C 2.904 11.463 3.1 11.545 3.197 11.744 C 3.543 12.33 3.889 12.916 4.235 13.5 C 4.328 13.48 4.42 13.45 4.502 13.408 C 4.779 13.268 5.138 13.066 5.577 12.8 C 6.018 12.534 6.293 12.372 6.4 12.314 C 6.414 12.307 6.428 12.3 6.442 12.293 C 7.336 11.248 8.019 10.085 8.492 8.811 C 8.963 7.535 9.225 6.234 9.277 4.91 C 9.331 3.584 9.193 2.269 8.878 .962 C 8.559 -.344 8.069 -1.576 7.416 -2.738 "/>
<path transform="matrix(1,0,0,-1,430.7331,266.56105)" d="M 0 0 C -.159 -.616 -.287 -1.271 -.381 -1.965 C -.479 -2.659 -.574 -3.337 -.672 -4.001 C -.771 -4.664 -.897 -5.292 -1.054 -5.883 C -1.211 -6.474 -1.422 -6.994 -1.687 -7.442 C -1.717 -7.482 -1.746 -7.521 -1.775 -7.561 C -3.803 -6.046 -5.852 -4.574 -7.92 -3.144 C -8.128 -3.001 -8.188 -2.781 -8.102 -2.48 C -8.014 -2.181 -7.969 -1.928 -7.964 -1.722 C -7.907 -1.043 -7.807 -.343 -7.661 .378 C -7.515 1.099 -7.364 1.822 -7.204 2.547 C -7.046 3.272 -6.912 4.001 -6.807 4.731 C -6.701 5.462 -6.646 6.179 -6.637 6.882 C -6.621 6.96 -6.633 7.048 -6.671 7.148 C -6.708 7.248 -6.735 7.315 -6.746 7.352 L -6.854 7.424 C -6.952 7.488 -7.028 7.479 -7.082 7.396 C -8.262 5.75 -9.438 4.103 -10.614 2.454 C -10.604 2.417 -10.721 2.214 -10.963 1.841 C -11.232 1.428 -11.64 .854 -12.184 .12 C -12.326 .08 -12.468 .04 -12.609 0 C -14.383 1.153 -16.17 2.276 -17.971 3.368 C -18.039 3.467 -18.108 3.567 -18.178 3.667 L -4.048 27.083 C -3.762 27.139 -3.525 27.128 -3.352 27.051 C -3.178 26.973 -3.021 26.894 -2.889 26.812 C -2.753 26.729 -2.617 26.632 -2.485 26.521 C -2.352 26.409 -2.334 26.269 -2.438 26.101 C -2.656 25.743 -2.924 25.493 -3.229 25.35 C -3.539 25.206 -3.782 24.987 -3.963 24.692 C -4.021 24.598 -4.078 24.503 -4.137 24.408 C -4.066 24.163 -3.998 23.918 -3.93 23.673 C -3.929 23.614 -3.946 23.51 -3.984 23.359 C -4.023 23.209 -4.064 23.039 -4.108 22.849 C -4.151 22.659 -4.201 22.483 -4.242 22.322 C -4.287 22.162 -4.323 22.06 -4.348 22.018 C -4.374 21.976 -4.4 21.934 -4.426 21.892 C -4.517 21.745 -4.648 21.565 -4.815 21.35 C -4.984 21.135 -5.085 21.006 -5.107 20.965 C -4.938 20.86 -4.769 20.755 -4.599 20.649 C -4.627 20.607 -4.649 20.585 -4.666 20.582 C -4.687 20.58 -4.71 20.558 -4.736 20.517 C -4.968 20.312 -5.173 20.133 -5.34 19.977 C -5.512 19.82 -5.677 19.604 -5.846 19.332 C -5.886 19.269 -5.924 19.177 -5.963 19.057 C -6.003 18.791 -6.043 18.525 -6.082 18.26 C -6.228 18.028 -6.477 17.799 -6.83 17.569 C -7.187 17.339 -7.461 17.125 -7.653 16.925 C -7.672 16.894 -7.692 16.862 -7.711 16.831 C -7.854 16.6 -7.933 16.3 -7.948 15.933 C -7.966 15.565 -7.985 15.304 -8.015 15.147 C -7.976 15.094 -7.945 15.061 -7.92 15.044 C -7.82 14.981 -7.645 15.01 -7.393 15.129 C -7.144 15.249 -6.872 15.408 -6.59 15.608 C -6.305 15.809 -6.045 16.009 -5.812 16.212 C -5.578 16.414 -5.426 16.567 -5.361 16.672 C -5.202 16.922 -5.117 17.13 -5.103 17.296 C -5.09 17.461 -5.081 17.626 -5.087 17.79 C -5.093 17.953 -5.094 18.122 -5.094 18.296 C -5.093 18.47 -5.032 18.68 -4.914 18.926 C -4.555 19.501 -4.195 20.077 -3.836 20.652 C -3.47 21.354 -3.104 22.057 -2.738 22.76 C -2.727 22.78 -2.694 22.877 -2.643 23.049 C -2.591 23.22 -2.545 23.337 -2.506 23.4 C -2.466 23.462 -2.349 23.534 -2.151 23.615 C -1.955 23.695 -1.73 23.773 -1.479 23.849 C -1.229 23.924 -.99 24.008 -.766 24.1 C -.541 24.191 -.371 24.272 -.25 24.343 C -.173 24.41 .047 24.549 .406 24.759 C 2.286 23.566 4.152 22.343 6.006 21.09 C 6.241 20.931 6.311 20.706 6.21 20.416 C 6.107 20.127 5.951 19.809 5.734 19.463 C 5.52 19.118 5.304 18.763 5.097 18.398 C 4.883 18.033 4.777 17.705 4.768 17.413 C 4.75 17.334 4.8 17.182 4.909 16.958 C 5.021 16.731 5.054 16.588 5.013 16.527 C 4.944 16.425 4.816 16.34 4.637 16.269 C 4.456 16.198 4.263 16.122 4.056 16.039 C 3.85 15.956 3.646 15.863 3.444 15.762 C 3.244 15.659 3.096 15.536 2.999 15.394 C 2.313 15.95 1.625 16.502 .934 17.05 C .884 17.083 .807 17.125 .711 17.175 C .614 17.224 .502 17.291 .374 17.376 C .244 17.46 .115 17.545 -.013 17.63 L -.229 17.551 C -1.27 15.961 -2.31 14.371 -3.35 12.782 C -2.622 12.305 -1.896 11.823 -1.174 11.336 C -.851 11.119 -.522 11 -.187 10.982 C .145 10.964 .473 11.018 .796 11.14 C 1.118 11.263 1.41 11.437 1.674 11.659 C 1.937 11.882 2.15 12.116 2.32 12.36 C 2.557 12.706 2.764 13.049 2.943 13.391 C 3.122 13.732 3.229 14.145 3.263 14.631 C 3.367 14.62 3.47 14.603 3.564 14.581 C 3.661 14.559 3.764 14.572 3.87 14.618 C 4.122 14.984 4.388 15.303 4.668 15.573 C 4.946 15.845 5.229 16.115 5.512 16.386 C 5.793 16.657 6.078 16.932 6.365 17.212 C 6.654 17.492 6.932 17.824 7.199 18.21 C 7.645 18.382 8.09 18.553 8.536 18.723 C 8.627 18.659 8.718 18.595 8.809 18.532 C 9.096 18.332 9.313 18.103 9.463 17.847 C 9.611 17.59 9.779 17.32 9.966 17.036 C 10.051 16.854 10.136 16.672 10.221 16.49 C 10.938 14.883 11.148 13.337 10.859 11.864 C 10.571 10.39 9.916 8.972 8.9 7.605 C 8.636 7.248 8.306 6.87 7.914 6.471 C 7.524 6.069 7.094 5.696 6.633 5.348 C 6.168 5.001 5.697 4.695 5.228 4.43 C 4.754 4.166 4.316 3.983 3.91 3.883 C 3.738 3.854 3.473 3.841 3.111 3.846 C 2.746 3.852 2.379 3.869 1.997 3.899 C 1.617 3.929 1.131 3.96 .536 3.989 C .472 3.898 .407 3.808 .344 3.717 C .271 3.616 .244 3.5 .258 3.369 C .26 3.322 .262 3.274 .266 3.228 C .033 2.621 -.202 2.015 -.437 1.41 C -.686 1.011 -.936 .613 -1.184 .215 C -1.174 .178 -1.22 .089 -1.32 -.051 C -1.35 -.091 -1.378 -.131 -1.406 -.172 C -1.521 -.333 -1.575 -.431 -1.566 -.467 C -1.679 -.675 -1.792 -.882 -1.905 -1.089 C -2.024 -1.308 -1.994 -1.482 -1.805 -1.617 C -1.675 -1.681 -1.5 -1.671 -1.279 -1.587 C -1.06 -1.502 -.906 -1.4 -.818 -1.28 C -.628 -.87 -.438 -.459 -.25 -.047 C -.18 .052 -.094 .068 0 0 "/>
<path transform="matrix(1,0,0,-1,441.4011,282.85694)" d="M 0 0 C .051 -.094 .121 -.178 .207 -.254 C .292 -.329 .512 -.34 .863 -.287 C 1.213 -.235 1.598 -.16 2.009 -.063 C 2.42 .034 2.804 .149 3.154 .282 C 3.506 .415 3.73 .536 3.83 .647 C 3.944 .842 4.06 1.037 4.174 1.232 C 4.281 1.399 4.362 1.511 4.41 1.565 C 4.758 1.953 5.029 2.196 5.234 2.293 C 5.439 2.391 5.629 2.419 5.811 2.375 C 5.989 2.332 6.197 2.253 6.433 2.14 C 6.668 2.028 6.99 1.954 7.397 1.917 C 8.598 1.829 9.698 2.021 10.699 2.507 C 11.7 2.993 12.632 3.693 13.486 4.615 C 15.248 6.513 16.239 8.306 16.43 10.005 C 16.625 11.701 15.727 13.457 13.73 15.201 C 13.196 15.667 12.66 16.131 12.122 16.592 L 11.858 16.574 C 11.498 16.152 11.138 15.729 10.777 15.308 C 9.413 13.712 8.047 11.996 6.657 10.164 C 5.27 8.333 4.01 6.618 2.873 5.025 C 3.045 4.683 3.113 4.403 3.08 4.186 C 3.05 3.969 2.975 3.762 2.864 3.565 C 2.751 3.369 2.605 3.168 2.429 2.964 C 2.265 2.777 2.143 2.525 2.061 2.206 C 1.973 2.019 1.947 1.854 1.978 1.712 C 2.008 1.571 1.949 1.417 1.804 1.25 C 1.234 .994 .667 .736 .1 .477 C .076 .449 .051 .421 .027 .393 C -.042 .225 -.053 .094 0 0 M -4.431 7.441 C -4.33 7.566 -4.23 7.691 -4.13 7.816 C -4.008 7.97 -3.912 8.1 -3.846 8.206 C -3.782 8.311 -3.727 8.505 -3.686 8.788 C -1.591 11.786 .525 14.707 2.665 17.545 C 4.806 20.382 6.92 23.223 9.012 26.066 C 9.035 26.096 9.059 26.125 9.08 26.153 C 9.341 26.482 9.606 26.601 9.884 26.507 C 10.157 26.415 10.434 26.258 10.709 26.036 C 11.061 25.753 11.217 25.395 11.181 24.965 C 11.142 24.536 10.99 24.158 10.726 23.833 C 10.549 23.691 10.371 23.549 10.194 23.407 C 10.155 23.359 10.116 23.311 10.078 23.263 C 10.016 23.186 9.937 23.1 9.838 23.005 C 9.74 22.91 9.636 22.795 9.527 22.661 C 9.458 22.575 9.388 22.488 9.318 22.402 C 9.008 22.019 8.761 21.664 8.575 21.336 C 8.392 21.01 8.167 20.683 7.902 20.357 C 7.023 19.451 6.146 18.542 5.271 17.633 C 5.178 17.518 5.079 17.384 4.975 17.23 C 4.87 17.076 4.794 16.908 4.744 16.726 C 4.694 16.543 4.679 16.365 4.696 16.193 C 4.712 16.019 4.818 15.855 5.006 15.7 C 4.756 15.395 4.506 15.089 4.256 14.784 C 4.375 14.688 4.43 14.61 4.421 14.553 C 4.414 14.495 4.421 14.457 4.445 14.438 C 4.515 14.475 4.598 14.504 4.69 14.522 C 4.724 14.561 4.757 14.579 4.797 14.579 C 5.057 14.75 5.237 14.815 5.344 14.776 C 5.449 14.735 5.562 14.706 5.686 14.685 C 5.805 14.664 5.956 14.709 6.127 14.823 C 6.299 14.936 6.579 15.22 6.954 15.675 C 7.158 15.922 7.313 16.146 7.421 16.346 C 7.526 16.547 7.607 16.744 7.667 16.936 C 7.723 17.128 7.779 17.339 7.828 17.57 C 7.878 17.801 7.965 18.09 8.088 18.436 C 8.124 18.629 8.362 18.992 8.801 19.526 C 8.962 19.697 9.123 19.868 9.283 20.04 C 9.676 20.516 10.066 20.993 10.458 21.469 C 10.595 21.582 10.85 21.746 11.232 21.958 C 11.614 22.171 12.011 22.377 12.427 22.578 C 12.843 22.778 13.221 22.945 13.562 23.078 C 13.901 23.21 14.1 23.256 14.148 23.215 C 16.08 21.599 17.992 19.947 19.883 18.258 C 20.152 17.784 20.457 17.329 20.788 16.896 C 21.119 16.463 21.443 16.034 21.76 15.61 C 22.074 15.186 22.384 14.751 22.68 14.307 C 22.976 13.862 23.235 13.381 23.463 12.864 C 23.974 11.702 24.228 10.486 24.219 9.225 C 24.21 7.962 23.996 6.737 23.587 5.548 C 23.177 4.359 22.618 3.226 21.921 2.147 C 21.223 1.067 20.44 .102 19.588 -.752 C 18.523 -1.816 17.307 -2.751 15.939 -3.567 C 14.572 -4.384 13.139 -4.878 11.632 -5.062 C 11.1 -5.078 10.569 -5.096 10.04 -5.115 C 9.944 -5.128 9.854 -5.098 9.759 -5.025 C 9.666 -4.953 9.59 -4.905 9.531 -4.882 C 9.389 -4.967 9.246 -5.053 9.104 -5.138 C 8.379 -5.299 7.607 -5.276 6.781 -5.073 C 5.955 -4.871 5.145 -4.584 4.348 -4.219 C 3.552 -3.852 2.796 -3.432 2.088 -2.959 C 1.376 -2.485 .796 -2.053 .347 -1.656 C .238 -1.562 .091 -1.397 -.103 -1.163 C -.295 -.928 -.424 -.784 -.488 -.727 C -1.855 .463 -3.233 1.631 -4.623 2.779 C -4.844 2.96 -5.099 3.194 -5.394 3.483 C -5.691 3.773 -5.939 4.015 -6.145 4.212 C -6.35 4.41 -6.462 4.517 -6.485 4.536 L -6.509 4.981 C -6.494 5 -6.461 5.063 -6.415 5.167 C -6.368 5.272 -6.298 5.381 -6.205 5.497 C -6.159 5.555 -6.113 5.612 -6.066 5.67 C -5.521 6.261 -4.977 6.851 -4.431 7.441 "/>
</g>
</g>
</g>
</svg>
