<?xml version="1.0" encoding="UTF-8" standalone="no"?>
<!DOCTYPE svg PUBLIC "-//W3C//DTD SVG 1.1//EN" "http://www.w3.org/Graphics/SVG/1.1/DTD/svg11.dtd">
<svg xmlns="http://www.w3.org/2000/svg" xmlns:xlink="http://www.w3.org/1999/xlink" version="1.1" width="612.283pt" height="858.898pt" viewBox="0 0 612.283 858.898">
<g enable-background="new">
<g id="Layer-1" data-name="Layer 1">
<clipPath id="cp12">
<path transform="matrix(1,0,0,-1,0,858.898)" d="M 0 858.898 L 612.283 858.898 L 612.283 0 L 0 0 Z "/>
</clipPath>
<g clip-path="url(#cp12)">
<path transform="matrix(1,0,0,-1,287.8061,313.4389)" d="M 0 0 C 1.997 2.096 2.645 4.023 1.651 6.285 C .778 8.275 -.721 9.377 -3.322 9.373 C -2.196 6.196 -1.16 3.273 0 0 M 41.706 9.497 C 38.8 9.222 37.156 8.033 36.488 5.839 C 35.833 3.688 36.355 1.755 38.42 .172 C 39.511 3.269 40.54 6.189 41.706 9.497 M -45.505 -187.528 C -42.507 -188.476 -40.2 -187.57 -38.977 -185.05 C -37.871 -182.772 -38.446 -180.569 -40.565 -179.044 C -42.209 -181.867 -43.851 -184.686 -45.505 -187.528 M 78.684 -178.728 C 76.569 -181.344 76.271 -183.679 77.653 -185.697 C 79.06 -187.75 81.026 -188.357 83.815 -187.526 C 82.321 -184.889 80.842 -182.272 79.354 -179.66 C 79.202 -179.395 78.997 -179.161 78.684 -178.728 M -57.54 -177.944 C -54.736 -175.56 -52.188 -173.393 -49.629 -171.217 C -51.007 -169.966 -52.338 -168.757 -53.736 -167.487 C -55.765 -169.917 -57.941 -172.525 -60.268 -175.312 C -59.289 -176.257 -58.491 -177.026 -57.54 -177.944 M -11.271 7.61 C -10.61 4.073 -9.985 .729 -9.344 -2.706 C -7.445 -2.193 -5.763 -1.74 -3.986 -1.261 C -5.221 2.13 -6.384 5.322 -7.588 8.628 C -8.926 8.258 -10.059 7.945 -11.271 7.61 M 129.239 -106.229 C 125.669 -105.614 122.437 -105.057 118.967 -104.458 C 118.784 -106.334 118.609 -108.123 118.426 -110.008 L 128.992 -110.008 C 129.076 -108.719 129.153 -107.54 129.239 -106.229 M -72.298 -36.787 C -69.561 -39.072 -66.978 -41.227 -64.251 -43.502 C -63.173 -41.939 -62.136 -40.436 -61.094 -38.926 C -64.164 -37.105 -67.056 -35.391 -70.112 -33.58 C -70.835 -34.641 -71.539 -35.673 -72.298 -36.787 M 91.953 -167.348 C 90.488 -168.679 89.191 -169.857 87.808 -171.115 C 90.579 -173.444 93.191 -175.641 95.804 -177.837 C 96.856 -176.907 97.745 -176.123 98.657 -175.317 C 96.277 -172.488 94.12 -169.923 91.953 -167.348 M 118.981 -92.577 C 122.528 -91.959 125.818 -91.387 129.252 -90.789 C 129.156 -89.453 129.073 -88.291 128.991 -87.149 L 118.433 -87.149 C 118.623 -89.03 118.791 -90.694 118.981 -92.577 M -86.898 -128.94 C -83.296 -128.269 -80.021 -127.658 -76.618 -127.024 C -77.163 -125.118 -77.64 -123.453 -78.136 -121.717 C -81.549 -122.945 -84.697 -124.078 -88.005 -125.269 C -87.627 -126.522 -87.287 -127.648 -86.898 -128.94 M -72.568 -138.216 C -75.708 -140.013 -78.62 -141.68 -81.706 -143.446 C -81.132 -144.622 -80.585 -145.742 -80.019 -146.902 C -76.723 -145.675 -73.594 -144.51 -70.269 -143.271 C -71.037 -141.584 -71.756 -140.002 -72.568 -138.216 M 120.031 -143.437 C 116.888 -141.641 113.989 -139.984 110.928 -138.234 C 110.102 -140.012 109.37 -141.584 108.58 -143.281 C 111.944 -144.528 115.075 -145.689 118.36 -146.907 C 118.937 -145.711 119.451 -144.642 120.031 -143.437 M 110.711 -36.745 C 109.927 -35.693 109.146 -34.645 108.402 -33.648 C 105.28 -35.482 102.408 -37.169 99.402 -38.936 C 100.54 -40.531 101.554 -41.951 102.62 -43.447 C 105.355 -41.181 107.939 -39.041 110.711 -36.745 M -80.125 -87.128 L -90.689 -87.128 C -90.748 -88.457 -90.799 -89.623 -90.853 -90.831 C -87.344 -91.427 -84.059 -91.985 -80.623 -92.569 C -80.452 -90.708 -80.294 -88.976 -80.125 -87.128 M 102.604 -153.561 C 101.568 -155.039 100.533 -156.519 99.431 -158.093 C 102.527 -159.901 105.41 -161.586 108.445 -163.359 C 109.245 -162.272 109.977 -161.279 110.724 -160.266 C 107.997 -158.015 105.461 -155.92 102.604 -153.561 M 108.568 -53.79 C 109.356 -55.471 110.101 -57.06 110.904 -58.773 C 113.991 -57.027 116.915 -55.373 120.016 -53.619 C 119.45 -52.423 118.916 -51.295 118.349 -50.095 C 115.002 -51.359 111.859 -52.547 108.568 -53.79 M 114.964 -127.057 C 118.502 -127.699 121.798 -128.299 125.286 -128.933 C 125.664 -127.64 126.008 -126.46 126.354 -125.271 C 122.884 -124.026 119.731 -122.895 116.42 -121.707 C 115.907 -123.589 115.453 -125.258 114.964 -127.057 M -20.499 -6.794 C -22.306 -3.663 -24.009 -.71 -25.794 2.382 C -26.972 1.785 -28.016 1.254 -29.212 .647 C -27.984 -2.662 -26.823 -5.794 -25.589 -9.121 C -23.881 -8.34 -22.24 -7.59 -20.499 -6.794 M 74.162 -15.101 C 75.827 -16.244 77.313 -17.264 78.761 -18.259 C 80.598 -15.152 82.3 -12.274 84.074 -9.275 C 82.997 -8.497 81.982 -7.764 80.926 -7.001 C 78.661 -9.712 76.517 -12.282 74.162 -15.101 M -81.726 -53.591 C -78.567 -55.381 -75.613 -57.054 -72.541 -58.794 C -71.723 -57.013 -70.997 -55.437 -70.225 -53.756 C -73.633 -52.504 -76.825 -51.331 -80.087 -50.132 C -80.657 -51.334 -81.133 -52.339 -81.726 -53.591 M -78.076 -75.323 C -77.581 -73.433 -77.128 -71.705 -76.662 -69.927 C -79.29 -69.465 -81.597 -69.105 -83.884 -68.645 C -87.348 -67.949 -87.47 -68.025 -87.686 -71.897 C -84.611 -72.993 -81.508 -74.099 -78.076 -75.323 M 116.399 -75.343 C 119.854 -74.096 122.995 -72.961 126.331 -71.757 C 125.937 -70.446 125.585 -69.276 125.228 -68.088 C 121.693 -68.74 118.426 -69.343 115.011 -69.974 C 115.489 -71.824 115.924 -73.502 116.399 -75.343 M 63.906 -9.145 C 65.178 -5.708 66.339 -2.572 67.568 .748 C 66.328 1.303 65.203 1.806 64.072 2.312 C 62.265 -.848 60.603 -3.753 58.877 -6.769 C 60.564 -7.566 62.139 -8.31 63.906 -9.145 M -60.171 -21.858 C -57.896 -24.565 -55.713 -27.163 -53.612 -29.662 C -52.249 -28.283 -51.027 -27.047 -49.717 -25.721 C -52.211 -23.598 -54.804 -21.39 -57.515 -19.082 C -58.426 -20.034 -59.239 -20.885 -60.171 -21.858 M 45.921 8.613 C 44.693 5.27 43.546 2.143 42.31 -1.224 C 44.145 -1.735 45.862 -2.214 47.721 -2.731 C 48.367 .863 48.969 4.203 49.584 7.624 C 48.337 7.96 47.266 8.25 45.921 8.613 M -70.082 -163.419 C -66.998 -161.581 -64.126 -159.869 -61.099 -158.065 C -62.201 -156.509 -63.248 -155.031 -64.317 -153.522 C -67.043 -155.812 -69.612 -157.971 -72.313 -160.241 C -71.525 -161.363 -70.813 -162.378 -70.082 -163.419 M -42.626 -6.927 C -43.742 -7.812 -44.742 -8.604 -45.655 -9.328 C -43.806 -12.484 -42.154 -15.3 -40.419 -18.26 C -38.859 -17.17 -37.381 -16.136 -35.844 -15.061 C -38.134 -12.314 -40.328 -9.683 -42.626 -6.927 M 95.92 -19.055 C 93.087 -21.458 90.531 -23.627 88.234 -25.576 C 89.518 -26.977 90.738 -28.308 91.97 -29.651 C 94.157 -27.056 96.331 -24.476 98.641 -21.735 C 97.751 -20.858 96.895 -20.015 95.92 -19.055 M -80.097 -110.065 C -80.281 -108.081 -80.442 -106.352 -80.624 -104.396 C -84.118 -105.009 -87.395 -105.584 -90.77 -106.177 L -90.77 -110.065 Z M 127.299 -75.895 C 124.053 -77.083 121.24 -78.022 118.524 -79.188 C 118.01 -79.409 117.605 -80.554 117.663 -81.228 C 117.71 -81.77 118.514 -82.659 119.014 -82.682 C 122.042 -82.818 125.079 -82.75 128.448 -82.75 C 128.055 -80.403 127.718 -78.395 127.299 -75.895 M -90.131 -82.717 C -86.733 -82.717 -83.623 -82.773 -80.52 -82.654 C -80.076 -82.637 -79.386 -81.809 -79.313 -81.286 C -79.223 -80.647 -79.481 -79.502 -79.905 -79.323 C -82.754 -78.117 -85.687 -77.108 -88.919 -75.915 C -89.35 -78.335 -89.709 -80.348 -90.131 -82.717 M 94.283 -33.499 C 95.667 -34.095 96.985 -35.177 97.667 -34.866 C 100.482 -33.582 103.104 -31.876 105.985 -30.217 C 104.361 -28.305 102.996 -26.697 101.451 -24.879 C 99.012 -27.813 96.86 -30.4 94.283 -33.499 M 55.072 -4.933 C 56.689 -2.096 58.375 .86 60.192 4.049 C 57.846 4.891 55.908 5.586 53.688 6.382 C 53.167 3.628 52.787 1.166 52.219 -1.252 C 51.684 -3.528 52.299 -4.827 55.072 -4.933 M 71.318 -1.183 C 70.177 -4.363 69.06 -7.267 68.148 -10.234 C 68.011 -10.684 68.709 -11.621 69.254 -11.975 C 69.707 -12.271 70.806 -12.32 71.098 -12.001 C 73.195 -9.708 75.161 -7.294 77.374 -4.673 C 75.243 -3.445 73.468 -2.422 71.318 -1.183 M -49.093 -185.289 C -47.396 -182.352 -45.797 -179.756 -44.422 -177.047 C -44.186 -176.58 -44.72 -175.428 -45.234 -174.967 C -45.645 -174.6 -46.81 -174.487 -47.221 -174.805 C -49.631 -176.663 -51.919 -178.682 -54.454 -180.82 C -52.641 -182.332 -51.045 -183.662 -49.093 -185.289 M -66.504 -149.911 C -67.158 -148.871 -67.66 -148.073 -68.284 -147.081 C -71.541 -148.269 -74.717 -149.427 -78.16 -150.683 C -76.882 -152.874 -75.848 -154.646 -74.66 -156.682 C -71.816 -154.321 -69.19 -152.142 -66.504 -149.911 M 116.465 -150.696 C 113.775 -149.701 111.264 -148.93 108.892 -147.849 C 106.643 -146.823 105.644 -147.667 105.064 -150.074 C 107.573 -152.162 110.189 -154.341 113.031 -156.707 C 114.227 -154.615 115.244 -152.834 116.465 -150.696 M -16.167 -5.919 C -15.106 -4.521 -13.775 -3.563 -13.833 -2.699 C -14.029 .236 -14.717 3.137 -15.274 6.385 C -17.592 5.569 -19.585 4.867 -21.885 4.058 C -20.044 .845 -18.378 -2.062 -16.167 -5.919 M 124.17 -64.004 C 123.231 -61.565 122.501 -59.667 121.669 -57.505 C 118.423 -59.367 115.527 -61.028 112.536 -62.743 C 112.932 -63.851 113.248 -64.735 113.663 -65.897 C 117.107 -65.276 120.455 -64.674 124.17 -64.004 M -32.997 -1.114 C -35.179 -2.407 -36.941 -3.452 -39.03 -4.69 C -36.848 -7.267 -34.941 -9.621 -32.888 -11.839 C -32.553 -12.201 -31.381 -12.236 -30.932 -11.929 C -30.372 -11.547 -29.716 -10.521 -29.872 -10.005 C -30.746 -7.112 -31.852 -4.29 -32.997 -1.114 M 104.413 -47.501 C 105.688 -48.402 106.742 -49.696 107.405 -49.52 C 110.408 -48.721 113.3 -47.507 116.496 -46.346 C 115.258 -44.174 114.209 -42.334 113.036 -40.277 C 110.162 -42.685 107.575 -44.852 104.413 -47.501 M -83.362 -57.477 C -84.232 -59.842 -84.96 -61.817 -85.783 -64.053 C -82.452 -64.634 -79.547 -65.226 -76.612 -65.58 C -76.048 -65.647 -75.134 -64.909 -74.818 -64.311 C -74.561 -63.823 -74.714 -62.616 -75.098 -62.37 C -77.703 -60.695 -80.419 -59.19 -83.362 -57.477 M -75.322 -131.132 C -78.833 -131.762 -82.188 -132.365 -85.76 -133.007 C -84.901 -135.353 -84.189 -137.302 -83.37 -139.539 C -80.17 -137.71 -77.2 -136.012 -74.164 -134.277 C -74.594 -133.108 -74.919 -132.226 -75.322 -131.132 M 81.907 -21.27 C 83.234 -21.684 84.72 -22.636 85.301 -22.245 C 87.869 -20.516 90.179 -18.401 92.806 -16.241 C 90.882 -14.631 89.256 -13.271 87.425 -11.739 C 85.579 -14.927 83.896 -17.833 81.907 -21.27 M 92.794 -180.793 C 89.911 -178.394 87.278 -176.203 84.616 -173.987 C 83.664 -174.824 82.959 -175.445 82.112 -176.19 C 83.927 -179.266 85.661 -182.204 87.49 -185.304 C 89.398 -183.681 90.975 -182.341 92.794 -180.793 M -56.424 -32.849 C -58.554 -30.337 -60.76 -27.736 -63.131 -24.939 C -64.708 -26.795 -66.045 -28.368 -67.611 -30.212 C -65.206 -31.629 -62.944 -32.828 -60.829 -34.245 C -58.832 -35.582 -57.474 -35.3 -56.424 -32.849 M -58.504 -161.506 C -61.536 -163.265 -64.434 -164.945 -67.61 -166.788 C -66.057 -168.625 -64.688 -170.244 -63.112 -172.106 C -60.694 -169.222 -58.499 -166.602 -56.272 -163.946 C -57.06 -163.085 -57.652 -162.437 -58.504 -161.506 M -74.712 -40.318 C -75.945 -42.478 -76.964 -44.26 -78.13 -46.302 C -75.54 -47.28 -73.171 -48.206 -70.779 -49.071 C -67.925 -50.103 -67.917 -50.081 -66.756 -46.861 C -69.285 -44.781 -71.873 -42.653 -74.712 -40.318 M 129.429 -101.99 L 129.429 -95.044 C 126.167 -95.632 123.091 -96.13 120.054 -96.8 C 119.624 -96.895 119.106 -97.837 119.121 -98.374 C 119.139 -99.017 119.578 -100.106 120.019 -100.207 C 123.05 -100.904 126.13 -101.392 129.429 -101.99 M 128.475 -114.236 C 124.988 -114.236 122.026 -114.164 119.074 -114.305 C 118.559 -114.33 117.746 -115.216 117.683 -115.773 C 117.607 -116.44 118.009 -117.603 118.516 -117.82 C 121.286 -119.008 124.152 -119.972 127.276 -121.119 C 127.696 -118.706 128.047 -116.69 128.475 -114.236 M -43.751 -20.925 C -45.583 -17.789 -47.277 -14.889 -49.101 -11.769 C -50.988 -13.326 -52.614 -14.667 -54.459 -16.189 C -51.574 -18.626 -49.012 -20.792 -46.375 -23.019 C -45.483 -22.307 -44.744 -21.717 -43.751 -20.925 M -88.917 -121.106 C -85.919 -120.014 -83.295 -119.02 -80.643 -118.106 C -79.498 -117.713 -78.934 -117.228 -79.189 -115.843 C -79.445 -114.458 -80.174 -114.18 -81.364 -114.203 C -82.978 -114.235 -84.592 -114.16 -86.204 -114.185 C -90.161 -114.247 -90.16 -114.26 -89.475 -118.03 C -89.317 -118.891 -89.162 -119.751 -88.917 -121.106 M 124.14 -132.953 C 120.76 -132.384 117.773 -131.799 114.76 -131.453 C 114.242 -131.394 113.358 -132.252 113.104 -132.875 C 112.896 -133.384 113.157 -134.512 113.583 -134.784 C 116.146 -136.425 118.818 -137.899 121.654 -139.546 C 122.494 -137.318 123.225 -135.381 124.14 -132.953 M 96.757 -161.447 C 95.962 -162.434 95.368 -163.17 94.623 -164.094 C 96.94 -166.781 99.166 -169.362 101.545 -172.12 C 103.137 -170.194 104.451 -168.603 105.946 -166.795 C 102.789 -164.957 99.883 -163.267 96.757 -161.447 M -91.071 -95.027 L -91.071 -101.906 C -88.002 -101.462 -85.118 -101.175 -82.312 -100.548 C -81.607 -100.391 -80.823 -99.196 -80.694 -98.379 C -80.617 -97.89 -81.649 -96.846 -82.333 -96.682 C -85.133 -96.013 -87.989 -95.587 -91.071 -95.027 M -50.713 -51.587 C -54.245 -51.611 -57.271 -54.687 -57.274 -58.259 C -57.278 -61.956 -54.201 -64.938 -50.441 -64.881 C -46.819 -64.825 -43.835 -61.798 -43.896 -58.241 C -43.961 -54.458 -46.928 -51.562 -50.713 -51.587 M -60.14 -119.11 C -56.494 -119.15 -53.521 -116.255 -53.48 -112.624 C -53.436 -108.831 -56.328 -105.88 -60.12 -105.852 C -63.757 -105.825 -66.742 -108.738 -66.792 -112.362 C -66.845 -116.162 -63.979 -119.069 -60.14 -119.11 M 89.114 -64.903 C 92.636 -64.852 95.658 -61.727 95.622 -58.174 C 95.587 -54.566 92.572 -51.579 88.978 -51.588 C 85.211 -51.598 82.198 -54.605 82.236 -58.318 C 82.274 -62.027 85.336 -64.958 89.114 -64.903 M 19.059 -49.439 C 22.842 -49.472 25.887 -46.493 25.848 -42.795 C 25.81 -39.126 22.894 -36.168 19.286 -36.138 C 15.549 -36.107 12.475 -39.123 12.481 -42.815 C 12.487 -46.478 15.396 -49.407 19.059 -49.439 M -32.648 -30.161 C -36.382 -30.216 -39.401 -33.317 -39.292 -36.984 C -39.183 -40.649 -36.233 -43.481 -32.555 -43.455 C -28.787 -43.428 -25.799 -40.365 -25.916 -36.653 C -26.03 -33.021 -29.051 -30.108 -32.648 -30.161 M 25.842 -17.924 C 25.793 -14.191 22.738 -11.243 18.998 -11.321 C 15.394 -11.396 12.478 -14.4 12.493 -18.021 C 12.51 -21.733 15.563 -24.667 19.347 -24.604 C 22.992 -24.545 25.889 -21.565 25.842 -17.924 M -29.18 -77.318 C -25.439 -77.374 -22.444 -74.415 -22.42 -70.639 C -22.396 -66.967 -25.208 -64.103 -28.948 -63.99 C -32.585 -63.881 -35.608 -66.764 -35.691 -70.42 C -35.778 -74.259 -32.942 -77.263 -29.18 -77.318 M 105.097 -112.458 C 105.086 -108.745 102.173 -105.829 98.496 -105.852 C 94.668 -105.875 91.775 -108.841 91.845 -112.668 C 91.911 -116.323 94.882 -119.171 98.592 -119.136 C 102.319 -119.101 105.107 -116.238 105.097 -112.458 M 91.832 -84.607 C 91.849 -88.26 95.034 -91.351 98.683 -91.255 C 102.252 -91.161 105.174 -88.082 105.143 -84.446 C 105.111 -80.805 102.161 -77.864 98.52 -77.843 C 94.789 -77.823 91.814 -80.832 91.832 -84.607 M -29.827 -98.462 C -29.883 -94.74 -33.004 -91.735 -36.698 -91.846 C -40.349 -91.957 -43.228 -94.922 -43.225 -98.569 C -43.222 -102.261 -40.118 -105.249 -36.356 -105.18 C -32.78 -105.114 -29.774 -102.022 -29.827 -98.462 M -35.696 -126.111 C -35.839 -129.873 -32.982 -132.916 -29.19 -133.04 C -25.614 -133.158 -22.582 -130.269 -22.42 -126.589 C -22.254 -122.833 -25.145 -119.759 -28.926 -119.67 C -32.545 -119.586 -35.558 -122.451 -35.696 -126.111 M 67.347 -133.04 C 71.116 -133.051 74.063 -130.094 74.05 -126.311 C 74.037 -122.686 71.09 -119.697 67.484 -119.657 C 63.82 -119.616 60.714 -122.737 60.76 -126.413 C 60.807 -130.072 63.745 -133.029 67.347 -133.04 M 67.473 -77.322 C 71.119 -77.298 74.055 -74.35 74.056 -70.709 C 74.058 -67.055 71.09 -63.951 67.59 -63.948 C 63.784 -63.944 60.775 -66.869 60.761 -70.588 C 60.745 -74.363 63.719 -77.346 67.473 -77.322 M 53.679 -50.324 C 53.687 -46.582 50.61 -43.471 46.964 -43.535 C 43.361 -43.598 40.44 -46.565 40.396 -50.21 C 40.35 -53.967 43.333 -56.979 47.083 -56.961 C 50.692 -56.944 53.671 -53.946 53.679 -50.324 M -2.04 -50.245 C -2.062 -46.551 -5.215 -43.439 -8.838 -43.534 C -12.448 -43.629 -15.318 -46.634 -15.313 -50.312 C -15.308 -53.991 -12.43 -56.909 -8.774 -56.943 C -5.011 -56.978 -2.017 -54 -2.04 -50.245 M 70.992 -30.205 C 67.174 -30.214 64.214 -33.156 64.257 -36.897 C 64.298 -40.515 67.281 -43.466 70.906 -43.477 C 74.666 -43.487 77.592 -40.552 77.645 -36.717 C 77.693 -33.192 74.632 -30.196 70.992 -30.205 M -8.313 -16.186 C -12.075 -16.169 -15.083 -19.153 -15.074 -22.894 C -15.065 -26.451 -11.965 -29.56 -8.438 -29.547 C -4.756 -29.534 -1.638 -26.426 -1.643 -22.775 C -1.647 -19.236 -4.719 -16.202 -8.313 -16.186 M 46.796 -16.179 C 43.147 -16.16 40.085 -19.085 40.036 -22.635 C 39.984 -26.415 42.93 -29.462 46.656 -29.485 C 50.396 -29.509 53.44 -26.483 53.413 -22.77 C 53.387 -19.161 50.411 -16.197 46.796 -16.179 M 88.9 -145.476 C 92.44 -145.526 95.485 -142.556 95.608 -138.93 C 95.732 -135.307 92.632 -132.127 88.951 -132.102 C 85.419 -132.078 82.318 -135.094 82.231 -138.641 C 82.141 -142.303 85.184 -145.421 88.9 -145.476 M -53.481 -84.432 C -53.493 -80.899 -56.641 -77.684 -60.101 -77.667 C -63.37 -77.652 -66.805 -80.932 -66.839 -84.103 C -66.882 -88.037 -63.924 -91.219 -60.2 -91.246 C -56.521 -91.272 -53.469 -88.176 -53.481 -84.432 M -32.857 -166.899 C -29.297 -167.061 -26.133 -164.184 -25.916 -160.588 C -25.692 -156.88 -28.547 -153.756 -32.342 -153.554 C -36.028 -153.358 -39.191 -156.326 -39.285 -160.069 C -39.375 -163.638 -36.459 -166.735 -32.857 -166.899 M 71.047 -166.902 C 74.848 -166.838 77.776 -163.797 77.647 -160.05 C 77.521 -156.383 74.26 -153.34 70.617 -153.488 C 67.16 -153.629 64.262 -156.68 64.262 -160.177 C 64.262 -163.915 67.339 -166.965 71.047 -166.902 M -50.671 -145.48 C -46.725 -145.363 -43.737 -142.307 -43.864 -138.516 C -43.982 -134.998 -47.166 -132.023 -50.723 -132.108 C -54.393 -132.196 -57.446 -135.443 -57.263 -139.065 C -57.086 -142.567 -53.992 -145.578 -50.671 -145.48 M 68.176 -98.442 C 68.095 -102.475 71.001 -105.302 75.277 -105.352 C 78.481 -105.388 81.507 -102.075 81.67 -98.348 C 81.819 -94.957 78.645 -91.885 74.939 -91.833 C 70.935 -91.779 68.258 -94.394 68.176 -98.442 M -141.149 -98.487 C -130.809 -102.307 -120.1 -102.641 -109.292 -102.881 L -109.292 -94.197 C -120.227 -94.258 -130.862 -94.828 -141.149 -98.487 M 144.724 -125.049 C 155.574 -126.82 166.211 -128.277 177.066 -126.356 C 167.539 -120.772 156.99 -118.641 146.235 -116.487 C 145.721 -119.401 145.251 -122.061 144.724 -125.049 M 158.039 -178.698 C 150.902 -170.224 141.81 -164.478 132.434 -158.869 C 130.904 -161.527 129.55 -163.882 128.099 -166.404 C 137.619 -171.775 147.175 -176.753 158.039 -178.698 M 120.115 -19.277 C 128.835 -12.994 141.683 1.22 141.793 4.616 C 136.742 3.689 119.701 -7.376 114.79 -12.964 C 116.526 -15.023 118.277 -17.099 120.115 -19.277 M -94.099 -158.859 C -103.554 -164.634 -112.707 -170.233 -119.715 -178.718 C -108.828 -176.784 -99.3 -171.733 -89.722 -166.403 C -91.199 -163.856 -92.564 -161.505 -94.099 -158.859 M -103.647 4.534 C -98.12 -5.003 -90.152 -12.218 -81.876 -19.42 C -79.955 -17.13 -78.173 -15.007 -76.256 -12.722 C -84.825 -5.842 -93.286 .762 -103.647 4.534 M 98.239 -199.58 C 105.572 -207.866 112.685 -215.883 122.227 -221.324 C 118.463 -210.926 111.815 -202.447 104.937 -193.937 C 102.664 -195.853 100.594 -197.596 98.239 -199.58 M -83.867 -221.308 C -74.314 -215.822 -67.113 -207.826 -59.914 -199.535 C -62.249 -197.592 -64.38 -195.818 -66.608 -193.963 C -73.555 -202.526 -80.101 -210.965 -83.867 -221.308 M -131.403 -43.708 C -122.971 -50.798 -113.049 -54.823 -102.857 -58.714 C -101.817 -55.851 -100.894 -53.31 -99.885 -50.535 C -110.241 -46.978 -120.422 -43.706 -131.403 -43.708 M 179.442 -98.492 C 169.052 -94.846 158.384 -94.201 147.594 -94.239 L 147.594 -102.891 C 158.485 -102.66 169.17 -102.307 179.442 -98.492 M -107.958 -116.528 C -118.688 -118.6 -129.19 -120.822 -139.431 -126.273 C -138.419 -126.667 -138.155 -126.824 -137.874 -126.869 C -137.002 -127.01 -136.127 -127.156 -135.247 -127.216 C -125.952 -127.846 -116.771 -126.72 -107.619 -125.304 C -107.149 -125.231 -106.419 -124.207 -106.489 -123.726 C -106.838 -121.374 -107.418 -119.057 -107.958 -116.528 M 158.023 -18.381 C 147.106 -20.174 137.649 -25.351 128.046 -30.611 C 129.585 -33.252 130.977 -35.641 132.446 -38.164 C 141.852 -32.514 150.908 -26.785 158.023 -18.381 M -89.666 -30.595 C -99.407 -25.331 -108.831 -20.176 -119.681 -18.346 C -112.601 -26.838 -103.46 -32.534 -94.107 -38.124 C -92.592 -35.554 -91.209 -33.21 -89.666 -30.595 M 141.213 -138.319 C 140.182 -141.161 139.239 -143.757 138.304 -146.33 C 148.32 -150.814 166.819 -154.788 170.104 -152.99 C 161.341 -146.26 151.441 -142.186 141.213 -138.319 M -131.487 -153.344 C -120.496 -153.332 -110.267 -150.072 -99.884 -146.488 C -100.913 -143.65 -101.856 -141.05 -102.86 -138.282 C -113.123 -142.236 -123.042 -146.281 -131.487 -153.344 M -60.084 2.406 C -65.85 10.699 -80.252 23.768 -84.318 24.198 C -80.083 13.941 -73.553 5.435 -66.589 -3.036 C -64.353 -1.166 -62.273 .574 -60.084 2.406 M 99.386 40.958 C 90.858 33.208 85.119 24.099 79.527 14.735 C 82.176 13.218 84.529 11.871 86.864 10.533 C 91.348 16.782 99.841 35.503 99.386 40.958 M -20.593 23.521 C -24.589 33.776 -28.552 43.762 -35.71 52.104 C -35.547 41.054 -32.435 30.776 -28.751 20.519 C -25.897 21.569 -23.411 22.484 -20.593 23.521 M 169.799 -43.676 C 158.743 -43.669 148.507 -46.938 138.207 -50.61 C 139.285 -53.495 140.229 -56.023 141.238 -58.726 C 151.507 -54.734 161.461 -50.801 169.799 -43.676 M 146.246 -80.501 C 157.098 -78.458 167.557 -76.188 177.403 -70.954 C 173.316 -68.661 149.931 -69.85 144.784 -72.397 C 145.25 -74.98 145.718 -77.576 146.246 -80.501 M 67.107 20.521 C 70.735 30.817 73.981 41.051 73.995 52.075 C 66.778 43.729 62.908 33.719 58.951 23.528 C 61.737 22.501 64.283 21.562 67.107 20.521 M 19.187 61.833 C 15.33 51.51 15.039 40.767 14.82 29.892 L 23.542 29.892 C 23.277 40.808 22.981 51.517 19.187 61.833 M 122.329 24.192 C 116.898 22.271 102.715 9.048 98.459 2.366 C 100.555 .609 102.673 -1.166 104.967 -3.089 C 111.851 5.484 118.474 13.964 122.329 24.192 M 1.201 28.547 C -.933 39.345 -3.138 49.884 -8.46 59.89 C -10.622 55.233 -9.466 32.858 -6.989 27.131 C -4.42 27.575 -1.817 28.025 1.201 28.547 M -81.848 -177.629 C -90.193 -184.783 -98.194 -191.999 -103.661 -201.612 C -93.327 -197.747 -84.742 -191.258 -76.292 -184.261 C -78.19 -181.994 -79.979 -179.859 -81.848 -177.629 M -106.372 -71.983 C -117.133 -70.234 -127.778 -68.715 -138.677 -70.69 C -129.139 -76.192 -118.656 -78.481 -107.899 -80.47 C -107.393 -77.652 -106.938 -75.131 -106.372 -71.983 M -61.307 41.2 C -61.095 34.963 -52.046 14.088 -48.373 10.585 C -46.032 11.94 -43.689 13.297 -41.184 14.748 C -46.905 24.258 -52.617 33.423 -61.307 41.2 M 46.847 59.869 C 41.429 49.907 39.291 39.36 37.167 28.613 C 40.092 28.044 42.802 27.518 45.495 26.995 C 48.013 35.919 48.919 55.056 46.847 59.869 M 114.604 -184.282 C 123.231 -191.25 131.695 -197.894 142.071 -201.591 C 136.434 -192.061 128.509 -184.745 120.198 -177.618 C 118.299 -179.881 116.546 -181.969 114.604 -184.282 M 51.188 -223.635 C 20.892 -233.094 -13.697 -223.215 -13.697 -223.215 C -18.158 -221.354 -22.776 -219.874 -27.278 -218.105 C -36.851 -214.346 -45.892 -209.574 -54.302 -203.635 C -55.015 -203.132 -55.735 -202.64 -56.265 -202.272 C -61.285 -207.378 -66.012 -212.453 -71.049 -217.2 C -73.785 -219.778 -76.998 -221.871 -80.105 -224.025 C -81.127 -224.735 -82.46 -225.094 -83.705 -225.365 C -86.01 -225.869 -87.95 -224.542 -87.798 -222.219 C -87.649 -219.939 -87.125 -217.557 -86.19 -215.479 C -82.482 -207.243 -76.961 -200.167 -71.377 -193.151 C -70.881 -192.527 -70.375 -191.911 -69.74 -191.126 C -71.127 -190.074 -72.457 -189.066 -73.827 -188.028 C -78.574 -191.465 -83.679 -195.555 -89.181 -199.01 C -93.231 -201.554 -97.721 -203.48 -102.193 -205.22 C -103.506 -205.73 -105.989 -205.173 -106.91 -204.166 C -107.731 -203.268 -107.741 -200.73 -107.053 -199.517 C -105.04 -195.968 -102.831 -192.416 -100.093 -189.419 C -95.259 -184.128 -89.977 -179.246 -84.615 -173.929 C -85.352 -172.875 -86.295 -171.525 -87.34 -170.03 C -90.983 -171.923 -94.448 -173.982 -98.118 -175.567 C -103.585 -177.927 -109.165 -180.039 -114.768 -182.061 C -116.312 -182.617 -118.112 -182.672 -119.785 -182.622 C -123.476 -182.511 -124.952 -180.09 -123.161 -176.909 C -122.07 -174.972 -120.754 -172.936 -119.025 -171.62 C -112.172 -166.399 -105.119 -161.44 -98.131 -156.398 C -97.489 -155.935 -96.781 -155.562 -96.014 -155.093 C -96.743 -153.495 -97.406 -152.042 -98.124 -150.471 C -102.723 -151.883 -107.193 -153.481 -111.781 -154.604 C -116.784 -155.828 -121.878 -156.717 -126.969 -157.525 C -128.674 -157.797 -130.521 -157.546 -132.249 -157.231 C -135.796 -156.586 -136.949 -153.82 -134.662 -151.037 C -133.102 -149.14 -131.217 -147.246 -129.07 -146.14 C -121.56 -142.269 -113.874 -138.737 -106.251 -135.085 C -105.612 -134.779 -104.942 -134.538 -104.13 -134.203 C -104.555 -132.529 -104.944 -130.991 -105.374 -129.295 C -109.65 -129.843 -113.77 -130.625 -117.918 -130.842 C -123.944 -131.156 -129.992 -131.132 -136.029 -131.092 C -137.438 -131.083 -138.908 -130.596 -140.234 -130.048 C -143.644 -128.639 -144.091 -126.022 -141.394 -123.471 C -137.753 -120.028 -133.087 -118.527 -128.458 -117.178 C -122.734 -115.51 -116.927 -114.083 -111.086 -112.897 C -108.794 -112.432 -108.041 -111.656 -108.625 -109.463 C -108.807 -108.781 -108.793 -108.047 -108.88 -107.235 C -113.634 -106.982 -118.318 -106.948 -122.949 -106.432 C -128.147 -105.853 -133.321 -104.958 -138.456 -103.949 C -140.219 -103.602 -141.958 -102.686 -143.487 -101.692 C -146.325 -99.848 -146.369 -96.974 -143.441 -95.325 C -141.089 -94.001 -138.458 -92.784 -135.825 -92.42 C -128.244 -91.373 -120.602 -90.763 -112.979 -90.027 C -111.707 -89.904 -110.414 -90.01 -108.856 -90.01 C -108.699 -88.202 -108.558 -86.567 -108.416 -84.94 C -114.385 -83.489 -120.254 -82.368 -125.918 -80.59 C -130.651 -79.104 -135.165 -76.899 -139.724 -74.894 C -140.635 -74.494 -141.428 -73.655 -142.076 -72.856 C -143.802 -70.734 -143.515 -68.637 -141.037 -67.491 C -139.031 -66.563 -136.769 -65.944 -134.567 -65.729 C -125.819 -64.875 -117.169 -66.046 -108.542 -67.381 C -107.597 -67.527 -106.645 -67.625 -105.498 -67.77 C -105.022 -66.155 -104.575 -64.639 -104.058 -62.88 C -106.418 -61.904 -108.746 -61.068 -110.964 -60 C -116.841 -57.169 -122.735 -54.362 -128.481 -51.282 C -130.567 -50.163 -132.487 -48.499 -134.033 -46.697 C -135.008 -45.562 -135.885 -43.442 -135.453 -42.257 C -135.018 -41.059 -132.944 -39.811 -131.531 -39.742 C -127.939 -39.566 -124.216 -39.581 -120.727 -40.347 C -114.28 -41.763 -107.962 -43.764 -101.595 -45.538 C -100.517 -45.838 -99.462 -46.221 -98.235 -46.618 C -97.469 -45.041 -96.746 -43.554 -96.082 -42.187 C -101.726 -38.355 -107.321 -34.831 -112.596 -30.877 C -115.925 -28.38 -118.895 -25.358 -121.789 -22.344 C -123.336 -20.733 -124.773 -18.546 -123.442 -16.222 C -122.052 -13.796 -119.406 -14.11 -117.106 -14.487 C -109.185 -15.783 -102.125 -19.404 -95.06 -22.961 C -92.544 -24.228 -90.087 -25.609 -87.387 -27.053 C -86.407 -25.66 -85.453 -24.305 -84.504 -22.957 C -88.644 -19.037 -92.868 -15.396 -96.653 -11.345 C -100.051 -7.709 -103.125 -3.736 -106.026 .314 C -107.435 2.28 -108.871 4.896 -107.002 7.244 C -105.11 9.621 -102.184 8.831 -100.068 7.71 C -94.175 4.588 -88.409 1.198 -82.775 -2.375 C -79.52 -4.44 -76.618 -7.063 -73.388 -9.565 C -72.14 -8.305 -71.019 -7.173 -69.814 -5.957 C -72.376 -2.604 -75.095 .588 -77.396 4.056 C -80.512 8.75 -83.439 13.583 -86.172 18.51 C -87.154 20.28 -87.607 22.465 -87.819 24.511 C -88.119 27.402 -86.221 29.034 -83.43 28.227 C -81.303 27.612 -79.183 26.607 -77.368 25.335 C -69.842 20.06 -63.708 13.299 -57.72 6.404 C -57.357 5.987 -56.968 5.593 -56.486 5.077 C -55.064 6.084 -53.705 7.047 -52.423 7.956 C -55.064 13.274 -57.885 18.277 -60.068 23.545 C -62.062 28.356 -63.592 33.397 -64.838 38.458 C -65.224 40.023 -64.529 42.512 -63.396 43.63 C -61.9 45.105 -59.455 44.575 -57.88 43.099 C -54.832 40.243 -51.659 37.419 -49.142 34.122 C -44.943 28.623 -41.221 22.761 -37.116 16.789 C -35.841 17.384 -34.349 18.081 -32.855 18.778 C -34.528 24.45 -36.427 29.939 -37.723 35.567 C -38.821 40.335 -39.402 45.247 -39.856 50.128 C -40.077 52.499 -39.795 55.361 -37.041 56.264 C -34.34 57.148 -32.532 55.015 -30.971 53.15 C -25.766 46.939 -22.66 39.559 -19.518 32.212 C -18.505 29.846 -17.62 27.425 -16.577 24.778 C -14.941 25.188 -13.344 25.588 -11.679 26.005 C -12.31 31.358 -13.184 36.532 -13.457 41.738 C -13.732 46.955 -13.594 52.213 -13.268 57.431 C -13.104 60.04 -12.475 63.152 -9.285 63.663 C -6.214 64.155 -4.587 61.409 -3.683 59.121 C -1.173 52.77 1.028 46.285 3.082 39.769 C 4.141 36.408 4.628 32.867 5.438 29.104 C 7.084 29.224 8.715 29.344 10.396 29.467 C 10.739 35.166 10.861 40.654 11.462 46.089 C 11.964 50.642 12.871 55.168 13.912 59.634 C 14.336 61.453 15.405 63.206 16.505 64.76 C 17.912 66.749 20.148 66.904 21.616 64.962 C 22.942 63.207 24.01 61.107 24.631 58.994 C 27.155 50.394 27.448 41.5 27.675 32.616 C 27.753 29.547 29.148 28.401 32.161 29.22 C 32.67 29.358 33.116 30.329 33.295 30.994 C 35.235 38.235 36.946 45.543 39.096 52.72 C 39.959 55.601 41.612 58.287 43.168 60.905 C 44.153 62.564 45.614 64.094 47.88 63.655 C 50.04 63.236 50.658 61.311 51.155 59.527 C 51.628 57.827 52.147 56.03 52.064 54.303 C 51.718 47.07 51.181 39.844 50.646 32.621 C 50.517 30.868 50.043 29.14 49.921 27.387 C 49.886 26.881 50.409 26.049 50.879 25.854 C 52.056 25.366 53.349 25.156 54.792 24.784 C 56.024 27.667 57.098 30.601 58.499 33.368 C 61.649 39.59 64.792 45.831 68.314 51.843 C 69.36 53.628 71.491 55.022 73.43 55.978 C 75.555 57.025 77.066 55.882 77.694 53.549 C 78.983 48.764 78.128 44.051 76.969 39.444 C 75.396 33.193 73.457 27.034 71.673 20.836 C 71.498 20.227 71.313 19.621 71.1 18.9 C 72.603 18.162 74.033 17.46 75.64 16.671 C 78.088 20.482 80.333 24.393 82.987 28.002 C 86.18 32.344 89.605 36.532 93.171 40.574 C 94.512 42.094 96.399 43.295 98.264 44.15 C 100.83 45.327 102.996 44.147 103.101 41.36 C 103.205 38.599 103.066 35.586 102.061 33.073 C 99.161 25.824 95.783 18.764 92.56 11.646 C 92.033 10.482 91.34 9.395 90.622 8.089 C 92.076 7.05 93.427 6.084 94.562 5.274 C 99.972 10.702 105.142 16.127 110.593 21.252 C 113.035 23.547 115.984 25.331 118.825 27.157 C 119.859 27.822 121.225 28.122 122.477 28.266 C 124.83 28.539 126.368 27.301 126.166 24.958 C 125.977 22.755 125.608 20.32 124.494 18.489 C 120.354 11.684 115.897 5.069 111.503 -1.58 C 110.528 -3.055 109.323 -4.376 108.027 -6.018 C 109.372 -7.046 110.693 -8.055 112.154 -9.172 C 115.527 -6.622 119.187 -3.581 123.123 -.954 C 127.406 1.905 131.861 4.542 136.416 6.945 C 138.268 7.921 140.56 8.295 142.687 8.451 C 145.079 8.626 146.509 6.876 146.003 4.518 C 145.639 2.821 144.951 1.102 144.027 -.369 C 139.028 -8.333 132.056 -14.492 125.135 -20.687 C 124.363 -21.377 123.586 -22.062 122.739 -22.814 C 123.75 -24.256 124.669 -25.567 125.658 -26.979 C 129.88 -24.818 133.909 -22.437 138.186 -20.644 C 143.593 -18.375 149.15 -16.422 154.746 -14.664 C 157.164 -13.904 160.196 -13.516 161.765 -16.215 C 163.279 -18.821 161.308 -21.028 159.717 -22.925 C 154.723 -28.88 148.257 -33.056 141.86 -37.288 C 139.451 -38.881 136.948 -40.333 134.312 -41.958 C 135.062 -43.515 135.75 -44.944 136.558 -46.624 C 139.181 -45.761 141.704 -44.724 144.327 -44.11 C 151.38 -42.462 158.451 -40.871 165.568 -39.541 C 167.458 -39.188 169.61 -39.599 171.516 -40.124 C 174.219 -40.868 175.183 -43.273 173.361 -45.361 C 171.173 -47.869 168.653 -50.385 165.76 -51.92 C 158.935 -55.54 151.804 -58.583 144.791 -61.848 C 144.078 -62.18 143.327 -62.433 142.444 -62.782 C 142.888 -64.462 143.294 -65.999 143.743 -67.703 C 148.457 -67.114 153.062 -66.239 157.696 -66.036 C 163.637 -65.777 169.606 -65.916 175.551 -66.176 C 177.95 -66.28 180.694 -67.024 181.304 -69.781 C 181.963 -72.768 179.481 -74.483 177.24 -75.396 C 171.215 -77.85 165.077 -80.063 158.877 -82.04 C 155.052 -83.259 151.032 -83.868 146.786 -84.822 C 146.899 -86.393 147.017 -88.027 147.146 -89.822 C 151.068 -89.995 154.86 -89.953 158.599 -90.374 C 164.521 -91.041 170.437 -91.864 176.294 -92.948 C 178.361 -93.331 180.405 -94.44 182.184 -95.631 C 184.597 -97.246 184.72 -100.092 182.169 -101.319 C 178.453 -103.105 174.447 -104.682 170.404 -105.303 C 163.805 -106.316 157.077 -106.497 150.401 -107.002 C 149.376 -107.08 148.34 -107.013 147.373 -107.013 C 146.36 -112.263 146.415 -112.045 151.087 -113.206 C 158.12 -114.953 165.115 -116.894 172.029 -119.062 C 174.516 -119.842 176.899 -121.285 178.981 -122.879 C 180.161 -123.782 181.407 -125.727 181.212 -126.981 C 181.017 -128.233 179.225 -129.795 177.84 -130.187 C 174.931 -131.014 171.804 -131.648 168.812 -131.496 C 161.247 -131.108 153.707 -130.246 146.158 -129.564 C 145.448 -129.5 144.744 -129.37 143.779 -129.234 C 143.334 -130.927 142.913 -132.521 142.507 -134.064 C 148.091 -136.506 153.528 -138.737 158.828 -141.257 C 162.021 -142.775 165.089 -144.611 168.046 -146.557 C 169.837 -147.735 171.528 -149.22 172.878 -150.881 C 175.299 -153.861 174.326 -156.7 170.546 -157.173 C 167.319 -157.576 163.876 -157.645 160.726 -156.958 C 153.651 -155.415 146.698 -153.318 139.701 -151.427 C 138.702 -151.156 137.732 -150.775 136.576 -150.389 C 135.818 -151.966 135.101 -153.461 134.473 -154.767 C 140.557 -158.975 146.59 -162.868 152.288 -167.202 C 155.396 -169.566 158.038 -172.586 160.687 -175.494 C 161.99 -176.925 162.957 -178.876 161.833 -180.838 C 160.649 -182.901 158.379 -183.025 156.429 -182.573 C 152.285 -181.614 148.066 -180.674 144.168 -179.038 C 137.938 -176.427 131.945 -173.255 125.571 -170.184 C 124.748 -171.354 123.798 -172.705 122.829 -174.083 C 126.794 -177.812 130.83 -181.286 134.476 -185.131 C 137.849 -188.687 140.867 -192.591 143.903 -196.451 C 144.773 -197.558 145.306 -198.999 145.741 -200.367 C 146.886 -203.953 144.994 -206.186 141.269 -205.437 C 138.927 -204.967 136.448 -204.323 134.468 -203.068 C 127.937 -198.932 121.594 -194.497 115.205 -190.138 C 114.021 -189.33 112.959 -188.341 111.867 -187.456 C 110.566 -188.722 109.429 -189.83 108.137 -191.088 C 110.277 -193.861 112.617 -196.52 114.533 -199.456 C 118.097 -204.915 121.499 -210.484 124.772 -216.122 C 125.629 -217.598 126.001 -219.469 126.18 -221.201 C 126.518 -224.485 124.461 -226.278 121.396 -225.13 C 118.723 -224.127 115.923 -222.847 113.859 -220.949 C 107.811 -215.39 102.1 -209.464 96.264 -203.675 C 95.811 -203.225 95.412 -202.72 95.041 -202.299 C 89.95 -205.404 85.13 -208.857 79.876 -211.425 C 72.719 -214.922 65.233 -217.748 57.884 -220.852 C 55.657 -221.792 53.376 -222.613 51.188 -223.635 "/>
<path transform="matrix(1,0,0,-1,185.1528,412.4291)" d="M 0 0 C 0 67.127 54.418 121.545 121.545 121.545 C 188.672 121.545 243.09 67.127 243.09 0 C 243.09 -67.127 188.672 -121.545 121.545 -121.545 C 54.418 -121.545 0 -67.127 0 0 " fill="#ffffff"/>
<path transform="matrix(1,0,0,-1,185.1528,412.4291)" stroke-width="7.744" stroke-linecap="butt" stroke-miterlimit="10" stroke-linejoin="miter" fill="none" stroke="#1c1b1a" d="M 0 0 C 0 67.127 54.418 121.545 121.545 121.545 C 188.672 121.545 243.09 67.127 243.09 0 C 243.09 -67.127 188.672 -121.545 121.545 -121.545 C 54.418 -121.545 0 -67.127 0 0 Z "/>
</g>
<text fill="#1c1b1a" xml:space="preserve" transform="matrix(1 0 -0 1 0 858.898)" font-size="35" font-family="ProdushRegular"><tspan y="-255.8574" x="209.7871 226.3071 244.61209 261.13209 279.12208 293.96208 313.49208 324.62208 340.58207 351.43208 370.96208 388.70707">COCKTAIL ART</tspan></text>
<clipPath id="cp13">
<path transform="matrix(1,0,0,-1,0,858.898)" d="M 0 858.898 L 612.283 858.898 L 612.283 0 L 0 0 Z "/>
</clipPath>
<g clip-path="url(#cp13)">
<path transform="matrix(1,0,0,-1,222.3208,590.2564)" stroke-width="1" stroke-linecap="butt" stroke-miterlimit="10" stroke-linejoin="miter" fill="none" stroke="#ffffff" d="M 0 0 L 0 4.016 L -12.043 4.016 L -10.656 2.586 L -10.656 -11.354 L -12.043 -12.784 L 0 -12.784 L 0 -6.901 L -3.722 -7.89 L -3.722 -8.947 L -6.818 -8.947 L -6.818 .168 L -3.722 .168 L -3.722 -.999 Z "/>
<path transform="matrix(1,0,0,-1,240.5903,586.23)" stroke-width="1" stroke-linecap="butt" stroke-miterlimit="10" stroke-linejoin="miter" fill="none" stroke="#ffffff" d="M 0 0 L -13.793 0 L -12.405 -1.43 L -12.405 -15.401 L -13.793 -16.821 L 0 -16.821 L -1.388 -15.401 L -1.388 -1.43 Z M -8.568 -3.848 L -5.235 -3.848 L -5.235 -12.983 L -8.568 -12.983 Z "/>
<path transform="matrix(1,0,0,-1,257.1455,590.2564)" stroke-width="1" stroke-linecap="butt" stroke-miterlimit="10" stroke-linejoin="miter" fill="none" stroke="#ffffff" d="M 0 0 L 0 4.016 L -12.043 4.016 L -10.656 2.586 L -10.656 -11.354 L -12.043 -12.784 L 0 -12.784 L 0 -6.901 L -3.722 -7.89 L -3.722 -8.947 L -6.818 -8.947 L -6.818 .168 L -3.722 .168 L -3.722 -.999 Z "/>
<path transform="matrix(1,0,0,-1,261.6216,586.23)" stroke-width="1" stroke-linecap="butt" stroke-miterlimit="10" stroke-linejoin="miter" fill="none" stroke="#ffffff" d="M 0 0 L 1.398 -1.43 L 1.398 -15.401 L 0 -16.821 L 5.235 -16.811 L 5.235 -10.576 L 6.833 -10.188 L 8.463 -16.821 L 13.488 -16.821 L 12.09 -15.401 L 10.565 -9.188 L 11.89 -8.853 L 11.89 -1.43 L 13.278 0 L 8.053 0 L 8.053 -6.024 L 5.235 -6.528 L 5.235 0 Z "/>
<path transform="matrix(1,0,0,-1,279.6113,586.23)" stroke-width="1" stroke-linecap="butt" stroke-miterlimit="10" stroke-linejoin="miter" fill="none" stroke="#ffffff" d="M 0 0 L 0 -5.235 L 1.419 -3.848 L 4.479 -3.848 L 4.479 -15.381 L 3.091 -16.8 L 9.714 -16.8 L 8.326 -15.381 L 8.326 -3.848 L 11.375 -3.848 L 12.805 -5.235 L 12.805 0 Z "/>
<path transform="matrix(1,0,0,-1,305.332,586.23)" stroke-width="1" stroke-linecap="butt" stroke-miterlimit="10" stroke-linejoin="miter" fill="none" stroke="#ffffff" d="M 0 0 L -6.76 0 L -5.667 -1.125 L -9.493 -15.392 L -10.881 -16.811 L -5.782 -16.811 L -5.425 -15.076 L -1.608 -14.056 L -.883 -16.811 L 4.142 -16.811 L 2.733 -15.392 L -1.093 -1.125 Z M -4.321 -10.934 L -3.375 -7.433 L -2.565 -10.471 Z "/>
<path transform="matrix(1,0,0,-1,313.981,586.23)" stroke-width="1" stroke-linecap="butt" stroke-miterlimit="10" stroke-linejoin="miter" fill="none" stroke="#ffffff" d="M 0 0 L 1.388 -1.43 L 1.388 -15.392 L 0 -16.811 L 6.623 -16.811 L 5.235 -15.392 L 5.235 -1.43 L 6.623 0 Z "/>
<path transform="matrix(1,0,0,-1,335.1631,599.1919)" stroke-width="1" stroke-linecap="butt" stroke-miterlimit="10" stroke-linejoin="miter" fill="none" stroke="#ffffff" d="M 0 0 L -.034 -.001 L -4.817 -.001 L -4.817 11.532 L -3.429 12.962 L -10.052 12.962 L -8.665 11.532 L -8.665 -2.43 L -10.052 -3.849 L 1.417 -3.849 L 1.417 1.386 Z "/>
<path transform="matrix(1,0,0,-1,362.8008,586.23)" stroke-width="1" stroke-linecap="butt" stroke-miterlimit="10" stroke-linejoin="miter" fill="none" stroke="#ffffff" d="M 0 0 L -6.76 0 L -5.667 -1.125 L -9.493 -15.392 L -10.881 -16.811 L -5.782 -16.811 L -5.425 -15.076 L -1.608 -14.056 L -.883 -16.811 L 4.142 -16.811 L 2.733 -15.392 L -1.093 -1.125 Z M -4.321 -10.934 L -3.375 -7.433 L -2.565 -10.471 Z "/>
<path transform="matrix(1,0,0,-1,383.2891,601.6109)" stroke-width="1" stroke-linecap="butt" stroke-miterlimit="10" stroke-linejoin="miter" fill="none" stroke="#ffffff" d="M 0 0 L -1.579 4.311 L .051 4.752 L .051 13.951 L 1.438 15.381 L -11.839 15.381 L -10.452 13.951 L -10.452 -.011 L -11.839 -1.43 L -6.604 -1.43 L -6.604 3.207 L -5.3 3.501 L -3.45 -1.43 L 1.388 -1.43 L 0 0 Z M -3.797 7.559 C -4.438 7.391 -5.963 7.223 -6.604 7.044 L -6.604 11.533 L -3.797 11.533 Z "/>
<path transform="matrix(1,0,0,-1,389.1943,586.23)" stroke-width="1" stroke-linecap="butt" stroke-miterlimit="10" stroke-linejoin="miter" fill="none" stroke="#ffffff" d="M 0 0 L 0 -5.235 L 1.419 -3.848 L 4.479 -3.848 L 4.479 -15.381 L 3.091 -16.8 L 9.714 -16.8 L 8.326 -15.381 L 8.326 -3.848 L 11.375 -3.848 L 12.805 -5.235 L 12.805 0 Z "/>
<path transform="matrix(1,0,0,-1,359.1782,302.3178)" d="M 0 0 C -.816 .377 -1.637 .747 -2.457 1.116 C -14.439 5.854 -26.778 9.378 -39.496 11.436 C -47.412 12.282 -55.424 12.667 -63.354 12.048 C -72.574 10.259 -81.414 7.18 -90.097 3.554 C -87.589 4.613 -85.08 5.671 -82.572 6.73 C -89.465 3.792 -96.009 1.232 -103.054 -.846 C -104.336 -1.788 -105.66 -2.714 -107.051 -3.63 C -111.812 -6.762 -116.836 -9.454 -121.402 -12.879 C -121.188 -13.321 -120.99 -13.767 -120.818 -14.219 C -115.242 -10.231 -109.277 -6.704 -102.907 -3.656 C -92.977 -.515 -83.045 2.627 -73.113 5.768 C -70.84 6.254 -68.575 6.644 -66.316 6.959 C -60.387 7.191 -54.457 7.424 -48.527 7.657 C -41.324 7.205 -34.205 5.861 -27.172 3.601 C -12.928 1.569 .109 -3.715 11.941 -12.238 C 13.058 -12.7 14.086 -13.311 15.025 -14.076 C 15.281 -14.219 15.539 -14.356 15.8 -14.489 C 15.94 -14.538 16.079 -14.593 16.221 -14.641 C 18.499 -15.412 20.475 -16.479 22.198 -17.873 C 22.58 -17.283 22.972 -16.699 23.364 -16.115 C 15.504 -10.86 7.859 -5.249 0 0 "/>
<path transform="matrix(1,0,0,-1,429.8325,430.40763)" d="M 0 0 C .532 0 1.641 .215 1.929 .732 C 2.233 1.279 1.667 1.359 1.204 1.359 C .672 1.359 -.437 1.145 -.725 .627 C -1.029 .081 -.464 0 0 0 "/>
<path transform="matrix(1,0,0,-1,342.8832,451.5658)" d="M 0 0 C 0 0 -4.846 .438 -6.3 -2.415 C -6.3 -2.415 -13.812 -1.537 -15.508 -4.391 C -15.508 -4.391 -25.199 -1.537 -30.046 -6.147 C -30.046 -6.147 -37.072 -.22 -46.522 -4.83 C -46.522 -4.83 -51.126 .243 -57.426 -3.062 C -57.426 -3.062 -59.364 1.365 -66.148 .024 C -66.148 .024 -68.329 2.634 -73.417 1.536 L -71.236 3.731 L -59.849 3.731 L -57.668 1.536 L -45.311 .878 L -30.772 .658 C -30.772 .658 -25.199 -1.537 -20.111 1.316 C -20.111 1.316 -8.48 -.879 -3.635 3.731 L 0 3.731 Z "/>
<path transform="matrix(1,0,0,-1,329.4584,373.51753)" d="M 0 0 L 0 2.171 C 0 2.171 -8.203 17.611 0 25.331 L -1.823 31.362 L -1.823 26.548 C -1.823 26.548 -11.54 15.838 0 0 "/>
<path transform="matrix(1,0,0,-1,310.3793,307.9203)" d="M 0 0 L -20.196 0 L -26.817 11.377 C -26.817 11.377 -2.438 16.253 11.783 11.377 Z "/>
<path transform="matrix(1,0,0,-1,274.6225,299.38764)" d="M 0 0 L 0 -12.596 L -12.596 -19.91 L -21.941 -19.91 L -30.067 -12.19 C -30.067 -12.19 -13.408 -1.625 0 0 "/>
<path transform="matrix(1,0,0,-1,238.8666,315.64064)" d="M 0 0 L -4.063 -26.515 L -16.253 -13.257 C -16.253 -13.257 -11.174 -7.226 0 0 "/>
<path transform="matrix(1,0,0,-1,214.9252,333.8012)" d="M 0 0 L 12.971 -43.601 L -14.44 -27.348 C -14.44 -27.348 -15.847 -11.783 0 0 "/>
<path transform="matrix(1,0,0,-1,207.1733,371.30653)" d="M 0 0 L 35.756 -23.973 L 31.693 -43.925 Z "/>
<path transform="matrix(1,0,0,-1,194.2338,370.30653)" d="M 0 0 L 30.817 -37.569 L -5.282 -24.786 C -5.282 -24.786 -7.72 -17.066 0 0 "/>
<path transform="matrix(1,0,0,-1,203.9223,405.84413)" d="M 0 0 C 0 0 37.382 -17.065 60.136 -40.226 L 53.635 -44.289 C 53.635 -44.289 46.321 -38.194 34.944 -34.131 Z "/>
<path transform="matrix(1,0,0,-1,186.9203,405.84413)" d="M 0 0 L 30.005 -24.786 L 0 -15.034 C 0 -15.034 -2.032 -9.752 0 0 "/>
<path transform="matrix(1,0,0,-1,199.8588,430.6303)" d="M 0 0 C 0 0 13.815 -.582 34.132 -12.074 L 55.667 -25.598 L 66.638 -36.568 L 64.199 -40.632 L 48.353 -40.632 L 39.008 -35.756 Z "/>
<path transform="matrix(1,0,0,-1,190.5863,430.6303)" d="M 0 0 L 37.31 -31.692 L 5.241 -24.379 C 5.241 -24.379 -2.742 -8.099 0 0 "/>
<path transform="matrix(1,0,0,-1,206.4711,462.32273)" d="M 0 0 L 50.835 -43.477 C 50.835 -43.477 10.113 -37.382 0 0 "/>
<path transform="matrix(1,0,0,-1,262.433,479.3891)" d="M 0 0 L 0 -20.315 L -47.743 15.44 Z "/>
<path transform="matrix(1,0,0,-1,329.4584,296.9496)" d="M 0 0 L 6.112 -16.659 L 18.709 -25.192 L 38.618 -15.034 C 38.618 -15.034 25.986 -4.47 0 0 "/>
<path transform="matrix(1,0,0,-1,372.5463,315.64064)" d="M 0 0 L 0 -20.316 L 20.316 -15.44 C 20.316 -15.44 15.44 -4.063 0 0 "/>
<path transform="matrix(1,0,0,-1,396.7065,334.95704)" d="M 0 0 L -14.002 -15.627 L -11.564 -36.35 L 18.379 -26.991 C 18.379 -26.991 13.409 -10.158 0 0 "/>
<path transform="matrix(1,0,0,-1,402.2075,373.51753)" d="M 0 0 L -24.379 -32.327 L -17.065 -10.385 Z "/>
<path transform="matrix(1,0,0,-1,416.4125,363.79533)" d="M 0 0 L -36.146 -47.331 L 7.705 -31.891 C 7.705 -31.891 10.971 -13.409 0 0 "/>
<path transform="matrix(1,0,0,-1,411.1469,405.84413)" d="M 0 0 L -28.442 -28.442 L -57.697 -44.289 L -59.729 -40.632 L -23.16 -12.393 L -13.205 -5.282 Z "/>
<path transform="matrix(1,0,0,-1,426.2661,422.5033)" d="M 0 0 L 0 18.691 L -32.403 -8.127 Z "/>
<path transform="matrix(1,0,0,-1,415.1469,430.6303)" d="M 0 0 L -42.601 -35.756 L -66.379 -42.257 L -56.822 -22.655 L -39.35 -12.074 Z "/>
<path transform="matrix(1,0,0,-1,425.2739,430.6303)" d="M 0 0 L -6.096 -24.379 L -42.569 -33.318 Z "/>
<path transform="matrix(1,0,0,-1,392.8627,467.1986)" d="M 0 0 L -48.353 -35.757 L -48.353 -12.19 Z "/>
<path transform="matrix(1,0,0,-1,405.4584,467.1986)" d="M 0 0 L -56.69 -42.258 C -56.69 -42.258 -13.814 -36.569 0 0 "/>
<path transform="matrix(1,0,0,-1,0,858.898)" d="M 310.379 355.943 L 298.736 355.943 L 298.736 370.57099 L 310.379 370.57099 Z "/>
<path transform="matrix(1,0,0,-1,314.0356,484.0609)" d="M 0 0 L 20.316 11.174 L 24.786 -1.017 L 24.786 -18.895 L 18.691 -38.804 L 8.127 -33.522 L 0 -25.396 Z "/>
<path transform="matrix(1,0,0,-1,273.769,518.4096)" d="M 0 0 L 9.793 3.265 L 21.576 11.391 L 21.576 34.349 C 21.576 34.349 15.075 41.053 .854 47.147 L -4.304 38.208 L -4.304 15.454 L -1.319 .324 C -.88 .218 -.44 .108 0 0 "/>
<path transform="matrix(1,0,0,-1,342.8832,436.59803)" d="M 0 0 L 0 -6.106 L 2.376 -6.106 C 2.376 -6.106 2.569 -1.102 8.534 2.646 C 8.534 2.646 20.23 8.376 22.214 11.683 C 22.214 11.683 26.843 18.296 22.214 27.113 C 22.214 27.113 14.059 45.409 17.145 57.312 C 17.145 57.312 23.978 68.554 23.316 74.285 L 21.332 82 L 22.919 82.966 C 22.919 82.966 30.835 72.587 23.404 58.533 C 23.404 58.533 18.226 44.311 26.585 37.532 C 26.585 37.532 42.466 50.537 33.742 81.794 C 33.742 81.794 22.596 102.875 12.903 107.722 L 3.857 107.722 C 3.857 107.722 -16.012 122.099 -17.95 122.099 C -17.95 122.099 -40.89 124.199 -56.397 122.099 C -56.397 122.099 -80.411 118.735 -99.954 96.898 C -99.954 96.898 -108.494 83.814 -109.786 75.252 C -109.786 75.252 -112.556 56.836 -98.328 44.882 L -98.328 53.444 C -98.328 53.444 -106.232 61.683 -103.002 77.029 L -101.063 76.06 C -101.063 76.06 -100.902 63.621 -95.248 60.875 C -95.248 60.875 -93.149 65.075 -83.295 68.145 C -83.295 68.145 -80.386 75.252 -77.802 76.868 L -76.794 75.821 C -76.794 75.821 -80.359 68.689 -79.868 66.353 C -79.868 66.353 -93.394 62.787 -93.64 54.671 C -93.64 54.671 -86.385 46.925 -91.304 41.76 C -91.304 41.76 -100.914 28.55 -97.339 14.25 C -97.339 14.25 -95.552 7.293 -86.168 5.968 C -86.168 5.968 -74.104 -.993 -74.326 -6.106 L -72.036 -3.517 C -72.036 -3.517 -76.707 6.643 -85.115 10.73 C -85.115 10.73 -92.589 13.532 -91.888 23.809 C -91.888 23.809 -91.771 37.121 -87.45 40.274 C -87.45 40.274 -83.48 47.981 -88.268 54.17 C -88.268 54.17 -88.969 60.709 -74.955 63.745 C -74.955 63.745 -74.488 75.148 -72.27 78.497 L -75.656 82.195 C -75.656 82.195 -83.48 78.692 -86.866 70.985 C -86.866 70.985 -91.824 69.554 -94.69 66.198 C -94.69 66.198 -99.828 71.762 -99.595 78.497 C -99.595 78.497 -94.924 98.64 -72.854 107.7 C -72.854 107.7 -42.492 124.584 -17.736 110.922 C -17.736 110.922 .363 102.047 8.421 96.092 L 14.493 91.654 C 14.493 91.654 17.062 90.837 16.361 85.582 C 16.361 85.582 16.012 78.809 18.113 76.474 C 18.113 76.474 19.981 74.605 17.996 71.803 L 12.625 63.081 L 13.325 47.981 C 13.325 47.981 15.428 30.754 19.748 22.641 C 19.748 22.641 19.688 21.366 18.58 19.021 C 16.968 15.605 14.583 11.107 0 0 "/>
<path transform="matrix(1,0,0,-1,340.2905,463.6)" d="M 0 0 C 0 0 4.287 .2 4.736 2.108 C 4.736 2.108 3.502 5.589 1.48 7.161 C 1.48 7.161 -.701 7.61 -1.126 6.375 L -1.126 0 Z "/>
<path transform="matrix(1,0,0,-1,330.3569,467.1986)" d="M 0 0 C 0 0 4.988 -.837 5.94 1.993 L 2.97 7.219 C 2.97 7.219 .492 8.516 0 6.301 C -.492 4.085 0 0 0 0 "/>
<path transform="matrix(1,0,0,-1,323.5883,468.65184)" d="M 0 0 C 0 0 -3.261 -.489 -6.522 0 L -6.522 4.703 L -4.953 7.016 C -4.953 7.016 -3.322 8.492 -1.846 6.153 L -.369 3.815 Z "/>
<path transform="matrix(1,0,0,-1,308.6977,468.65184)" d="M 0 0 C 0 0 -4.185 -1.6 -7.261 0 L -7.261 5.193 L -6.276 7.476 C -6.276 7.476 -4.308 10.15 -1.846 7.476 L -.738 4.703 Z "/>
<path transform="matrix(1,0,0,-1,287.5307,464.6752)" d="M 0 0 C 0 0 2.584 -3.901 6.522 -2.523 L 7.28 2.546 L 6.153 5.072 C 6.153 5.072 3.568 7.46 1.723 4.695 Z "/>
<path transform="matrix(1,0,0,-1,276.5776,461.8832)" d="M 0 0 C 0 0 1.723 -2.953 5.046 -.492 L 5.828 3.238 C 5.828 3.238 4.404 8.246 .972 4.677 Z "/>
<path transform="matrix(1,0,0,-1,272.6391,455.92323)" d="M 0 0 L 0 -6.575 L -4.922 -5.837 L -4.307 -1.898 L -1.846 .562 C -1.846 .562 0 1.898 0 0 "/>
<path transform="matrix(1,0,0,-1,311.4965,439.9779)" d="M 0 0 C -3.367 .905 -7.998 .905 -11.322 -.687 C -16.65 -3.239 -20.784 2.879 -18.946 8.434 C -17.262 13.523 -14.788 18.593 -11.601 22.884 C -7.673 28.169 -2.101 27.574 1.498 22.015 C 3.923 18.271 6.17 14.321 7.834 10.196 C 10.378 3.89 7.547 -2.878 0 0 "/>
<path transform="matrix(1,0,0,-1,354.0942,403.26313)" d="M 0 0 C -.008 -7.021 -3.833 -13.687 -9.537 -15.636 C -15.971 -17.834 -21.86 -16.175 -26.328 -11.202 C -29.272 -7.925 -31.861 -4.137 -33.778 -.175 C -36.3 5.034 -34.292 9.471 -28.854 11.349 C -24.799 12.749 -20.551 13.761 -16.307 14.412 C -6.608 15.898 .011 9.911 0 0 "/>
<path transform="matrix(1,0,0,-1,275.5444,387.83683)" d="M 0 0 C 4.872 -1.518 9.879 -2.708 14.579 -4.644 C 19.409 -6.632 21.157 -11.15 18.535 -15.705 C 15.926 -20.237 12.698 -24.614 8.95 -28.241 C 4.141 -32.897 -2.728 -32.805 -8.033 -29.035 C -13.753 -24.971 -16.053 -17.376 -13.692 -10.342 C -11.523 -3.877 -6.979 -.639 0 0 "/>
<path transform="matrix(1,0,0,-1,157.1987,263.9032)" d="M 0 0 C .033 -.037 .126 -.159 .286 -.364 C .441 -.57 .622 -.809 .814 -1.081 C 1.011 -1.353 1.12 -1.508 1.155 -1.545 C 1.197 -1.543 1.229 -1.532 1.252 -1.51 C 1.299 -1.469 1.357 -1.387 1.419 -1.267 C 1.483 -1.146 1.515 -1.002 1.519 -.836 C 1.521 -.669 1.485 -.467 1.403 -.227 C 1.322 .013 1.165 .263 .942 .525 C .66 .852 .378 1.179 .097 1.505 C .062 1.003 .03 .501 0 0 M -4.803 -9.382 C -6.14 -10.654 -7.465 -11.946 -8.777 -13.257 C -8.882 -13.221 -8.985 -13.186 -9.089 -13.15 C -9.316 -12.923 -9.542 -12.696 -9.77 -12.47 C -10.38 -11.859 -10.919 -11.309 -11.387 -10.817 C -11.855 -10.326 -12.399 -9.727 -13.013 -9.016 C -13.053 -8.743 -12.991 -8.48 -12.825 -8.228 C -12.656 -7.976 -12.491 -7.768 -12.328 -7.606 C -11.86 -7.145 -11.392 -6.686 -10.92 -6.229 C -10.685 -6.001 -10.432 -5.801 -10.166 -5.629 C -9.899 -5.458 -9.603 -5.284 -9.272 -5.106 C -9.034 -5.356 -8.829 -5.527 -8.653 -5.615 C -8.478 -5.704 -8.313 -5.774 -8.149 -5.825 C -7.989 -5.876 -7.824 -5.923 -7.65 -5.963 C -7.479 -6.003 -7.273 -6.1 -7.041 -6.252 C -6.723 -6.494 -6.405 -6.737 -6.087 -6.98 C -5.743 -7.201 -5.368 -7.378 -4.955 -7.514 C -4.539 -7.651 -4.133 -7.797 -3.722 -7.954 C -3.313 -8.113 -2.913 -8.296 -2.523 -8.506 C -2.133 -8.716 -1.788 -8.984 -1.485 -9.309 C -1.302 -9.508 -1.197 -9.757 -1.175 -10.056 C -1.153 -10.357 -1.05 -10.605 -.864 -10.804 C -.746 -10.93 -.628 -11.056 -.511 -11.182 C -.359 -11.344 -.194 -11.496 -.021 -11.637 C .152 -11.778 .318 -11.774 .478 -11.626 C .523 -11.583 .548 -11.542 .556 -11.504 C .569 -11.29 .454 -11.018 .21 -10.688 C -.032 -10.357 -.295 -10.039 -.581 -9.73 C -.815 -9.478 -1.047 -9.253 -1.27 -9.057 C -1.495 -8.861 -1.655 -8.709 -1.757 -8.601 C -2.168 -8.158 -2.579 -7.715 -2.99 -7.272 C -3.162 -7.228 -3.297 -7.162 -3.401 -7.073 C -3.507 -6.985 -3.634 -6.908 -3.778 -6.843 C -3.904 -6.708 -4.03 -6.572 -4.157 -6.437 C -5.013 -5.633 -5.869 -4.83 -6.728 -4.028 C -6.946 -3.793 -7.165 -3.559 -7.384 -3.324 C -7.403 -3.208 -7.379 -3.072 -7.297 -2.915 C -7.22 -2.759 -7.146 -2.647 -7.073 -2.581 C -4.284 .005 -1.446 2.51 1.437 4.933 C 1.634 4.874 1.831 4.814 2.028 4.754 L 5.351 .78 C 5.429 .49 5.507 .202 5.585 -.087 C 4.273 -1.189 2.974 -2.309 1.683 -3.445 C 1.641 -3.564 1.599 -3.684 1.557 -3.803 C 1.925 -4.268 2.234 -4.668 2.489 -5.003 C 2.743 -5.339 3.01 -5.678 3.293 -6.021 C 3.574 -6.365 3.813 -6.647 4.011 -6.869 C 5.792 -8.884 7.608 -11 9.462 -13.211 C 11.317 -15.423 13.08 -17.584 14.759 -19.69 C 14.857 -19.801 14.924 -19.94 14.957 -20.108 C 14.99 -20.276 14.952 -20.408 14.849 -20.502 C 13.26 -21.92 11.688 -23.368 10.134 -24.844 C 10.026 -24.877 9.919 -24.911 9.813 -24.945 C 9.073 -24.168 8.333 -23.391 7.593 -22.613 C 3.459 -18.206 -.673 -13.795 -4.803 -9.382 "/>
<path transform="matrix(1,0,0,-1,172.0971,263.36134)" d="M 0 0 C -1.927 2.487 -3.856 5.09 -5.777 7.814 C -5.977 8.096 -6.177 8.378 -6.376 8.66 C -6.439 8.894 -6.369 9.119 -6.174 9.335 C -5.976 9.551 -5.8 9.717 -5.649 9.835 C -5.472 9.971 -5.259 9.981 -5.007 9.863 C -4.699 9.462 -4.392 9.061 -4.083 8.66 C -3.881 8.317 -3.677 7.976 -3.475 7.634 C -3.347 7.545 -3.22 7.457 -3.092 7.368 C -2.698 7.111 -2.266 6.937 -1.8 6.843 C -1.336 6.748 -.959 6.513 -.678 6.141 C -.305 5.572 .069 5.003 .442 4.435 C .487 4.376 .587 4.257 .741 4.081 C .893 3.903 1.063 3.721 1.243 3.533 C 1.424 3.346 1.586 3.182 1.729 3.043 C 1.872 2.904 1.966 2.834 2.005 2.833 C 1.949 2.605 2.032 2.343 2.257 2.048 C 2.309 1.98 2.36 1.911 2.413 1.842 C 2.605 1.586 2.793 1.355 2.969 1.149 C 3.145 .941 3.361 .719 3.618 .481 C 3.732 .38 3.835 .368 3.933 .441 C 4.005 .543 4.079 .645 4.153 .747 C 2.639 2.927 1.129 5.11 -.38 7.294 C -.553 7.473 -.726 7.652 -.899 7.83 C -1.45 8.511 -2.003 9.191 -2.556 9.871 C -2.763 10.147 -2.938 10.48 -3.072 10.872 C -3.207 11.264 -3.109 11.585 -2.778 11.834 C -2.076 12.359 -1.372 12.88 -.666 13.397 C -.516 13.354 -.366 13.311 -.216 13.268 L 5.685 5.158 C 5.849 5.188 6.098 5.298 6.427 5.492 C 6.754 5.684 7.028 5.859 7.251 6.018 C 7.362 6.098 7.473 6.177 7.584 6.256 C 7.683 6.327 7.753 6.332 7.797 6.271 C 7.838 6.211 7.886 6.092 7.937 5.917 C 7.986 5.741 8.022 5.643 8.035 5.623 C 8.128 5.492 8.222 5.362 8.314 5.231 C 8.601 4.829 8.878 4.467 9.146 4.143 C 9.41 3.818 9.714 3.425 10.04 2.963 C 10.278 3.117 10.515 3.271 10.752 3.423 C 10.872 3.509 10.915 3.653 10.884 3.856 C 10.85 4.059 10.783 4.274 10.675 4.501 C 10.567 4.729 10.464 4.933 10.355 5.113 C 10.248 5.293 10.178 5.403 10.15 5.444 C 10.118 5.542 10.126 5.728 10.172 6.002 C 10.217 6.275 10.277 6.562 10.341 6.864 C 10.404 7.165 10.517 7.549 10.67 8.016 C 10.694 8.167 10.719 8.319 10.743 8.471 C 11.153 8.753 11.565 9.035 11.978 9.314 C 11.39 10.182 10.803 11.051 10.215 11.919 C 9.636 12.777 9.124 13.519 8.682 14.144 C 8.241 14.768 7.924 15.224 7.729 15.51 C 7.716 15.53 7.641 15.672 7.499 15.935 C 7.358 16.197 7.194 16.481 7.008 16.787 C 6.819 17.091 6.653 17.38 6.507 17.654 C 6.362 17.927 6.272 18.084 6.245 18.126 C 6.231 18.146 6.276 18.22 6.38 18.35 C 6.482 18.479 6.613 18.627 6.771 18.792 C 6.927 18.955 7.069 19.096 7.2 19.214 C 7.33 19.331 7.425 19.407 7.476 19.442 C 7.783 19.497 7.946 19.533 7.974 19.55 C 8 19.567 8.028 19.609 8.062 19.675 C 8.093 19.741 8.1 19.794 8.069 19.836 C 8.096 19.853 8.121 19.871 8.147 19.888 C 8.229 19.881 8.309 19.89 8.388 19.913 C 8.469 19.935 8.515 19.937 8.527 19.917 C 9.011 19.643 9.495 19.343 9.99 19.017 C 10.486 18.691 10.886 18.29 11.194 17.814 C 11.657 17.615 12.12 17.416 12.581 17.214 C 12.555 17.255 12.623 17.375 12.792 17.571 C 12.96 17.767 13.05 17.913 13.063 18.009 C 12.957 18.175 12.851 18.342 12.744 18.508 C 12.272 19.158 11.801 19.808 11.328 20.458 C 11.181 20.686 11.078 20.935 11.019 21.204 C 10.96 21.474 11.073 21.702 11.368 21.889 C 11.701 22.101 12.033 22.312 12.366 22.521 C 12.741 22.043 13.116 21.564 13.489 21.086 C 13.501 21.064 13.7 20.766 14.08 20.189 C 14.46 19.612 14.946 18.854 15.535 17.913 C 16.539 16.314 17.541 14.715 18.545 13.116 C 18.78 12.74 18.971 12.451 19.114 12.25 C 19.257 12.05 19.443 11.771 19.664 11.416 C 20.412 10.225 21.089 9.157 21.698 8.214 C 22.308 7.27 22.854 6.412 23.338 5.639 C 24.497 3.789 25.657 1.938 26.816 .088 L 27.068 -.628 C 25.106 -1.863 23.16 -3.134 21.231 -4.442 C 21.204 -4.401 21.176 -4.36 21.148 -4.32 C 21.12 -4.279 21.014 -4.129 20.82 -3.872 C 20.626 -3.614 20.385 -3.28 20.09 -2.869 C 19.796 -2.458 19.556 -2.12 19.377 -1.854 C 19.267 -1.691 19.155 -1.527 19.046 -1.364 C 18.979 -1.215 18.912 -1.066 18.847 -.917 C 17.698 .778 16.551 2.474 15.403 4.17 C 15.1 3.964 14.797 3.757 14.494 3.55 C 14.243 3.347 13.872 3.069 13.384 2.715 C 12.896 2.361 12.413 2.015 11.933 1.675 C 11.452 1.334 10.884 .914 10.23 .411 C 9.905 .358 9.58 .305 9.255 .25 C 10.169 -1.006 11.083 -2.263 11.998 -3.52 C 12.375 -4.039 12.753 -4.557 13.13 -5.076 C 13.681 -5.834 14.153 -6.52 14.548 -7.133 C 14.941 -7.747 15.123 -8.154 15.099 -8.357 C 15.085 -8.505 15.071 -8.653 15.058 -8.8 C 13.36 -10.047 11.678 -11.322 10.012 -12.628 C 9.91 -12.567 9.809 -12.505 9.706 -12.444 L 5.944 -7.635 C 3.906 -5.032 1.927 -2.487 0 0 "/>
<path transform="matrix(1,0,0,-1,191.2084,236.96479)" d="M 0 0 C .053 .159 .105 .318 .158 .477 C .578 .722 1 .965 1.422 1.207 C 1.498 1.078 1.691 .813 2.01 .413 C 2.329 .013 2.674 -.402 3.042 -.83 C 3.409 -1.259 3.905 -1.795 4.517 -2.439 C 4.596 -2.579 4.675 -2.719 4.754 -2.858 C 5.157 -3.566 5.577 -4.206 6.023 -4.776 C 6.469 -5.347 6.87 -5.954 7.236 -6.598 C 7.443 -6.964 7.585 -7.323 7.663 -7.674 C 7.741 -8.027 7.889 -8.385 8.094 -8.75 C 8.13 -8.814 8.167 -8.878 8.203 -8.943 C 8.35 -9.2 8.501 -9.286 8.653 -9.198 C 8.667 -9.19 8.68 -9.183 8.692 -9.176 C 8.796 -9.118 8.816 -9.035 8.757 -8.928 C 8.514 -8.286 8.272 -7.643 8.03 -7 C 8.067 -7.008 8.127 -6.989 8.204 -6.944 C 8.179 -6.959 8.304 -6.818 8.585 -6.52 C 8.5 -6.369 8.416 -6.218 8.332 -6.067 C 8.056 -5.571 7.698 -5.178 7.259 -4.886 C 6.819 -4.597 6.446 -4.183 6.145 -3.645 C 5.761 -2.247 5.382 -.847 5.01 .555 C 4.567 1.128 4.124 1.7 3.681 2.271 C 3.649 2.325 3.62 2.379 3.59 2.433 C 4.249 2.858 4.91 3.279 5.573 3.697 C 8.459 5.27 11.37 6.777 14.307 8.218 C 14.384 8.201 14.462 8.184 14.539 8.167 C 14.55 8.145 14.607 8.063 14.711 7.922 C 14.815 7.78 14.938 7.6 15.08 7.381 C 15.22 7.162 15.326 6.986 15.39 6.853 C 15.968 5.529 16.546 4.205 17.127 2.882 C 17.121 2.756 17.116 2.629 17.11 2.503 C 14.841 1.389 12.585 .234 10.345 -.962 C 10.212 -1.033 10.067 -1.137 9.918 -1.274 C 9.765 -1.412 9.751 -1.589 9.867 -1.806 C 10.37 -2.741 10.872 -3.675 11.375 -4.609 C 11.446 -4.74 11.546 -4.784 11.676 -4.741 C 11.808 -4.699 11.937 -4.644 12.068 -4.573 C 12.464 -4.361 12.69 -4.312 12.748 -4.42 C 13.222 -5.314 13.696 -6.208 14.17 -7.102 C 14.236 -7.232 14.369 -7.381 14.556 -7.546 C 14.747 -7.712 14.911 -7.784 15.065 -7.758 C 15.148 -7.603 15.125 -7.308 14.997 -6.874 C 14.868 -6.439 14.727 -5.978 14.569 -5.489 C 14.413 -5 14.278 -4.563 14.161 -4.178 C 14.044 -3.794 14.023 -3.581 14.104 -3.54 C 15.506 -2.809 16.914 -2.094 18.327 -1.395 C 18.487 -1.315 18.595 -1.332 18.649 -1.442 C 18.683 -1.508 18.675 -1.595 18.628 -1.7 C 19.457 -3.382 20.287 -5.063 21.117 -6.745 C 21.127 -6.864 21.138 -6.983 21.147 -7.102 C 19.101 -8.113 17.067 -9.159 15.048 -10.24 C 14.919 -10.309 14.839 -10.364 14.816 -10.406 C 14.788 -10.449 14.753 -10.581 14.707 -10.801 C 15.106 -11.637 15.509 -12.472 15.909 -13.306 C 15.946 -13.372 16.035 -13.512 16.185 -13.726 C 16.33 -13.941 16.433 -14.063 16.479 -14.093 C 16.537 -14.202 16.628 -14.223 16.754 -14.155 C 16.915 -14.096 17.239 -13.95 17.729 -13.718 C 18.217 -13.487 18.735 -13.236 19.282 -12.965 C 19.828 -12.696 20.344 -12.444 20.829 -12.21 C 21.313 -11.978 21.647 -11.816 21.823 -11.727 C 22.38 -11.447 22.937 -11.17 23.496 -10.895 C 23.62 -10.89 23.743 -10.884 23.866 -10.879 C 24.679 -12.541 25.493 -14.203 26.308 -15.865 C 26.337 -15.931 26.373 -16.046 26.406 -16.208 C 26.442 -16.37 26.428 -16.547 26.37 -16.741 C 23.763 -18.023 21.177 -19.365 18.615 -20.766 C 18.531 -20.755 18.446 -20.746 18.362 -20.735 C 16.875 -21.55 15.396 -22.385 13.926 -23.24 C 13.774 -23.2 13.623 -23.159 13.472 -23.119 C 8.981 -15.413 4.491 -7.707 0 0 "/>
<path transform="matrix(1,0,0,-1,237.5395,244.32172)" d="M 0 0 C -.747 2.052 -1.493 4.104 -2.239 6.156 C -2.56 7.037 -2.925 8.059 -3.332 9.224 C -3.741 10.388 -4.184 11.631 -4.665 12.953 C -5.144 14.274 -5.604 15.572 -6.033 16.847 C -6.463 18.121 -6.868 19.279 -7.247 20.323 C -7.626 21.367 -7.926 22.215 -8.147 22.87 C -8.368 23.524 -8.483 23.864 -8.492 23.887 C -8.624 24.43 -8.755 24.973 -8.887 25.516 C -8.828 25.537 -8.77 25.558 -8.712 25.579 C -8.394 25.693 -8.15 25.635 -7.987 25.406 C -7.822 25.176 -7.697 24.934 -7.604 24.678 C -7.398 23.965 -7.192 23.253 -6.986 22.541 L -6.743 21.999 C -6.65 21.926 -6.465 21.849 -6.178 21.768 C -5.893 21.686 -5.743 21.621 -5.726 21.575 C -5.556 20.915 -5.386 20.255 -5.215 19.596 C -5.149 19.41 -5.083 19.224 -5.018 19.038 C -4.944 19.011 -4.871 18.985 -4.8 18.958 C -4.536 18.214 -4.273 17.47 -4.01 16.725 C -3.893 16.924 -3.858 17.164 -3.912 17.446 C -3.963 17.728 -3.991 17.961 -3.992 18.144 C -4.191 18.845 -4.389 19.547 -4.588 20.249 C -4.596 20.271 -4.594 20.337 -4.586 20.445 C -4.577 20.553 -4.555 20.672 -4.52 20.802 C -4.486 20.931 -4.461 21.05 -4.452 21.158 C -4.443 21.266 -4.447 21.343 -4.462 21.39 C -4.486 21.459 -4.511 21.53 -4.535 21.6 C -4.859 22.166 -5.186 22.731 -5.512 23.297 C -5.707 23.856 -5.789 24.449 -5.746 25.077 C -5.704 25.705 -5.662 26.288 -5.618 26.825 C -5.635 26.871 -5.534 26.957 -5.316 27.084 C -5.287 27.095 -5.258 27.104 -5.229 27.115 C -5.219 27.091 -5.183 27.072 -5.111 27.057 C -5.043 27.042 -4.992 27.04 -4.962 27.049 C -4.933 27.059 -4.817 27.15 -4.615 27.323 C -4.585 27.333 -4.395 27.273 -4.043 27.146 C -3.691 27.016 -3.312 26.87 -2.898 26.708 C -2.488 26.544 -2.125 26.392 -1.805 26.25 C -1.486 26.108 -1.319 26.024 -1.313 26.002 C -1.248 25.893 -1.138 25.708 -.988 25.446 C -.835 25.183 -.748 25.004 -.718 24.911 C -.61 24.583 -.452 24.044 -.24 23.296 C -.027 22.548 .231 21.704 .536 20.766 C 1.163 18.842 1.789 16.918 2.416 14.995 C 2.734 14.009 3.021 13.175 3.275 12.492 C 3.529 11.809 3.716 11.279 3.838 10.904 C 4.541 9.018 5.241 7.132 5.939 5.244 C 5.914 5.236 5.875 5.203 5.819 5.147 C 5.765 5.09 5.713 5.041 5.67 5.001 C 5.689 4.943 5.709 4.884 5.728 4.826 C 5.969 4.799 6.168 4.806 6.33 4.845 C 6.49 4.883 6.674 4.937 6.886 5.003 C 7.147 5.087 7.276 5.295 7.271 5.63 C 7.267 5.965 7.248 6.322 7.217 6.7 C 7.186 7.077 7.174 7.436 7.184 7.775 C 7.193 8.114 7.347 8.33 7.64 8.42 C 9.133 8.882 10.63 9.327 12.131 9.755 C 12.265 9.691 12.399 9.626 12.533 9.562 C 12.591 9.36 12.647 9.158 12.705 8.957 C 12.795 8.648 12.84 8.374 12.854 8.133 C 12.865 7.892 12.908 7.642 12.98 7.381 L 13.021 7.239 C 13.042 7.167 13.09 7.078 13.162 6.971 C 13.233 6.863 13.293 6.79 13.333 6.75 C 13.605 5.789 13.879 4.828 14.152 3.866 C 13.827 3.723 13.503 3.579 13.18 3.434 C 8.896 2.196 4.644 .815 .432 -.709 C .287 -.473 .144 -.236 0 0 "/>
<path transform="matrix(1,0,0,-1,266.518,219.61914)" d="M 0 0 C -.048 -.06 -.09 -.149 -.126 -.269 C -.162 -.389 -.193 -.507 -.215 -.625 C -.237 -.741 -.255 -.846 -.266 -.935 C -.279 -1.026 -.285 -1.059 -.291 -1.034 C -.365 -1.425 -.44 -1.917 -.518 -2.509 C -.597 -3.102 -.648 -3.678 -.687 -4.238 C -.725 -4.798 -.776 -5.487 -.846 -6.305 C -.608 -7.503 -.371 -8.701 -.134 -9.899 C -.065 -10.238 -.061 -10.557 -.114 -10.856 C -.169 -11.157 -.155 -11.5 -.078 -11.887 C .276 -11.817 .504 -11.653 .605 -11.394 C .711 -11.135 .758 -10.836 .75 -10.499 C .74 -10.162 .709 -9.816 .654 -9.462 C .6 -9.109 .604 -8.8 .668 -8.536 C .742 -8.171 .92 -7.847 1.212 -7.566 C 1.5 -7.285 1.729 -6.956 1.888 -6.575 C 1.932 -6.516 1.974 -6.433 2.014 -6.325 C 2.054 -6.219 2.084 -6.162 2.112 -6.157 C 2.516 -6.083 2.92 -6.01 3.324 -5.938 C 3.301 -5.805 3.276 -5.671 3.253 -5.538 C 2.307 -3.777 1.344 -2.021 .363 -.271 C .204 -.051 .125 .048 .13 .024 C .115 .021 .102 .019 .086 .016 C .058 .011 .028 .005 0 0 M -9.03 -17.627 C -8.943 -17.084 -8.871 -16.628 -8.823 -16.26 C -8.77 -16.247 -8.716 -16.233 -8.663 -16.22 C -8.528 -16.188 -8.438 -16.197 -8.382 -16.247 C -8.329 -16.297 -8.205 -16.299 -8.021 -16.254 C -8.127 -15.823 -8.231 -15.391 -8.337 -14.96 C -8.348 -14.912 -8.398 -14.875 -8.492 -14.845 C -8.586 -14.817 -8.656 -14.81 -8.711 -14.823 C -8.748 -14.679 -8.684 -14.556 -8.524 -14.454 C -8.362 -14.352 -8.262 -14.282 -8.213 -14.245 C -8.318 -13.813 -8.422 -13.381 -8.527 -12.95 C -8.403 -12.87 -8.372 -12.698 -8.437 -12.433 C -8.454 -12.361 -8.473 -12.315 -8.492 -12.294 C -8.511 -12.274 -8.524 -12.252 -8.529 -12.228 C -8.331 -9.782 -8.107 -7.334 -7.857 -4.886 C -7.681 -4.769 -7.613 -4.614 -7.654 -4.421 C -7.695 -4.229 -7.718 -4.083 -7.711 -3.979 C -7.703 -3.877 -7.689 -3.678 -7.67 -3.382 C -7.648 -3.086 -7.621 -2.782 -7.585 -2.471 C -7.553 -2.16 -7.522 -1.863 -7.495 -1.579 C -7.469 -1.295 -7.453 -1.102 -7.445 -.999 C -7.417 -.992 -7.388 -.986 -7.36 -.979 C -7.158 -.935 -7.032 -.971 -6.977 -1.084 C -6.922 -1.199 -6.881 -1.328 -6.846 -1.473 C -6.677 -2.774 -6.506 -4.076 -6.333 -5.376 C -6.255 -5.662 -6.176 -5.948 -6.098 -6.234 C -6.053 -6.3 -5.987 -6.33 -5.902 -6.323 C -5.817 -6.317 -5.747 -6.308 -5.689 -6.295 C -5.608 -6.265 -5.527 -6.234 -5.447 -6.204 C -5.535 -5.604 -5.622 -5.005 -5.709 -4.405 C -5.754 -4.201 -5.799 -3.996 -5.844 -3.791 C -5.92 -3.454 -5.953 -3.077 -5.958 -2.661 C -5.958 -2.245 -5.876 -1.955 -5.701 -1.791 L -6.226 .632 C -6.163 .76 -6.1 .887 -6.037 1.014 C -5.891 .818 -5.742 .623 -5.596 .427 C -5.566 .433 -5.493 .367 -5.372 .228 C -5.253 .089 -5.191 .008 -5.186 -.016 C -5.22 -.137 -5.254 -.257 -5.288 -.378 C -5.224 -.68 -5.159 -.981 -5.096 -1.283 C -5.063 -1.428 -5.028 -1.559 -4.989 -1.676 C -4.951 -1.795 -4.857 -1.838 -4.716 -1.808 C -4.702 -1.805 -4.687 -1.802 -4.674 -1.799 C -4.617 -1.787 -4.577 -1.703 -4.548 -1.545 C -4.568 -1.449 -4.589 -1.352 -4.609 -1.256 C -4.64 -1.111 -4.67 -.966 -4.701 -.821 C -4.774 -.483 -4.787 -.121 -4.75 .265 C -4.994 1.424 -5.237 2.583 -5.48 3.741 C -5.728 4.042 -5.93 4.384 -6.087 4.767 C -6.244 5.15 -6.369 5.558 -6.463 5.993 C -6.563 6.475 -6.539 7.061 -6.371 7.751 C -6.206 8.441 -6.031 9.019 -5.845 9.486 C -5.797 9.546 -5.747 9.625 -5.706 9.722 C -5.663 9.818 -5.615 9.873 -5.553 9.886 C -4.428 10.115 -3.302 10.335 -2.174 10.548 C -2.163 10.487 -2.151 10.427 -2.14 10.366 C -1.839 10.423 -1.599 10.266 -1.423 9.897 C -1.245 9.529 -1.084 9.088 -.945 8.575 C -.802 8.062 -.669 7.547 -.545 7.031 C -.416 6.514 -.271 6.146 -.111 5.925 C .155 5.635 .42 5.345 .686 5.054 C .868 4.886 .989 4.621 1.057 4.257 C 1.088 3.999 1.119 3.742 1.15 3.484 C 1.22 3.096 1.316 2.824 1.433 2.669 C 1.436 2.645 1.498 2.644 1.612 2.665 C 1.758 2.69 1.84 2.786 1.854 2.951 C 1.867 3.117 1.859 3.296 1.825 3.491 C 1.793 3.673 1.76 3.855 1.729 4.038 C 1.584 4.863 1.345 5.567 1.013 6.147 C .682 6.727 .451 7.368 .323 8.072 C .3 8.193 .293 8.417 .295 8.744 C .299 9.07 .32 9.406 .368 9.753 C .414 10.1 .49 10.407 .599 10.677 C .705 10.946 .852 11.097 1.031 11.128 C 1.062 11.134 1.091 11.139 1.121 11.144 C 1.142 11.022 1.212 10.972 1.333 10.993 C 1.473 11.08 1.613 11.167 1.754 11.253 C 1.904 11.279 2.057 11.21 2.207 11.048 C 2.358 10.886 2.469 10.773 2.542 10.711 C 3.355 9.395 4.062 8.093 4.68 6.806 C 5.299 5.518 5.994 4.211 6.765 2.882 C 7.92 .79 9.014 -1.193 10.047 -3.063 C 11.078 -4.934 12.13 -6.918 13.19 -9.017 C 13.234 -9.16 13.31 -9.325 13.402 -9.512 C 13.498 -9.699 13.592 -9.885 13.685 -10.071 C 13.775 -10.258 13.861 -10.421 13.936 -10.561 C 14.01 -10.701 14.048 -10.784 14.051 -10.807 C 14.063 -10.905 14.076 -11.003 14.089 -11.101 C 14.104 -11.223 14.12 -11.346 14.137 -11.468 C 14.149 -11.566 14.184 -11.655 14.233 -11.735 C 14.286 -11.816 14.422 -11.866 14.645 -11.887 C 14.988 -12.64 15.33 -13.392 15.668 -14.146 C 15.695 -14.366 15.723 -14.586 15.75 -14.807 C 13.484 -15.087 11.223 -15.405 8.965 -15.761 C 8.864 -15.728 8.763 -15.693 8.663 -15.66 C 8.401 -15.202 8.193 -14.823 8.049 -14.521 C 7.902 -14.22 7.752 -13.914 7.59 -13.602 C 7.426 -13.291 7.318 -13.041 7.258 -12.85 C 7.231 -12.767 7.204 -12.684 7.177 -12.601 C 6.976 -12.234 6.798 -11.945 6.637 -11.734 C 6.477 -11.523 6.152 -11.458 5.663 -11.541 C 5.447 -11.578 5.234 -11.646 5.028 -11.745 C 4.819 -11.844 4.598 -11.914 4.354 -11.957 C 4.218 -11.981 4.111 -11.938 4.037 -11.825 C 4.005 -11.881 3.973 -11.937 3.941 -11.993 C 3.373 -12.095 2.805 -12.2 2.236 -12.306 C 1.587 -12.428 .936 -12.572 .281 -12.74 C -.372 -12.907 -1.005 -13.08 -1.614 -13.256 C -1.793 -13.344 -1.907 -13.627 -1.961 -14.104 C -2.014 -14.582 -2.058 -15.102 -2.091 -15.664 C -2.125 -16.226 -2.168 -16.733 -2.222 -17.186 C -2.276 -17.639 -2.396 -17.886 -2.578 -17.925 C -4.658 -18.378 -6.732 -18.863 -8.8 -19.381 C -8.853 -19.395 -8.898 -19.349 -8.938 -19.244 C -8.982 -19.14 -9.004 -19.064 -9.017 -19.016 C -9.112 -18.634 -9.121 -18.171 -9.03 -17.627 "/>
<path transform="matrix(1,0,0,-1,287.4985,230.3349)" d="M 0 0 C .08 .292 .185 .587 .307 .884 C .432 1.18 .562 1.446 .708 1.683 C .852 1.919 .979 2.042 1.09 2.052 C 1.307 2.072 1.457 1.948 1.537 1.684 C 1.615 1.417 1.682 1.126 1.737 .809 C 1.791 .492 1.864 .202 1.958 -.063 C 2.05 -.328 2.244 -.447 2.541 -.422 C 2.758 -.404 2.899 -.212 2.966 .152 C 3.029 .515 3.047 .919 3.012 1.362 C 2.998 1.534 2.983 1.706 2.97 1.878 C 2.926 2.444 2.833 2.956 2.698 3.416 C 2.565 3.874 2.421 4.345 2.268 4.828 C 2.247 4.9 2.227 4.973 2.207 5.046 C 2.68 5.085 3 4.967 3.16 4.696 C 3.32 4.424 3.443 4.118 3.525 3.778 C 3.605 3.438 3.699 3.129 3.805 2.853 C 3.908 2.576 4.139 2.452 4.497 2.478 C 4.525 2.48 4.552 2.482 4.58 2.484 C 4.678 2.664 4.732 2.922 4.753 3.257 C 4.77 3.593 4.775 3.796 4.77 3.871 C 4.825 3.875 4.882 3.878 4.937 3.882 C 5.406 3.916 5.861 3.854 6.304 3.697 C 6.745 3.54 7.226 3.477 7.751 3.506 C 8.058 3.524 8.371 3.566 8.701 3.633 C 9.03 3.7 9.337 3.814 9.619 3.976 C 9.904 4.138 10.13 4.358 10.297 4.637 C 10.47 4.916 10.539 5.265 10.523 5.685 C 10.494 6.3 10.242 6.79 9.762 7.15 C 9.279 7.51 8.682 7.813 7.956 8.058 C 7.234 8.302 6.439 8.539 5.57 8.766 C 4.703 8.992 3.859 9.309 3.041 9.715 C 2.224 10.122 1.474 10.659 .793 11.331 C .114 12.001 -.386 12.903 -.694 14.039 C -.7 14.087 -.723 14.185 -.766 14.33 C -.81 14.474 -.842 14.644 -.858 14.841 C -.917 15.467 -.976 16.093 -1.035 16.72 C -1.051 16.891 -1.047 17.035 -1.03 17.148 C -1.012 17.261 -1.002 17.33 -1.004 17.354 C -1.006 17.378 -1.008 17.453 -1.004 17.577 C -1.001 17.702 -.991 17.839 -.976 17.989 C -.959 18.139 -.943 18.283 -.926 18.42 C -.909 18.558 -.886 18.653 -.862 18.706 C -.839 18.782 -.79 18.954 -.708 19.221 C -.626 19.488 -.53 19.763 -.422 20.045 C -.313 20.328 -.199 20.585 -.085 20.818 C .031 21.051 .135 21.171 .225 21.179 C .313 21.187 .486 21.109 .741 20.944 C .996 20.78 1.127 20.624 1.142 20.477 C 1.143 20.464 1.144 20.452 1.145 20.439 C 1.093 19.99 .989 19.591 .84 19.245 C .688 18.898 .632 18.515 .669 18.098 C .687 17.9 .727 17.663 .797 17.384 C .864 17.105 .94 16.821 1.025 16.531 C 1.107 16.241 1.201 15.964 1.294 15.7 C 1.391 15.435 1.488 15.221 1.59 15.056 C 1.592 15.031 1.68 14.958 1.851 14.835 C 2.021 14.713 2.107 14.64 2.109 14.616 C 2.121 14.48 2.131 14.345 2.143 14.209 C 2.158 13.989 2.133 13.782 2.062 13.591 C 1.991 13.399 1.908 13.213 1.822 13.033 C 1.734 12.853 1.656 12.66 1.588 12.457 C 1.518 12.253 1.49 12.028 1.514 11.782 C 1.526 11.635 1.569 11.435 1.65 11.181 C 1.729 10.928 1.87 10.785 2.075 10.752 C 2.09 10.753 2.104 10.754 2.118 10.755 C 2.317 10.772 2.473 11.007 2.581 11.461 C 2.688 11.915 2.758 12.415 2.788 12.961 C 2.815 13.508 2.828 14.022 2.82 14.504 C 2.814 14.986 2.807 15.264 2.801 15.338 C 2.663 16.366 2.523 17.395 2.385 18.423 C 2.352 18.84 2.417 19.248 2.581 19.644 C 2.746 20.04 2.855 20.462 2.913 20.912 C 2.901 21.06 2.896 21.22 2.899 21.393 C 2.901 21.566 2.896 21.764 2.879 21.985 C 2.857 22.281 2.848 22.57 2.859 22.855 C 2.868 23.141 2.913 23.403 2.982 23.644 C 3.055 23.884 3.178 24.097 3.348 24.282 C 3.521 24.467 3.767 24.596 4.1 24.668 C 4.579 24.799 5.096 24.889 5.643 24.935 C 6.189 24.981 6.753 25.02 7.33 25.051 C 8.352 25.106 9.373 25.154 10.395 25.196 C 10.701 25.134 10.922 24.865 11.043 24.388 C 11.171 23.912 11.27 23.397 11.353 22.844 C 11.432 22.292 11.511 21.795 11.587 21.354 C 11.664 20.912 11.822 20.695 12.06 20.704 C 12.21 20.709 12.334 20.818 12.431 21.031 C 12.528 21.244 12.606 21.425 12.661 21.575 C 12.645 22.093 12.628 22.611 12.612 23.128 C 12.636 23.302 12.733 23.552 12.906 23.877 C 13.077 24.203 13.192 24.454 13.249 24.628 C 13.244 24.726 13.305 24.778 13.428 24.781 C 13.547 24.785 13.779 24.729 14.117 24.614 C 14.454 24.499 14.806 24.359 15.174 24.194 C 15.54 24.028 15.864 23.855 16.139 23.675 C 16.417 23.494 16.552 23.342 16.555 23.219 C 16.557 23.145 16.557 23.071 16.559 22.997 C 15.972 21.755 15.396 20.511 14.828 19.265 C 14.685 19.014 14.536 18.752 14.381 18.477 C 14.225 18.202 14.019 17.962 13.756 17.758 C 13.15 18.309 12.456 18.713 11.674 18.969 C 10.893 19.224 10.098 19.333 9.296 19.296 C 8.673 19.267 8.174 19.093 7.806 18.777 C 7.436 18.461 7.271 17.982 7.307 17.342 C 7.345 16.701 7.534 16.211 7.873 15.872 C 8.216 15.532 8.623 15.282 9.098 15.119 C 9.574 14.958 10.08 14.844 10.623 14.781 C 11.164 14.716 11.658 14.63 12.099 14.522 C 12.804 14.325 13.533 14.026 14.281 13.626 C 15.03 13.225 15.704 12.733 16.305 12.15 C 16.902 11.568 17.392 10.907 17.769 10.171 C 18.146 9.435 18.338 8.622 18.343 7.734 C 18.354 5.958 18.092 4.408 17.569 3.083 C 17.048 1.758 16.323 .65 15.408 -.245 C 14.494 -1.141 13.425 -1.83 12.207 -2.319 C 10.99 -2.81 9.663 -3.092 8.219 -3.174 C 8.004 -3.187 7.661 -3.169 7.188 -3.125 C 6.717 -3.08 6.178 -3.004 5.581 -2.897 C 4.98 -2.791 4.352 -2.665 3.692 -2.519 C 3.03 -2.373 2.423 -2.208 1.863 -2.021 C 1.303 -1.835 .843 -1.624 .48 -1.385 C .117 -1.147 -.078 -.894 -.104 -.623 C -.118 -.5 -.083 -.293 0 0 "/>
<path transform="matrix(1,0,0,-1,326.02,208.44281)" d="M 0 0 C -.004 -.049 -.023 -.202 -.06 -.459 C -.095 -.716 -.141 -1.009 -.199 -1.338 C -.256 -1.667 -.287 -1.857 -.291 -1.906 C -.262 -1.934 -.236 -1.948 -.204 -1.951 C -.146 -1.956 -.055 -1.938 .069 -1.898 C .195 -1.859 .312 -1.783 .427 -1.668 C .543 -1.554 .654 -1.385 .764 -1.159 C .873 -.933 .946 -.648 .973 -.304 C 1.01 .126 1.047 .557 1.084 .986 C .722 .659 .36 .33 0 0 M -9.451 -3.129 C -11.17 -3.059 -12.889 -3.009 -14.609 -2.978 C -14.651 -2.878 -14.695 -2.779 -14.738 -2.68 C -14.732 -2.359 -14.727 -2.039 -14.721 -1.718 C -14.706 -.855 -14.687 -.084 -14.658 .594 C -14.631 1.272 -14.576 2.079 -14.501 3.015 C -14.346 3.234 -14.129 3.372 -13.854 3.428 C -13.578 3.483 -13.332 3.509 -13.118 3.504 C -12.509 3.49 -11.899 3.473 -11.289 3.454 C -10.984 3.444 -10.688 3.402 -10.399 3.331 C -10.113 3.259 -9.805 3.167 -9.471 3.056 C -9.488 2.71 -9.465 2.444 -9.413 2.257 C -9.361 2.07 -9.3 1.901 -9.229 1.75 C -9.156 1.599 -9.084 1.448 -8.997 1.296 C -8.912 1.145 -8.846 .932 -8.797 .658 C -8.755 .261 -8.712 -.136 -8.67 -.533 C -8.597 -.931 -8.472 -1.325 -8.295 -1.716 C -8.119 -2.107 -7.949 -2.504 -7.792 -2.906 C -7.631 -3.31 -7.5 -3.724 -7.386 -4.149 C -7.273 -4.574 -7.23 -5.008 -7.254 -5.452 C -7.266 -5.724 -7.367 -5.972 -7.555 -6.196 C -7.742 -6.422 -7.844 -6.67 -7.855 -6.941 C -7.864 -7.113 -7.873 -7.286 -7.881 -7.458 C -7.891 -7.68 -7.889 -7.903 -7.87 -8.125 C -7.853 -8.349 -7.74 -8.465 -7.539 -8.476 C -7.479 -8.478 -7.437 -8.468 -7.407 -8.445 C -7.255 -8.305 -7.146 -8.032 -7.082 -7.628 C -7.018 -7.224 -6.974 -6.813 -6.95 -6.394 C -6.932 -6.049 -6.93 -5.728 -6.943 -5.431 C -6.956 -5.134 -6.959 -4.911 -6.953 -4.764 C -6.922 -4.16 -6.89 -3.557 -6.858 -2.953 C -6.937 -2.801 -6.986 -2.657 -6.991 -2.521 C -6.998 -2.384 -7.029 -2.24 -7.081 -2.089 C -7.072 -1.905 -7.062 -1.72 -7.053 -1.535 C -7.068 -.361 -7.082 .812 -7.1 1.986 C -7.084 2.307 -7.067 2.627 -7.051 2.947 C -6.985 3.043 -6.877 3.117 -6.72 3.171 C -6.564 3.225 -6.441 3.25 -6.35 3.245 C -2.799 3.057 .75 2.787 4.29 2.437 C 4.379 2.254 4.469 2.072 4.558 1.89 C 4.385 .172 4.211 -1.546 4.037 -3.264 C 3.891 -3.522 3.746 -3.781 3.6 -4.039 C 1.99 -3.88 .379 -3.738 -1.233 -3.613 C -1.342 -3.667 -1.449 -3.721 -1.559 -3.774 C -1.632 -4.362 -1.699 -4.864 -1.762 -5.28 C -1.822 -5.696 -1.875 -6.125 -1.926 -6.566 C -1.975 -7.008 -2.01 -7.376 -2.031 -7.671 C -2.233 -10.353 -2.481 -13.129 -2.766 -16.002 C -3.051 -18.875 -3.363 -21.647 -3.692 -24.319 C -3.704 -24.466 -3.756 -24.611 -3.846 -24.752 C -3.938 -24.895 -4.049 -24.96 -4.184 -24.951 C -6.178 -24.81 -8.174 -24.698 -10.171 -24.615 C -10.262 -24.562 -10.354 -24.508 -10.445 -24.456 L -10.316 -21.239 C -10.031 -15.202 -9.743 -9.166 -9.451 -3.129 "/>
<path transform="matrix(1,0,0,-1,385.2983,219.04004)" d="M 0 0 C -.054 -.059 -.113 -.13 -.175 -.212 C -.224 -.352 -.217 -.512 -.15 -.692 C -.085 -.873 -.004 -1.054 .095 -1.233 C .194 -1.413 .278 -1.582 .352 -1.739 C .425 -1.897 .45 -2.011 .423 -2.08 C .437 -2.217 .397 -2.438 .302 -2.745 C .204 -3.052 .115 -3.332 .019 -3.587 C -.022 -3.703 -.065 -3.819 -.107 -3.935 C -.067 -4.082 .002 -4.171 .085 -4.202 C .271 -4.218 .464 -4.091 .661 -3.822 C .857 -3.552 1.044 -3.234 1.231 -2.869 C 1.416 -2.502 1.596 -2.143 1.778 -1.788 C 1.956 -1.434 2.114 -1.163 2.249 -.976 C 2.288 -.964 2.394 -.99 2.565 -1.054 C 2.667 -1.091 2.769 -1.129 2.87 -1.167 C 3.591 -1.436 4.251 -1.911 4.847 -2.589 C .95 -7.143 -2.817 -11.775 -6.454 -16.479 C -6.48 -16.47 -6.508 -16.46 -6.534 -16.451 C -7.755 -18.06 -8.96 -19.677 -10.151 -21.302 C -10.255 -21.424 -10.399 -21.608 -10.585 -21.857 C -10.774 -22.105 -10.979 -22.368 -11.204 -22.643 C -11.429 -22.917 -11.639 -23.172 -11.833 -23.405 C -12.026 -23.639 -12.155 -23.798 -12.211 -23.883 C -12.266 -24.047 -12.344 -24.15 -12.446 -24.194 C -12.515 -24.224 -12.603 -24.292 -12.709 -24.398 C -12.817 -24.505 -12.883 -24.554 -12.908 -24.546 C -14.437 -24.032 -15.97 -23.536 -17.507 -23.059 C -17.786 -22.869 -17.972 -22.664 -18.06 -22.443 C -18.148 -22.222 -18.214 -21.951 -18.259 -21.628 C -18.302 -21.305 -18.337 -20.927 -18.362 -20.494 C -18.39 -20.061 -18.476 -19.526 -18.632 -18.888 C -18.638 -18.911 -18.646 -18.935 -18.652 -18.958 C -18.661 -18.801 -18.673 -18.669 -18.685 -18.563 C -18.696 -18.457 -18.702 -18.358 -18.704 -18.267 C -18.706 -18.177 -18.724 -18.127 -18.747 -18.12 C -18.76 -18.116 -18.773 -18.112 -18.786 -18.108 C -18.839 -18.092 -18.888 -18.065 -18.935 -18.025 C -18.983 -17.986 -19.024 -17.851 -19.073 -17.618 C -19.122 -17.386 -19.165 -17.02 -19.205 -16.519 C -19.247 -16.019 -19.283 -15.315 -19.312 -14.408 C -19.745 -15.104 -20.101 -15.709 -20.378 -16.22 C -20.657 -16.731 -20.808 -17.059 -20.852 -17.201 C -21.478 -17.933 -22.099 -18.668 -22.716 -19.406 C -22.763 -19.469 -22.858 -19.59 -23.007 -19.766 C -23.155 -19.943 -23.319 -20.122 -23.495 -20.303 C -23.671 -20.485 -23.839 -20.649 -24.009 -20.796 C -24.175 -20.942 -24.301 -21.017 -24.386 -21.019 C -26.027 -20.573 -27.673 -20.147 -29.323 -19.743 C -29.296 -19.635 -29.271 -19.527 -29.243 -19.419 C -29.269 -19.413 -29.296 -19.407 -29.322 -19.4 C -29.926 -19.253 -30.355 -18.852 -30.617 -18.194 C -30.88 -17.537 -30.938 -16.77 -30.788 -15.892 C -30.623 -14.829 -30.461 -13.765 -30.299 -12.701 C -30.516 -12.524 -30.677 -12.398 -30.789 -12.322 C -30.899 -12.246 -30.954 -12.018 -30.954 -11.639 C -30.913 -5.374 -30.989 .905 -31.184 7.193 C -31.284 7.441 -31.345 7.616 -31.353 7.719 C -31.364 7.822 -31.343 7.994 -31.293 8.236 C -31.251 8.453 -31.065 8.617 -30.747 8.728 C -30.429 8.837 -30.194 8.876 -30.043 8.845 C -29.997 8.835 -29.952 8.826 -29.907 8.816 C -29.728 8.778 -29.519 8.708 -29.271 8.605 C -29.027 8.502 -28.809 8.378 -28.602 8.233 C -28.398 8.088 -28.233 7.925 -28.101 7.744 C -27.97 7.563 -27.925 7.365 -27.974 7.148 C -28.177 6.448 -28.379 5.747 -28.581 5.046 C -28.631 4.754 -28.68 4.462 -28.729 4.169 C -28.726 3.916 -28.678 3.754 -28.585 3.683 C -28.496 3.611 -28.357 3.557 -28.185 3.518 C -28.125 3.504 -28.066 3.491 -28.009 3.478 C -27.892 3.452 -27.726 3.609 -27.508 3.953 C -27.294 4.296 -27.059 4.705 -26.81 5.179 C -26.561 5.654 -26.282 6.121 -25.972 6.581 C -25.661 7.041 -25.341 7.372 -25.011 7.573 C -25.052 7.405 -24.923 7.287 -24.624 7.216 C -24.03 7.203 -23.437 7.187 -22.843 7.168 C -22.632 7.117 -22.525 6.976 -22.521 6.746 C -22.996 3.802 -23.482 .859 -23.976 -2.081 C -23.959 -2.137 -23.91 -2.091 -23.829 -1.946 C -23.747 -1.802 -23.694 -1.746 -23.672 -1.776 C -23.687 -1.951 -23.672 -2.253 -23.629 -2.684 C -23.585 -3.114 -23.55 -3.569 -23.522 -4.046 C -23.495 -4.525 -23.466 -4.978 -23.441 -5.404 C -23.415 -5.831 -23.409 -6.119 -23.417 -6.27 C -23.489 -6.43 -23.581 -6.495 -23.692 -6.467 C -23.889 -6.417 -24.084 -6.367 -24.28 -6.317 C -24.338 -6.303 -24.386 -6.328 -24.433 -6.393 C -24.485 -6.596 -24.536 -6.799 -24.588 -7.002 C -24.624 -7.146 -24.628 -7.286 -24.583 -7.423 C -24.543 -7.561 -24.554 -7.749 -24.616 -7.988 L -24.634 -8.06 C -24.692 -8.287 -24.749 -8.514 -24.808 -8.741 C -24.897 -9.1 -24.978 -9.296 -25.046 -9.33 C -24.968 -9.655 -24.89 -9.98 -24.812 -10.306 C -24.879 -10.912 -24.948 -11.519 -25.018 -12.125 C -24.923 -12.149 -24.827 -12.174 -24.731 -12.198 C -24.569 -12.241 -24.358 -11.76 -24.095 -10.757 C -23.993 -10.364 -23.89 -9.97 -23.788 -9.576 C -23.605 -9.445 -23.424 -9.313 -23.242 -9.183 C -22.964 -9.025 -22.794 -8.892 -22.737 -8.78 C -22.679 -8.668 -22.632 -8.553 -22.601 -8.433 C -22.569 -8.314 -22.544 -8.199 -22.531 -8.087 C -22.518 -7.977 -22.49 -7.85 -22.453 -7.707 C -22.383 -7.444 -22.223 -7.168 -21.964 -6.879 C -21.921 -6.827 -21.877 -6.774 -21.833 -6.722 C -21.391 -6.177 -20.987 -5.659 -20.627 -5.167 C -20.269 -4.677 -19.956 -4.173 -19.693 -3.657 C -19.729 -3.57 -19.776 -3.456 -19.828 -3.313 C -19.882 -3.171 -19.849 -2.875 -19.724 -2.421 C -19.55 -1.779 -18.967 -.632 -17.954 1.009 C -17.718 1.865 -17.483 2.722 -17.248 3.578 C -17.163 3.657 -17.024 3.791 -16.829 3.981 C -16.634 4.171 -16.424 4.362 -16.195 4.555 C -15.965 4.747 -15.75 4.918 -15.552 5.067 C -15.35 5.216 -15.204 5.277 -15.116 5.252 C -14.363 5.041 -13.61 4.825 -12.858 4.605 C -13.149 3.61 -13.442 2.616 -13.733 1.622 C -13.775 1.48 -13.814 1.304 -13.841 1.094 C -13.87 .884 -13.899 .681 -13.925 .483 C -13.954 .285 -13.961 .114 -13.958 -.028 C -13.953 -.171 -13.936 -.247 -13.908 -.255 C -13.794 -.289 -13.624 -.198 -13.403 .021 C -13.179 .237 -12.927 .535 -12.64 .913 C -12.354 1.291 -12.073 1.748 -11.8 2.284 C -11.526 2.821 -11.282 3.391 -11.067 3.996 C -10.81 3.893 -10.551 3.789 -10.295 3.685 C -9.923 3.377 -9.552 3.069 -9.183 2.76 C -9.198 2.713 -9.303 2.559 -9.497 2.296 C -9.69 2.033 -9.837 1.841 -9.94 1.717 C -10.579 .224 -11.216 -1.271 -11.849 -2.768 C -11.889 -2.909 -11.901 -3.082 -11.868 -3.284 C -11.837 -3.487 -11.86 -3.708 -11.932 -3.942 C -11.976 -4.084 -12.016 -4.163 -12.051 -4.177 C -12.04 -4.439 -12.05 -4.675 -12.083 -4.883 C -12.115 -5.093 -12.163 -5.292 -12.222 -5.48 C -12.274 -5.645 -12.325 -5.784 -12.374 -5.897 C -12.429 -6.011 -12.454 -6.091 -12.472 -6.138 C -12.552 -6.398 -12.618 -6.564 -12.673 -6.638 C -12.726 -6.712 -12.763 -6.772 -12.776 -6.819 C -12.79 -6.866 -12.806 -6.914 -12.819 -6.96 C -12.729 -8.848 -12.655 -10.732 -12.596 -12.616 C -12.581 -12.75 -12.517 -12.835 -12.407 -12.87 C -12.367 -12.883 -12.325 -12.896 -12.285 -12.909 C -11.099 -11.411 -9.896 -9.921 -8.681 -8.439 C -7.534 -6.519 -6.374 -4.604 -5.201 -2.696 C -4.581 -1.994 -4.108 -1.406 -3.782 -.931 C -3.46 -.455 -3.204 -.086 -3.015 .176 C -2.829 .437 -2.669 .611 -2.542 .698 C -2.417 .785 -2.223 .782 -1.959 .691 C -1.306 .464 -.651 .233 0 0 "/>
<path transform="matrix(1,0,0,-1,406.4184,244.16352)" d="M 0 0 L .814 1.579 C 1.281 2.478 1.539 3.405 1.595 4.361 C 1.652 5.317 1.523 6.241 1.212 7.129 C .901 8.017 .427 8.827 -.213 9.552 C -.851 10.277 -1.625 10.857 -2.527 11.285 C -4.101 11.568 -5.454 11.257 -6.565 10.368 C -7.682 9.479 -8.661 8.074 -9.522 6.163 C -9.74 5.679 -9.959 5.196 -10.178 4.712 C -10.553 3.88 -10.821 3.074 -10.984 2.295 C -11.148 1.516 -11.018 .705 -10.593 -.142 C -10.484 -.382 -10.434 -.629 -10.443 -.884 C -10.453 -1.139 -10.48 -1.375 -10.539 -1.594 C -10.596 -1.813 -10.636 -2 -10.658 -2.151 C -10.682 -2.303 -10.643 -2.402 -10.541 -2.451 C -10.439 -2.498 -10.335 -2.507 -10.227 -2.475 C -9.58 -2.424 -9.103 -2.473 -8.797 -2.618 C -8.8 -3.083 -8.807 -3.325 -8.816 -3.347 C -8.838 -3.391 -8.859 -3.436 -8.881 -3.48 C -8.979 -3.681 -9.133 -3.927 -9.35 -4.22 C -9.567 -4.513 -9.75 -4.815 -9.898 -5.126 C -9.952 -5.239 -10.005 -5.383 -10.061 -5.562 C -10.115 -5.741 -10.158 -5.913 -10.189 -6.075 C -10.224 -6.238 -10.231 -6.39 -10.223 -6.531 C -10.213 -6.672 -10.171 -6.76 -10.098 -6.796 C -10.086 -6.802 -10.072 -6.808 -10.06 -6.814 C -9.846 -6.369 -9.633 -5.924 -9.419 -5.479 C -9.285 -5.269 -9.143 -5.161 -8.984 -5.155 C -8.827 -5.149 -8.678 -5.069 -8.542 -4.916 C -8.416 -4.881 -8.291 -4.846 -8.164 -4.811 C -7.867 -4.325 -7.508 -3.875 -7.087 -3.463 C -6.665 -3.05 -6.137 -2.904 -5.498 -3.026 C -5.328 -3.262 -5.16 -3.497 -4.992 -3.732 C -4.91 -3.567 -4.826 -3.401 -4.744 -3.236 C -4.132 -3.349 -3.593 -3.353 -3.121 -3.246 C -2.652 -3.139 -2.234 -2.937 -1.869 -2.638 C -1.505 -2.339 -1.176 -1.968 -.883 -1.522 C -.588 -1.077 -.291 -.57 0 0 M -7.32 15.595 C -7.41 15.392 -7.451 15.262 -7.442 15.205 C -7.432 15.147 -7.334 15.076 -7.139 14.989 C -6.863 14.866 -6.642 14.904 -6.487 15.104 C -6.331 15.305 -6.191 15.541 -6.072 15.811 C -6.198 15.867 -6.324 15.923 -6.449 15.979 C -6.699 16.091 -6.883 16.116 -6.99 16.057 C -7.105 15.998 -7.209 15.844 -7.32 15.595 M 7.418 -2.738 C 6.836 -3.77 6.232 -4.682 5.604 -5.475 C 4.975 -6.269 4.285 -6.956 3.533 -7.541 C 2.784 -8.125 1.969 -8.627 1.096 -9.048 C .222 -9.47 -.752 -9.825 -1.828 -10.117 C -3.385 -10.544 -4.896 -10.635 -6.379 -10.391 C -7.863 -10.147 -9.25 -9.712 -10.556 -9.081 C -10.864 -8.932 -11.173 -8.784 -11.48 -8.637 C -11.998 -8.389 -12.482 -8.136 -12.915 -7.877 C -13.354 -7.618 -13.781 -7.286 -14.194 -6.878 C -14.492 -6.578 -14.793 -6.279 -15.094 -5.98 C -15.352 -5.756 -15.572 -5.545 -15.736 -5.349 C -15.905 -5.152 -15.987 -4.891 -15.998 -4.564 C -16.611 -3.78 -16.979 -2.895 -17.098 -1.903 C -17.047 -1.751 -16.996 -1.598 -16.945 -1.445 C -16.959 -1.412 -17.022 -1.358 -17.127 -1.287 C -17.232 -1.215 -17.295 -1.134 -17.318 -1.043 C -17.475 -.561 -17.633 -.078 -17.795 .405 C -18.083 1.812 -18.116 3.247 -17.881 4.711 C -17.646 6.176 -17.268 7.571 -16.723 8.896 C -16.66 9.044 -16.602 9.193 -16.539 9.341 C -16.187 10.129 -15.778 10.909 -15.318 11.681 C -14.861 12.452 -14.301 13.197 -13.65 13.915 C -13.689 13.664 -13.715 13.374 -13.722 13.043 C -13.732 12.712 -13.672 12.508 -13.543 12.428 C -13.492 12.405 -13.469 12.331 -13.492 12.206 C -13.513 12.08 -13.496 12.006 -13.441 11.983 C -13.422 11.989 -13.404 11.995 -13.385 12 C -13.357 12.068 -13.289 12.188 -13.187 12.358 C -13.082 12.529 -12.959 12.725 -12.818 12.946 C -12.679 13.167 -12.538 13.383 -12.399 13.593 C -12.263 13.803 -12.147 13.982 -12.052 14.13 C -12.043 14.153 -12.031 14.175 -12.023 14.198 C -11.991 14.238 -11.957 14.277 -11.925 14.317 C -11.895 14.385 -11.875 14.585 -11.867 14.916 C -11.861 15.247 -11.796 15.56 -11.668 15.855 C -11.596 16.038 -11.534 16.134 -11.498 16.145 C -11.272 16.292 -11.05 16.411 -10.828 16.505 C -10.611 16.6 -10.387 16.708 -10.17 16.83 C -10.143 16.818 -10.115 16.806 -10.087 16.794 C -10.091 16.823 -10.095 16.852 -10.099 16.88 C -8.668 17.667 -7.154 18.046 -5.547 18.007 C -5.201 18.017 -4.869 17.989 -4.543 17.923 C -4.217 17.858 -3.887 17.788 -3.541 17.714 C -3.521 17.759 -3.402 17.739 -3.187 17.654 C -2.971 17.569 -2.842 17.53 -2.805 17.54 C -2.728 17.261 -2.669 17.057 -2.625 16.928 C -2.584 16.8 -2.564 16.724 -2.576 16.702 C -2.455 16.672 -2.344 16.695 -2.238 16.77 C -2.136 16.845 -2.041 16.937 -1.956 17.047 C -1.873 17.157 -1.785 17.247 -1.703 17.317 C -1.617 17.387 -1.547 17.409 -1.492 17.382 L -1.281 17.284 C -.789 17.082 -.373 16.904 -.014 16.749 C .343 16.593 .676 16.441 .984 16.293 C 1.658 15.97 2.154 15.667 2.467 15.39 C 2.779 15.113 2.862 14.818 2.709 14.508 C 2.334 14.239 1.96 13.969 1.587 13.699 C 1.576 13.676 1.576 13.592 1.594 13.448 C 1.609 13.303 1.619 13.162 1.618 13.024 C 1.619 12.886 1.639 12.684 1.679 12.417 C 1.656 12.372 1.636 12.328 1.613 12.284 C 1.495 12.218 1.377 12.152 1.26 12.086 C 1.203 11.976 1.158 11.827 1.117 11.641 C 1.074 11.455 1.059 11.263 1.066 11.068 C 1.071 10.872 1.098 10.702 1.145 10.555 C 1.187 10.409 1.271 10.308 1.377 10.254 C 1.486 10.474 1.594 10.636 1.693 10.737 C 1.794 10.838 1.894 10.988 1.994 11.187 C 2.111 11.43 2.322 11.534 2.611 11.499 C 2.902 11.464 3.098 11.545 3.198 11.744 C 3.543 12.33 3.89 12.916 4.236 13.5 C 4.328 13.481 4.416 13.45 4.502 13.408 C 4.781 13.269 5.134 13.066 5.577 12.8 C 6.016 12.534 6.293 12.372 6.401 12.314 C 6.415 12.308 6.429 12.301 6.441 12.293 C 7.34 11.249 8.025 10.085 8.492 8.811 C 8.965 7.536 9.227 6.234 9.277 4.91 C 9.332 3.585 9.195 2.269 8.878 .963 C 8.563 -.344 8.07 -1.576 7.418 -2.738 "/>
<path transform="matrix(1,0,0,-1,430.7328,265.62879)" d="M 0 0 C -.16 -.617 -.284 -1.272 -.381 -1.965 C -.477 -2.659 -.574 -3.337 -.672 -4.001 C -.771 -4.665 -.895 -5.292 -1.054 -5.883 C -1.212 -6.474 -1.424 -6.994 -1.687 -7.442 C -1.716 -7.482 -1.745 -7.521 -1.775 -7.561 C -3.802 -6.046 -5.85 -4.575 -7.919 -3.145 C -8.131 -3.002 -8.188 -2.781 -8.1 -2.481 C -8.016 -2.181 -7.971 -1.928 -7.963 -1.723 C -7.908 -1.044 -7.807 -.343 -7.661 .378 C -7.517 1.099 -7.361 1.822 -7.204 2.547 C -7.047 3.272 -6.912 4 -6.807 4.731 C -6.703 5.462 -6.646 6.179 -6.637 6.881 C -6.621 6.959 -6.629 7.047 -6.67 7.147 C -6.711 7.247 -6.736 7.315 -6.746 7.352 C -6.782 7.375 -6.818 7.399 -6.854 7.423 C -6.953 7.488 -7.027 7.478 -7.082 7.396 C -8.262 5.75 -9.438 4.102 -10.613 2.453 C -10.605 2.417 -10.719 2.213 -10.961 1.84 C -11.232 1.427 -11.641 .854 -12.184 .119 C -12.326 .079 -12.469 .04 -12.609 0 C -14.381 1.152 -16.17 2.275 -17.97 3.367 C -18.039 3.467 -18.109 3.566 -18.178 3.666 C -13.467 11.472 -8.758 19.277 -4.049 27.083 C -3.756 27.139 -3.529 27.127 -3.352 27.05 C -3.178 26.972 -3.021 26.894 -2.889 26.811 C -2.754 26.729 -2.618 26.631 -2.484 26.52 C -2.35 26.409 -2.334 26.268 -2.438 26.101 C -2.658 25.743 -2.924 25.493 -3.229 25.349 C -3.539 25.206 -3.783 24.986 -3.963 24.692 C -4.021 24.597 -4.078 24.502 -4.137 24.408 C -4.066 24.163 -3.998 23.917 -3.93 23.672 C -3.929 23.614 -3.948 23.51 -3.984 23.359 C -4.024 23.208 -4.066 23.039 -4.109 22.849 C -4.154 22.658 -4.197 22.483 -4.242 22.322 C -4.287 22.161 -4.322 22.059 -4.348 22.018 C -4.373 21.976 -4.4 21.934 -4.426 21.892 C -4.517 21.745 -4.648 21.564 -4.815 21.349 C -4.984 21.134 -5.081 21.006 -5.107 20.964 C -4.937 20.859 -4.768 20.754 -4.599 20.648 C -4.625 20.606 -4.651 20.584 -4.667 20.582 C -4.687 20.579 -4.711 20.557 -4.734 20.516 C -4.969 20.312 -5.172 20.132 -5.34 19.976 C -5.509 19.82 -5.678 19.604 -5.846 19.332 C -5.885 19.269 -5.924 19.177 -5.963 19.057 C -6.002 18.791 -6.041 18.524 -6.082 18.259 C -6.224 18.028 -6.474 17.798 -6.83 17.569 C -7.186 17.339 -7.457 17.124 -7.652 16.925 C -7.672 16.894 -7.691 16.862 -7.711 16.831 C -7.855 16.599 -7.933 16.299 -7.949 15.932 C -7.962 15.565 -7.99 15.304 -8.014 15.146 C -7.979 15.094 -7.947 15.06 -7.92 15.044 C -7.816 14.98 -7.645 15.009 -7.393 15.129 C -7.142 15.249 -6.873 15.408 -6.59 15.608 C -6.305 15.808 -6.046 16.009 -5.812 16.211 C -5.577 16.414 -5.428 16.567 -5.361 16.671 C -5.203 16.922 -5.119 17.13 -5.102 17.296 C -5.086 17.461 -5.082 17.626 -5.088 17.79 C -5.093 17.953 -5.094 18.122 -5.092 18.295 C -5.092 18.469 -5.033 18.68 -4.914 18.926 C -4.555 19.501 -4.195 20.077 -3.836 20.652 C -3.469 21.354 -3.104 22.057 -2.738 22.76 C -2.727 22.78 -2.692 22.876 -2.641 23.048 C -2.588 23.219 -2.547 23.336 -2.506 23.399 C -2.471 23.462 -2.35 23.534 -2.151 23.614 C -1.953 23.694 -1.73 23.772 -1.479 23.849 C -1.227 23.924 -.989 24.007 -.766 24.099 C -.539 24.19 -.369 24.271 -.249 24.342 C -.171 24.409 .049 24.549 .406 24.759 C 2.287 23.566 4.153 22.343 6.006 21.09 C 6.243 20.93 6.309 20.706 6.209 20.416 C 6.105 20.126 5.947 19.809 5.734 19.463 C 5.521 19.117 5.303 18.762 5.097 18.397 C 4.889 18.033 4.777 17.704 4.767 17.413 C 4.748 17.334 4.801 17.182 4.91 16.957 C 5.02 16.731 5.055 16.588 5.012 16.527 C 4.939 16.425 4.814 16.339 4.637 16.269 C 4.453 16.198 4.262 16.121 4.057 16.038 C 3.85 15.956 3.641 15.863 3.445 15.761 C 3.244 15.659 3.096 15.536 2.998 15.394 C 2.313 15.949 1.626 16.501 .935 17.049 C .882 17.083 .808 17.125 .711 17.174 C .615 17.224 .504 17.291 .373 17.375 C .245 17.46 .116 17.545 -.013 17.629 C -.086 17.603 -.156 17.577 -.229 17.55 C -1.27 15.96 -2.309 14.371 -3.35 12.781 C -2.622 12.304 -1.897 11.823 -1.174 11.336 C -.851 11.118 -.521 11 -.187 10.981 C .144 10.964 .473 11.017 .795 11.14 C 1.115 11.263 1.41 11.436 1.674 11.659 C 1.935 11.882 2.154 12.116 2.32 12.36 C 2.561 12.706 2.768 13.048 2.945 13.39 C 3.123 13.731 3.229 14.144 3.264 14.63 C 3.369 14.619 3.467 14.602 3.564 14.581 C 3.659 14.559 3.766 14.571 3.87 14.618 C 4.122 14.983 4.387 15.302 4.668 15.573 C 4.945 15.844 5.229 16.115 5.512 16.386 C 5.792 16.656 6.074 16.932 6.365 17.211 C 6.656 17.492 6.93 17.824 7.199 18.21 C 7.645 18.382 8.09 18.553 8.536 18.722 L 8.809 18.532 C 9.093 18.331 9.313 18.103 9.462 17.846 C 9.612 17.59 9.78 17.319 9.967 17.035 C 10.051 16.854 10.137 16.672 10.221 16.49 C 10.94 14.882 11.146 13.336 10.861 11.863 C 10.57 10.389 9.912 8.971 8.9 7.605 C 8.636 7.248 8.307 6.87 7.915 6.47 C 7.523 6.069 7.094 5.696 6.633 5.348 C 6.166 5 5.697 4.694 5.228 4.43 C 4.754 4.165 4.314 3.983 3.91 3.882 C 3.742 3.853 3.474 3.841 3.111 3.846 C 2.748 3.851 2.376 3.868 1.996 3.899 C 1.618 3.929 1.13 3.959 .535 3.988 C .471 3.897 .406 3.807 .343 3.717 C .271 3.616 .246 3.5 .258 3.368 C .262 3.321 .264 3.273 .266 3.227 C .033 2.62 -.202 2.014 -.437 1.409 C -.686 1.011 -.935 .613 -1.184 .214 C -1.177 .178 -1.223 .088 -1.32 -.052 C -1.349 -.092 -1.378 -.132 -1.406 -.172 C -1.519 -.333 -1.576 -.432 -1.564 -.468 C -1.679 -.676 -1.791 -.883 -1.904 -1.09 C -2.025 -1.308 -1.992 -1.483 -1.805 -1.618 C -1.677 -1.682 -1.499 -1.671 -1.279 -1.587 C -1.061 -1.502 -.904 -1.4 -.818 -1.281 C -.628 -.87 -.438 -.459 -.248 -.048 C -.178 .052 -.092 .068 0 0 "/>
<path transform="matrix(1,0,0,-1,441.4008,281.92524)" d="M 0 0 C .049 -.093 .123 -.178 .207 -.253 C .291 -.329 .514 -.34 .863 -.287 C 1.213 -.234 1.597 -.16 2.009 -.063 C 2.418 .034 2.807 .148 3.154 .281 C 3.504 .415 3.73 .536 3.83 .647 C 3.944 .842 4.059 1.037 4.174 1.232 C 4.28 1.398 4.36 1.511 4.41 1.566 C 4.752 1.953 5.029 2.196 5.234 2.293 C 5.441 2.391 5.633 2.419 5.811 2.375 C 5.986 2.331 6.199 2.253 6.432 2.141 C 6.666 2.027 6.994 1.954 7.397 1.917 C 8.6 1.829 9.699 2.021 10.699 2.507 C 11.699 2.993 12.631 3.693 13.487 4.615 C 15.251 6.513 16.239 8.307 16.43 10.005 C 16.624 11.701 15.728 13.457 13.73 15.201 C 13.197 15.667 12.66 16.131 12.122 16.592 C 12.034 16.586 11.946 16.58 11.859 16.573 C 11.499 16.151 11.14 15.729 10.778 15.307 C 9.418 13.712 8.043 11.996 6.658 10.165 C 5.272 8.332 4.011 6.619 2.873 5.025 C 3.046 4.683 3.113 4.403 3.08 4.186 C 3.049 3.969 2.975 3.762 2.864 3.565 C 2.752 3.369 2.607 3.169 2.429 2.964 C 2.267 2.777 2.144 2.525 2.061 2.206 C 1.973 2.019 1.945 1.854 1.977 1.713 C 2.01 1.571 1.951 1.417 1.805 1.25 C 1.236 .994 .667 .736 .101 .477 C .076 .449 .052 .42 .027 .393 C -.039 .225 -.05 .095 0 0 M -4.43 7.441 C -4.33 7.566 -4.229 7.692 -4.129 7.817 C -4.007 7.971 -3.912 8.1 -3.846 8.206 C -3.783 8.312 -3.725 8.505 -3.686 8.789 C -1.588 11.786 .524 14.708 2.664 17.545 C 4.802 20.382 6.922 23.223 9.012 26.067 C 9.034 26.096 9.058 26.125 9.08 26.154 C 9.34 26.482 9.607 26.601 9.884 26.507 C 10.156 26.415 10.432 26.257 10.711 26.035 C 11.059 25.753 11.217 25.396 11.181 24.966 C 11.142 24.536 10.991 24.158 10.726 23.833 C 10.549 23.691 10.371 23.549 10.194 23.407 C 10.155 23.359 10.116 23.311 10.078 23.263 C 10.017 23.186 9.937 23.1 9.838 23.005 C 9.74 22.91 9.635 22.795 9.527 22.661 C 9.458 22.575 9.389 22.489 9.318 22.402 C 9.007 22.019 8.762 21.664 8.576 21.337 C 8.393 21.01 8.165 20.683 7.902 20.358 C 7.024 19.451 6.147 18.542 5.271 17.632 C 5.178 17.517 5.079 17.384 4.975 17.23 C 4.87 17.077 4.795 16.908 4.744 16.726 C 4.695 16.543 4.68 16.366 4.696 16.193 C 4.711 16.02 4.817 15.855 5.006 15.701 L 4.256 14.784 C 4.375 14.688 4.43 14.61 4.421 14.553 C 4.412 14.495 4.424 14.457 4.445 14.438 C 4.514 14.476 4.598 14.504 4.691 14.521 C 4.723 14.56 4.758 14.579 4.797 14.579 C 5.057 14.75 5.238 14.815 5.344 14.775 C 5.45 14.736 5.563 14.706 5.686 14.685 C 5.806 14.664 5.953 14.71 6.129 14.822 C 6.301 14.936 6.576 15.22 6.954 15.676 C 7.159 15.922 7.315 16.146 7.421 16.346 C 7.527 16.547 7.607 16.744 7.667 16.936 C 7.726 17.128 7.78 17.339 7.829 17.57 C 7.879 17.801 7.965 18.09 8.088 18.436 C 8.125 18.628 8.359 18.992 8.802 19.526 C 8.963 19.697 9.125 19.868 9.284 20.039 C 9.676 20.516 10.066 20.992 10.459 21.469 C 10.591 21.582 10.85 21.746 11.231 21.958 C 11.613 22.171 12.013 22.377 12.428 22.578 C 12.843 22.778 13.22 22.945 13.563 23.077 C 13.903 23.211 14.099 23.256 14.148 23.214 C 16.08 21.599 17.992 19.947 19.883 18.258 C 20.155 17.783 20.457 17.329 20.789 16.896 C 21.117 16.463 21.441 16.034 21.76 15.61 C 22.074 15.186 22.381 14.752 22.68 14.308 C 22.976 13.863 23.235 13.382 23.463 12.863 C 23.979 11.702 24.227 10.486 24.22 9.225 C 24.209 7.963 23.998 6.737 23.588 5.548 C 23.183 4.359 22.621 3.227 21.922 2.146 C 21.222 1.067 20.444 .102 19.589 -.753 C 18.523 -1.817 17.309 -2.751 15.939 -3.567 C 14.574 -4.383 13.139 -4.877 11.633 -5.062 C 11.102 -5.078 10.57 -5.095 10.04 -5.115 C 9.945 -5.127 9.851 -5.098 9.76 -5.025 C 9.664 -4.953 9.59 -4.905 9.531 -4.882 C 9.389 -4.967 9.246 -5.052 9.104 -5.138 C 8.378 -5.299 7.607 -5.275 6.781 -5.073 C 5.955 -4.871 5.145 -4.585 4.348 -4.218 C 3.551 -3.852 2.799 -3.433 2.088 -2.959 C 1.377 -2.486 .795 -2.053 .348 -1.657 C .24 -1.562 .095 -1.398 -.103 -1.162 C -.295 -.928 -.424 -.784 -.488 -.727 C -1.855 .463 -3.232 1.632 -4.623 2.779 C -4.842 2.96 -5.098 3.195 -5.395 3.484 C -5.689 3.773 -5.94 4.015 -6.145 4.212 C -6.348 4.41 -6.465 4.518 -6.485 4.535 C -6.492 4.684 -6.5 4.833 -6.509 4.981 C -6.493 5 -6.462 5.062 -6.415 5.167 C -6.367 5.272 -6.297 5.381 -6.205 5.497 C -6.159 5.555 -6.113 5.613 -6.066 5.67 C -5.521 6.261 -4.977 6.852 -4.43 7.441 "/>
</g>
</g>
</g>
</svg>
